# MagicaVoxel @ Ephtracy

# group
g MultiShotTower0_Bottom

# material
mtllib MultiShotTower0_Bottom.mtl
usemtl palette

# normals
vn -1 0 0
vn 1 0 0
vn 0 0 1
vn 0 0 -1
vn 0 -1 0
vn 0 1 0

# texcoords
vt 0.306641 0.5
vt 0.955078 0.5
vt 0.962891 0.5
vt 0.974609 0.5
vt 0.978516 0.5
vt 0.982422 0.5
vt 0.986328 0.5
vt 0.994141 0.5

# verts
v -16 0 5
v -16 0 -22
v -16 4 5
v -16 4 -22
v -10 4 1
v -10 4 -18
v -10 10 -8
v -10 10 -9
v -10 12 1
v -10 12 -8
v -10 12 -9
v -10 12 -18
v -10 13 1
v -10 13 -18
v -9 2 -0
v -9 2 -1
v -9 2 -16
v -9 2 -17
v -9 3 -1
v -9 3 -16
v -9 4 -0
v -9 4 -1
v -9 4 -16
v -9 4 -17
v -8 2 1
v -8 2 -0
v -8 2 -17
v -8 2 -18
v -8 3 1
v -8 3 -0
v -8 3 -17
v -8 3 -18
v -8 4 1
v -8 4 -0
v -8 4 -17
v -8 4 -18
v -8 13 -1
v -8 13 -8
v -8 13 -9
v -8 13 -16
v -8 14 -1
v -8 14 -8
v -8 14 -9
v -8 14 -16
v -8 15 -1
v -8 15 -8
v -8 15 -9
v -8 15 -16
v -8 16 -1
v -8 16 -8
v -8 16 -9
v -8 16 -16
v -8 17 -1
v -8 17 -8
v -8 17 -9
v -8 17 -16
v -8 18 -1
v -8 18 -16
v -6 18 -3
v -6 18 -4
v -6 18 -13
v -6 18 -14
v -6 20 -4
v -6 20 -13
v -6 21 -3
v -6 21 -14
v 2 2 4
v 2 2 3
v 2 3 4
v 2 3 3
v 8 2 1
v 8 2 -0
v 8 2 -17
v 8 2 -18
v 8 4 1
v 8 4 -0
v 8 4 -17
v 8 4 -18
v 9 2 -0
v 9 2 -1
v 9 3 -1
v 9 4 -0
v 9 4 -1
v -10 2 -0
v -10 2 -1
v -10 2 -16
v -10 2 -17
v -10 3 -1
v -10 3 -16
v -10 4 -0
v -10 4 -1
v -10 4 -16
v -10 4 -17
v -9 2 1
v -9 2 -0
v -9 2 -17
v -9 2 -18
v -9 4 1
v -9 4 -0
v -9 4 -17
v -9 4 -18
v 1 2 4
v 1 2 3
v 1 3 4
v 1 3 3
v 5 18 -3
v 5 18 -4
v 5 18 -13
v 5 18 -14
v 5 20 -4
v 5 20 -13
v 5 21 -3
v 5 21 -14
v 7 2 1
v 7 2 -0
v 7 2 -17
v 7 2 -18
v 7 3 1
v 7 3 -0
v 7 3 -17
v 7 3 -18
v 7 4 1
v 7 4 -0
v 7 4 -17
v 7 4 -18
v 7 13 -1
v 7 13 -6
v 7 13 -8
v 7 13 -9
v 7 13 -13
v 7 13 -16
v 7 14 -1
v 7 14 -8
v 7 14 -9
v 7 14 -16
v 7 15 -1
v 7 15 -8
v 7 15 -9
v 7 15 -16
v 7 16 -1
v 7 16 -8
v 7 16 -9
v 7 16 -16
v 7 17 -1
v 7 17 -8
v 7 17 -9
v 7 17 -16
v 7 18 -1
v 7 18 -16
v 8 2 -0
v 8 2 -1
v 8 3 -1
v 8 4 -0
v 8 4 -1
v 9 4 1
v 9 4 -18
v 9 9 -8
v 9 9 -9
v 9 12 1
v 9 12 -8
v 9 12 -9
v 9 12 -18
v 9 13 1
v 9 13 -18
v 13 0 5
v 13 0 -22
v 13 4 5
v 13 4 -22
v -16 0 5
v -16 4 5
v 13 0 5
v 13 4 5
v 1 2 3
v 1 3 3
v 2 2 3
v 2 3 3
v -10 4 1
v -10 12 1
v -10 13 1
v 9 4 1
v 9 12 1
v 9 13 1
v -9 2 -0
v -9 4 -0
v -8 2 -0
v -8 3 -0
v -8 4 -0
v 7 2 -0
v 7 3 -0
v 7 4 -0
v 8 2 -0
v 8 4 -0
v -10 2 -1
v -10 3 -1
v -10 4 -1
v -9 2 -1
v -9 3 -1
v -9 4 -1
v -8 13 -1
v -8 14 -1
v -8 15 -1
v -8 16 -1
v -8 17 -1
v -8 18 -1
v 7 13 -1
v 7 14 -1
v 7 15 -1
v 7 16 -1
v 7 17 -1
v 7 18 -1
v 8 2 -1
v 8 3 -1
v 8 4 -1
v 9 2 -1
v 9 3 -1
v 9 4 -1
v -6 18 -3
v -6 21 -3
v -5 18 -3
v -5 20 -3
v 4 18 -3
v 4 20 -3
v 5 18 -3
v 5 21 -3
v -10 2 -17
v -10 4 -17
v -9 2 -17
v -9 4 -17
v -9 2 -18
v -9 4 -18
v -8 2 -18
v -8 3 -18
v -8 4 -18
v 7 2 -18
v 7 3 -18
v 7 4 -18
v 8 2 -18
v 8 4 -18
v 1 2 4
v 1 3 4
v 2 2 4
v 2 3 4
v -9 2 1
v -9 4 1
v -8 2 1
v -8 3 1
v -8 4 1
v 7 2 1
v 7 3 1
v 7 4 1
v 8 2 1
v 8 4 1
v -10 2 -0
v -10 4 -0
v -9 2 -0
v -9 4 -0
v 8 2 -0
v 8 4 -0
v 9 2 -0
v 9 4 -0
v -6 18 -14
v -6 21 -14
v -5 18 -14
v -5 20 -14
v 4 18 -14
v 4 20 -14
v 5 18 -14
v 5 21 -14
v -10 2 -16
v -10 3 -16
v -10 4 -16
v -9 2 -16
v -9 3 -16
v -9 4 -16
v -8 13 -16
v -8 14 -16
v -8 15 -16
v -8 16 -16
v -8 17 -16
v -8 18 -16
v 7 13 -16
v 7 14 -16
v 7 15 -16
v 7 16 -16
v 7 17 -16
v 7 18 -16
v -9 2 -17
v -9 4 -17
v -8 2 -17
v -8 3 -17
v -8 4 -17
v 7 2 -17
v 7 3 -17
v 7 4 -17
v 8 2 -17
v 8 4 -17
v -10 4 -18
v -10 12 -18
v -10 13 -18
v 9 4 -18
v 9 12 -18
v 9 13 -18
v -16 0 -22
v -16 4 -22
v 13 0 -22
v 13 4 -22
v -16 0 5
v 13 0 5
v -4 0 4
v -3 0 4
v 0 0 4
v 1 0 4
v 3 0 4
v -6 0 3
v -4 0 3
v -3 0 3
v 0 0 3
v 1 0 3
v 3 0 3
v 4 0 3
v 5 0 3
v -8 0 2
v -7 0 2
v -6 0 2
v 4 0 2
v 5 0 2
v 7 0 2
v -9 0 1
v -8 0 1
v -7 0 1
v -6 0 1
v 7 0 1
v 8 0 1
v -10 0 -0
v -9 0 -0
v -8 0 -0
v 7 0 -0
v 8 0 -0
v 9 0 -0
v -11 0 -1
v -10 0 -1
v 9 0 -1
v 10 0 -1
v -11 0 -2
v -10 0 -2
v 8 0 -2
v 9 0 -2
v 10 0 -2
v -12 0 -3
v -11 0 -3
v -12 0 -4
v -11 0 -4
v -12 0 -5
v -9 0 -5
v -11 0 -14
v -9 0 -14
v 8 0 -14
v 10 0 -14
v -11 0 -15
v -10 0 -15
v 9 0 -15
v 10 0 -15
v -11 0 -16
v -10 0 -16
v 8 0 -16
v 9 0 -16
v 10 0 -16
v -10 0 -17
v -9 0 -17
v -8 0 -17
v 7 0 -17
v 8 0 -17
v -9 0 -18
v -8 0 -18
v -7 0 -18
v -6 0 -18
v 5 0 -18
v 6 0 -18
v 7 0 -18
v 8 0 -18
v -8 0 -19
v -7 0 -19
v -6 0 -19
v -5 0 -19
v -4 0 -19
v 0 0 -19
v 5 0 -19
v 6 0 -19
v 7 0 -19
v -6 0 -20
v -5 0 -20
v -4 0 -20
v -4 0 -21
v 0 0 -21
v -16 0 -22
v 13 0 -22
v 1 3 4
v 2 3 4
v 1 3 3
v 2 3 3
v -9 4 1
v -8 4 1
v 7 4 1
v 8 4 1
v -10 4 -0
v -9 4 -0
v -8 4 -0
v 7 4 -0
v 8 4 -0
v 9 4 -0
v -10 4 -1
v -9 4 -1
v 8 4 -1
v 9 4 -1
v -10 4 -16
v -9 4 -16
v -10 4 -17
v -9 4 -17
v -8 4 -17
v 7 4 -17
v 8 4 -17
v -9 4 -18
v -8 4 -18
v 7 4 -18
v 8 4 -18
v 1 2 4
v 2 2 4
v 1 2 3
v 2 2 3
v -9 2 1
v -8 2 1
v 7 2 1
v 8 2 1
v -10 2 -0
v -9 2 -0
v -8 2 -0
v 7 2 -0
v 8 2 -0
v 9 2 -0
v -10 2 -1
v -9 2 -1
v 8 2 -1
v 9 2 -1
v -10 2 -16
v -9 2 -16
v -10 2 -17
v -9 2 -17
v -8 2 -17
v 7 2 -17
v 8 2 -17
v -9 2 -18
v -8 2 -18
v 7 2 -18
v 8 2 -18
v -16 4 5
v 13 4 5
v -10 4 1
v 9 4 1
v -10 4 -18
v 9 4 -18
v -16 4 -22
v 13 4 -22
v -10 13 1
v 9 13 1
v -8 13 -1
v 7 13 -1
v 7 13 -6
v 8 13 -6
v -8 13 -8
v 7 13 -8
v -8 13 -9
v 7 13 -9
v 7 13 -13
v 8 13 -13
v -8 13 -16
v 7 13 -16
v -10 13 -18
v 9 13 -18
v -8 18 -1
v 7 18 -1
v -6 18 -3
v -5 18 -3
v 4 18 -3
v 5 18 -3
v -6 18 -4
v 5 18 -4
v -6 18 -13
v 5 18 -13
v -6 18 -14
v -5 18 -14
v 4 18 -14
v 5 18 -14
v -8 18 -16
v 7 18 -16
v -6 21 -3
v 5 21 -3
v -6 21 -14
v 5 21 -14

# faces
f 3/4/1 2/4/1 1/4/1
f 4/4/1 2/4/1 3/4/1
f 7/4/1 6/4/1 5/4/1
f 8/4/1 6/4/1 7/4/1
f 9/4/1 7/4/1 5/4/1
f 10/8/1 8/8/1 7/8/1
f 10/4/1 7/4/1 9/4/1
f 11/4/1 6/4/1 8/4/1
f 11/8/1 8/8/1 10/8/1
f 12/4/1 6/4/1 11/4/1
f 13/6/1 10/6/1 9/6/1
f 13/6/1 11/6/1 10/6/1
f 13/6/1 12/6/1 11/6/1
f 14/6/1 12/6/1 13/6/1
f 19/5/1 16/5/1 15/5/1
f 20/5/1 18/5/1 17/5/1
f 21/5/1 19/5/1 15/5/1
f 22/5/1 19/5/1 21/5/1
f 23/5/1 18/5/1 20/5/1
f 24/5/1 18/5/1 23/5/1
f 29/5/1 26/5/1 25/5/1
f 30/5/1 26/5/1 29/5/1
f 31/5/1 28/5/1 27/5/1
f 32/5/1 28/5/1 31/5/1
f 33/4/1 30/4/1 29/4/1
f 34/4/1 30/4/1 33/4/1
f 35/7/1 32/7/1 31/7/1
f 36/7/1 32/7/1 35/7/1
f 41/7/1 38/7/1 37/7/1
f 42/2/1 39/2/1 38/2/1
f 42/7/1 38/7/1 41/7/1
f 43/7/1 40/7/1 39/7/1
f 43/2/1 39/2/1 42/2/1
f 44/7/1 40/7/1 43/7/1
f 45/3/1 42/3/1 41/3/1
f 46/2/1 43/2/1 42/2/1
f 46/3/1 42/3/1 45/3/1
f 47/3/1 44/3/1 43/3/1
f 47/2/1 43/2/1 46/2/1
f 48/3/1 44/3/1 47/3/1
f 49/7/1 46/7/1 45/7/1
f 50/2/1 47/2/1 46/2/1
f 50/7/1 46/7/1 49/7/1
f 51/7/1 48/7/1 47/7/1
f 51/2/1 47/2/1 50/2/1
f 52/7/1 48/7/1 51/7/1
f 53/3/1 50/3/1 49/3/1
f 54/2/1 51/2/1 50/2/1
f 54/3/1 50/3/1 53/3/1
f 55/3/1 52/3/1 51/3/1
f 55/2/1 51/2/1 54/2/1
f 56/3/1 52/3/1 55/3/1
f 57/7/1 54/7/1 53/7/1
f 57/7/1 55/7/1 54/7/1
f 57/7/1 56/7/1 55/7/1
f 58/7/1 56/7/1 57/7/1
f 63/4/1 60/4/1 59/4/1
f 63/7/1 61/7/1 60/7/1
f 64/4/1 62/4/1 61/4/1
f 64/7/1 61/7/1 63/7/1
f 65/4/1 63/4/1 59/4/1
f 65/4/1 64/4/1 63/4/1
f 66/4/1 62/4/1 64/4/1
f 66/4/1 64/4/1 65/4/1
f 69/4/1 68/4/1 67/4/1
f 70/4/1 68/4/1 69/4/1
f 75/4/1 72/4/1 71/4/1
f 76/4/1 72/4/1 75/4/1
f 77/4/1 74/4/1 73/4/1
f 78/4/1 74/4/1 77/4/1
f 81/4/1 80/4/1 79/4/1
f 82/4/1 81/4/1 79/4/1
f 83/4/1 81/4/1 82/4/1
f 84/4/2 85/4/2 88/4/2
f 86/4/2 87/4/2 89/4/2
f 84/4/2 88/4/2 90/4/2
f 90/4/2 88/4/2 91/4/2
f 89/4/2 87/4/2 92/4/2
f 92/4/2 87/4/2 93/4/2
f 94/4/2 95/4/2 98/4/2
f 98/4/2 95/4/2 99/4/2
f 96/4/2 97/4/2 100/4/2
f 100/4/2 97/4/2 101/4/2
f 102/4/2 103/4/2 104/4/2
f 104/4/2 103/4/2 105/4/2
f 106/4/2 107/4/2 110/4/2
f 107/7/2 108/7/2 110/7/2
f 108/4/2 109/4/2 111/4/2
f 110/7/2 108/7/2 111/7/2
f 106/4/2 110/4/2 112/4/2
f 110/4/2 111/4/2 112/4/2
f 111/4/2 109/4/2 113/4/2
f 112/4/2 111/4/2 113/4/2
f 114/5/2 115/5/2 118/5/2
f 118/5/2 115/5/2 119/5/2
f 116/5/2 117/5/2 120/5/2
f 120/5/2 117/5/2 121/5/2
f 118/7/2 119/7/2 122/7/2
f 122/7/2 119/7/2 123/7/2
f 120/7/2 121/7/2 124/7/2
f 124/7/2 121/7/2 125/7/2
f 126/7/2 127/7/2 132/7/2
f 127/7/2 128/7/2 132/7/2
f 128/2/2 129/2/2 133/2/2
f 132/7/2 128/7/2 133/7/2
f 130/7/2 131/7/2 134/7/2
f 133/2/2 129/2/2 134/2/2
f 129/7/2 130/7/2 134/7/2
f 134/7/2 131/7/2 135/7/2
f 132/3/2 133/3/2 136/3/2
f 133/2/2 134/2/2 137/2/2
f 136/3/2 133/3/2 137/3/2
f 134/3/2 135/3/2 138/3/2
f 137/2/2 134/2/2 138/2/2
f 138/3/2 135/3/2 139/3/2
f 136/7/2 137/7/2 140/7/2
f 137/2/2 138/2/2 141/2/2
f 140/7/2 137/7/2 141/7/2
f 138/7/2 139/7/2 142/7/2
f 141/2/2 138/2/2 142/2/2
f 142/7/2 139/7/2 143/7/2
f 140/3/2 141/3/2 144/3/2
f 141/2/2 142/2/2 145/2/2
f 144/3/2 141/3/2 145/3/2
f 142/3/2 143/3/2 146/3/2
f 145/2/2 142/2/2 146/2/2
f 146/3/2 143/3/2 147/3/2
f 144/7/2 145/7/2 148/7/2
f 145/7/2 146/7/2 148/7/2
f 146/7/2 147/7/2 148/7/2
f 148/7/2 147/7/2 149/7/2
f 150/5/2 151/5/2 152/5/2
f 150/5/2 152/5/2 153/5/2
f 153/5/2 152/5/2 154/5/2
f 155/4/2 156/4/2 157/4/2
f 157/4/2 156/4/2 158/4/2
f 155/4/2 157/4/2 159/4/2
f 157/2/2 158/2/2 160/2/2
f 159/4/2 157/4/2 160/4/2
f 158/4/2 156/4/2 161/4/2
f 160/2/2 158/2/2 161/2/2
f 161/4/2 156/4/2 162/4/2
f 159/6/2 160/6/2 163/6/2
f 160/6/2 161/6/2 163/6/2
f 161/6/2 162/6/2 163/6/2
f 163/6/2 162/6/2 164/6/2
f 165/4/2 166/4/2 167/4/2
f 167/4/2 166/4/2 168/4/2
f 171/4/3 170/4/3 169/4/3
f 172/4/3 170/4/3 171/4/3
f 175/4/3 174/4/3 173/4/3
f 176/4/3 174/4/3 175/4/3
f 180/4/3 178/4/3 177/4/3
f 181/6/3 179/6/3 178/6/3
f 181/4/3 178/4/3 180/4/3
f 182/6/3 179/6/3 181/6/3
f 185/5/3 184/5/3 183/5/3
f 186/5/3 184/5/3 185/5/3
f 187/5/3 184/5/3 186/5/3
f 191/5/3 189/5/3 188/5/3
f 191/5/3 190/5/3 189/5/3
f 192/5/3 190/5/3 191/5/3
f 196/5/3 194/5/3 193/5/3
f 197/7/3 195/7/3 194/7/3
f 197/5/3 194/5/3 196/5/3
f 198/7/3 195/7/3 197/7/3
f 205/7/3 200/7/3 199/7/3
f 206/3/3 201/3/3 200/3/3
f 206/7/3 200/7/3 205/7/3
f 207/7/3 202/7/3 201/7/3
f 207/3/3 201/3/3 206/3/3
f 208/3/3 203/3/3 202/3/3
f 208/7/3 202/7/3 207/7/3
f 209/7/3 204/7/3 203/7/3
f 209/3/3 203/3/3 208/3/3
f 210/7/3 204/7/3 209/7/3
f 214/5/3 212/5/3 211/5/3
f 215/7/3 213/7/3 212/7/3
f 215/5/3 212/5/3 214/5/3
f 216/7/3 213/7/3 215/7/3
f 219/4/3 218/4/3 217/4/3
f 220/4/3 218/4/3 219/4/3
f 221/7/3 220/7/3 219/7/3
f 222/4/3 218/4/3 220/4/3
f 222/7/3 220/7/3 221/7/3
f 223/4/3 222/4/3 221/4/3
f 224/4/3 218/4/3 222/4/3
f 224/4/3 222/4/3 223/4/3
f 227/4/3 226/4/3 225/4/3
f 228/4/3 226/4/3 227/4/3
f 231/4/3 230/4/3 229/4/3
f 232/4/3 230/4/3 231/4/3
f 233/4/3 230/4/3 232/4/3
f 237/4/3 235/4/3 234/4/3
f 237/4/3 236/4/3 235/4/3
f 238/4/3 236/4/3 237/4/3
f 239/4/4 240/4/4 241/4/4
f 241/4/4 240/4/4 242/4/4
f 243/4/4 244/4/4 245/4/4
f 245/4/4 244/4/4 246/4/4
f 246/4/4 244/4/4 247/4/4
f 248/4/4 249/4/4 251/4/4
f 249/4/4 250/4/4 251/4/4
f 251/4/4 250/4/4 252/4/4
f 253/4/4 254/4/4 255/4/4
f 255/4/4 254/4/4 256/4/4
f 257/4/4 258/4/4 259/4/4
f 259/4/4 258/4/4 260/4/4
f 261/4/4 262/4/4 263/4/4
f 263/4/4 262/4/4 264/4/4
f 263/7/4 264/7/4 265/7/4
f 264/4/4 262/4/4 266/4/4
f 265/7/4 264/7/4 266/7/4
f 265/4/4 266/4/4 267/4/4
f 266/4/4 262/4/4 268/4/4
f 267/4/4 266/4/4 268/4/4
f 269/5/4 270/5/4 272/5/4
f 270/7/4 271/7/4 273/7/4
f 272/5/4 270/5/4 273/5/4
f 273/7/4 271/7/4 274/7/4
f 275/7/4 276/7/4 281/7/4
f 276/3/4 277/3/4 282/3/4
f 281/7/4 276/7/4 282/7/4
f 277/7/4 278/7/4 283/7/4
f 282/3/4 277/3/4 283/3/4
f 278/3/4 279/3/4 284/3/4
f 283/7/4 278/7/4 284/7/4
f 279/7/4 280/7/4 285/7/4
f 284/3/4 279/3/4 285/3/4
f 285/7/4 280/7/4 286/7/4
f 287/5/4 288/5/4 289/5/4
f 289/5/4 288/5/4 290/5/4
f 290/5/4 288/5/4 291/5/4
f 292/5/4 293/5/4 295/5/4
f 293/5/4 294/5/4 295/5/4
f 295/5/4 294/5/4 296/5/4
f 297/4/4 298/4/4 300/4/4
f 298/6/4 299/6/4 301/6/4
f 300/4/4 298/4/4 301/4/4
f 301/6/4 299/6/4 302/6/4
f 303/4/4 304/4/4 305/4/4
f 305/4/4 304/4/4 306/4/4
f 309/4/5 308/4/5 307/4/5
f 310/4/5 308/4/5 309/4/5
f 311/4/5 308/4/5 310/4/5
f 312/4/5 308/4/5 311/4/5
f 313/4/5 308/4/5 312/4/5
f 314/4/5 309/4/5 307/4/5
f 315/7/5 310/7/5 309/7/5
f 315/4/5 309/4/5 314/4/5
f 316/5/5 311/5/5 310/5/5
f 316/7/5 310/7/5 315/7/5
f 317/7/5 312/7/5 311/7/5
f 317/5/5 311/5/5 316/5/5
f 318/5/5 313/5/5 312/5/5
f 318/7/5 312/7/5 317/7/5
f 319/4/5 308/4/5 313/4/5
f 319/5/5 313/5/5 318/5/5
f 320/4/5 308/4/5 319/4/5
f 321/4/5 308/4/5 320/4/5
f 322/4/5 314/4/5 307/4/5
f 323/4/5 314/4/5 322/4/5
f 324/5/5 318/5/5 317/5/5
f 324/4/5 314/4/5 323/4/5
f 324/5/5 315/5/5 314/5/5
f 324/5/5 316/5/5 315/5/5
f 324/5/5 317/5/5 316/5/5
f 324/5/5 320/5/5 319/5/5
f 324/5/5 319/5/5 318/5/5
f 325/7/5 321/7/5 320/7/5
f 325/5/5 320/5/5 324/5/5
f 326/4/5 308/4/5 321/4/5
f 326/7/5 321/7/5 325/7/5
f 327/4/5 308/4/5 326/4/5
f 328/4/5 322/4/5 307/4/5
f 329/5/5 323/5/5 322/5/5
f 329/4/5 322/4/5 328/4/5
f 330/7/5 324/7/5 323/7/5
f 330/5/5 323/5/5 329/5/5
f 331/5/5 325/5/5 324/5/5
f 331/7/5 324/7/5 330/7/5
f 331/5/5 326/5/5 325/5/5
f 331/5/5 327/5/5 326/5/5
f 332/4/5 308/4/5 327/4/5
f 332/5/5 327/5/5 331/5/5
f 333/4/5 308/4/5 332/4/5
f 334/4/5 328/4/5 307/4/5
f 335/7/5 329/7/5 328/7/5
f 335/4/5 328/4/5 334/4/5
f 336/5/5 330/5/5 329/5/5
f 336/7/5 329/7/5 335/7/5
f 336/5/5 331/5/5 330/5/5
f 336/5/5 332/5/5 331/5/5
f 337/7/5 333/7/5 332/7/5
f 337/5/5 332/5/5 336/5/5
f 338/4/5 308/4/5 333/4/5
f 338/7/5 333/7/5 337/7/5
f 339/4/5 308/4/5 338/4/5
f 340/4/5 334/4/5 307/4/5
f 341/5/5 337/5/5 336/5/5
f 341/4/5 334/4/5 340/4/5
f 341/5/5 335/5/5 334/5/5
f 341/5/5 339/5/5 338/5/5
f 341/5/5 338/5/5 337/5/5
f 341/5/5 336/5/5 335/5/5
f 342/4/5 308/4/5 339/4/5
f 342/5/5 339/5/5 341/5/5
f 343/4/5 308/4/5 342/4/5
f 344/4/5 340/4/5 307/4/5
f 344/7/5 341/7/5 340/7/5
f 345/5/5 342/5/5 341/5/5
f 345/7/5 341/7/5 344/7/5
f 346/5/5 342/5/5 345/5/5
f 347/7/5 343/7/5 342/7/5
f 347/5/5 342/5/5 346/5/5
f 348/4/5 308/4/5 343/4/5
f 348/7/5 343/7/5 347/7/5
f 349/4/5 344/4/5 307/4/5
f 350/5/5 346/5/5 345/5/5
f 350/4/5 344/4/5 349/4/5
f 350/5/5 345/5/5 344/5/5
f 351/4/5 349/4/5 307/4/5
f 351/7/5 350/7/5 349/7/5
f 352/5/5 346/5/5 350/5/5
f 352/7/5 350/7/5 351/7/5
f 353/4/5 351/4/5 307/4/5
f 353/5/5 352/5/5 351/5/5
f 354/5/5 346/5/5 352/5/5
f 354/5/5 352/5/5 353/5/5
f 355/4/5 354/4/5 353/4/5
f 356/5/5 346/5/5 354/5/5
f 356/4/5 354/4/5 355/4/5
f 357/4/5 347/4/5 346/4/5
f 357/5/5 346/5/5 356/5/5
f 357/4/5 348/4/5 347/4/5
f 358/4/5 308/4/5 348/4/5
f 358/4/5 348/4/5 357/4/5
f 359/5/5 356/5/5 355/5/5
f 359/5/5 357/5/5 356/5/5
f 359/5/5 358/5/5 357/5/5
f 359/4/5 355/4/5 353/4/5
f 360/5/5 358/5/5 359/5/5
f 361/5/5 358/5/5 360/5/5
f 362/4/5 308/4/5 358/4/5
f 362/5/5 358/5/5 361/5/5
f 363/4/5 359/4/5 353/4/5
f 363/7/5 360/7/5 359/7/5
f 364/5/5 361/5/5 360/5/5
f 364/7/5 360/7/5 363/7/5
f 365/5/5 361/5/5 364/5/5
f 366/7/5 362/7/5 361/7/5
f 366/5/5 361/5/5 365/5/5
f 367/4/5 308/4/5 362/4/5
f 367/7/5 362/7/5 366/7/5
f 368/5/5 365/5/5 364/5/5
f 368/4/5 364/4/5 363/4/5
f 369/5/5 365/5/5 368/5/5
f 370/5/5 365/5/5 369/5/5
f 371/5/5 365/5/5 370/5/5
f 372/4/5 366/4/5 365/4/5
f 372/5/5 365/5/5 371/5/5
f 372/4/5 367/4/5 366/4/5
f 373/7/5 370/7/5 369/7/5
f 373/4/5 369/4/5 368/4/5
f 374/5/5 371/5/5 370/5/5
f 374/7/5 370/7/5 373/7/5
f 375/5/5 371/5/5 374/5/5
f 376/5/5 371/5/5 375/5/5
f 377/5/5 371/5/5 376/5/5
f 378/5/5 371/5/5 377/5/5
f 379/7/5 372/7/5 371/7/5
f 379/5/5 371/5/5 378/5/5
f 380/4/5 367/4/5 372/4/5
f 380/7/5 372/7/5 379/7/5
f 381/4/5 374/4/5 373/4/5
f 381/5/5 375/5/5 374/5/5
f 382/7/5 376/7/5 375/7/5
f 382/5/5 375/5/5 381/5/5
f 383/5/5 377/5/5 376/5/5
f 383/7/5 376/7/5 382/7/5
f 384/5/5 377/5/5 383/5/5
f 385/5/5 377/5/5 384/5/5
f 386/5/5 377/5/5 385/5/5
f 387/7/5 378/7/5 377/7/5
f 387/5/5 377/5/5 386/5/5
f 388/5/5 379/5/5 378/5/5
f 388/7/5 378/7/5 387/7/5
f 389/4/5 380/4/5 379/4/5
f 389/5/5 379/5/5 388/5/5
f 390/4/5 382/4/5 381/4/5
f 390/4/5 383/4/5 382/4/5
f 390/5/5 384/5/5 383/5/5
f 391/7/5 385/7/5 384/7/5
f 391/5/5 384/5/5 390/5/5
f 392/5/5 386/5/5 385/5/5
f 392/7/5 385/7/5 391/7/5
f 393/4/5 391/4/5 390/4/5
f 393/5/5 386/5/5 392/5/5
f 393/4/5 392/4/5 391/4/5
f 394/4/5 387/4/5 386/4/5
f 394/5/5 386/5/5 393/5/5
f 394/4/5 388/4/5 387/4/5
f 394/4/5 389/4/5 388/4/5
f 395/4/5 363/4/5 353/4/5
f 395/4/5 353/4/5 307/4/5
f 395/4/5 394/4/5 393/4/5
f 395/4/5 381/4/5 373/4/5
f 395/4/5 373/4/5 368/4/5
f 395/4/5 393/4/5 390/4/5
f 395/4/5 390/4/5 381/4/5
f 395/4/5 368/4/5 363/4/5
f 396/4/5 389/4/5 394/4/5
f 396/4/5 394/4/5 395/4/5
f 396/4/5 380/4/5 389/4/5
f 396/4/5 308/4/5 367/4/5
f 396/4/5 367/4/5 380/4/5
f 399/4/5 398/4/5 397/4/5
f 400/4/5 398/4/5 399/4/5
f 406/4/5 402/4/5 401/4/5
f 407/4/5 402/4/5 406/4/5
f 408/4/5 404/4/5 403/4/5
f 409/4/5 404/4/5 408/4/5
f 411/4/5 406/4/5 405/4/5
f 412/4/5 406/4/5 411/4/5
f 413/4/5 410/4/5 409/4/5
f 414/4/5 410/4/5 413/4/5
f 417/4/5 416/4/5 415/4/5
f 418/4/5 416/4/5 417/4/5
f 422/4/5 419/4/5 418/4/5
f 423/4/5 419/4/5 422/4/5
f 424/4/5 421/4/5 420/4/5
f 425/4/5 421/4/5 424/4/5
f 426/7/6 427/7/6 428/7/6
f 428/7/6 427/7/6 429/7/6
f 430/5/6 431/5/6 435/5/6
f 435/5/6 431/5/6 436/5/6
f 432/5/6 433/5/6 437/5/6
f 437/5/6 433/5/6 438/5/6
f 434/5/6 435/5/6 440/5/6
f 440/5/6 435/5/6 441/5/6
f 438/5/6 439/5/6 442/5/6
f 442/5/6 439/5/6 443/5/6
f 444/5/6 445/5/6 446/5/6
f 446/5/6 445/5/6 447/5/6
f 447/5/6 448/5/6 451/5/6
f 451/5/6 448/5/6 452/5/6
f 449/5/6 450/5/6 453/5/6
f 453/5/6 450/5/6 454/5/6
f 455/4/6 456/4/6 457/4/6
f 457/4/6 456/4/6 458/4/6
f 455/4/6 457/4/6 459/4/6
f 458/4/6 456/4/6 460/4/6
f 455/4/6 459/4/6 461/4/6
f 459/4/6 460/4/6 461/4/6
f 460/4/6 456/4/6 462/4/6
f 461/4/6 460/4/6 462/4/6
f 463/6/6 464/6/6 465/6/6
f 465/6/6 464/6/6 466/6/6
f 466/6/6 464/6/6 467/6/6
f 467/6/6 464/6/6 468/6/6
f 463/6/6 465/6/6 469/6/6
f 467/7/6 468/7/6 470/7/6
f 463/6/6 469/6/6 471/6/6
f 470/7/6 468/7/6 472/7/6
f 472/7/6 468/7/6 473/7/6
f 468/6/6 464/6/6 474/6/6
f 473/7/6 468/7/6 474/7/6
f 463/6/6 471/6/6 475/6/6
f 473/6/6 474/6/6 476/6/6
f 463/6/6 475/6/6 477/6/6
f 475/6/6 476/6/6 477/6/6
f 474/6/6 464/6/6 478/6/6
f 477/6/6 476/6/6 478/6/6
f 476/6/6 474/6/6 478/6/6
f 479/7/6 480/7/6 481/7/6
f 481/7/6 480/7/6 482/7/6
f 482/7/6 480/7/6 483/7/6
f 483/7/6 480/7/6 484/7/6
f 479/7/6 481/7/6 485/7/6
f 484/7/6 480/7/6 486/7/6
f 479/7/6 485/7/6 487/7/6
f 486/7/6 480/7/6 488/7/6
f 479/7/6 487/7/6 489/7/6
f 488/7/6 480/7/6 492/7/6
f 490/7/6 491/7/6 493/7/6
f 491/7/6 492/7/6 493/7/6
f 479/7/6 489/7/6 493/7/6
f 489/7/6 490/7/6 493/7/6
f 492/7/6 480/7/6 494/7/6
f 493/7/6 492/7/6 494/7/6
f 495/4/6 496/4/6 497/4/6
f 497/4/6 496/4/6 498/4/6
