# MagicaVoxel @ Ephtracy

# group
g CriticalTower0_Bottom

# material
mtllib CriticalTower0_Bottom.mtl
usemtl palette

# normals
vn -1 0 0
vn 1 0 0
vn 0 0 1
vn 0 0 -1
vn 0 -1 0
vn 0 1 0

# texcoords
vt 0.306641 0.5
vt 0.638672 0.5
vt 0.955078 0.5
vt 0.974609 0.5
vt 0.978516 0.5
vt 0.982422 0.5
vt 0.986328 0.5
vt 0.994141 0.5

# verts
v -16 0 5
v -16 0 -22
v -16 4 5
v -16 4 -22
v -10 4 1
v -10 4 -18
v -10 12 1
v -10 12 -18
v -10 13 1
v -10 13 -18
v -9 2 -0
v -9 2 -1
v -9 2 -16
v -9 2 -17
v -9 3 -1
v -9 3 -16
v -9 4 -0
v -9 4 -1
v -9 4 -16
v -9 4 -17
v -8 2 1
v -8 2 -0
v -8 2 -17
v -8 2 -18
v -8 3 1
v -8 3 -0
v -8 3 -17
v -8 3 -18
v -8 4 1
v -8 4 -0
v -8 4 -17
v -8 4 -18
v -8 13 -1
v -8 13 -8
v -8 13 -9
v -8 13 -16
v -8 14 -1
v -8 14 -8
v -8 14 -9
v -8 14 -16
v -8 15 -1
v -8 15 -8
v -8 15 -9
v -8 15 -16
v -8 16 -1
v -8 16 -8
v -8 16 -9
v -8 16 -16
v -8 17 -1
v -8 17 -8
v -8 17 -9
v -8 17 -16
v -8 18 -1
v -8 18 -16
v -6 18 -3
v -6 18 -4
v -6 18 -13
v -6 18 -14
v -6 20 -4
v -6 20 -13
v -6 21 -3
v -6 21 -14
v 2 2 4
v 2 2 3
v 2 3 4
v 2 3 3
v 8 2 1
v 8 2 -0
v 8 2 -17
v 8 2 -18
v 8 4 1
v 8 4 -0
v 8 4 -17
v 8 4 -18
v 9 2 -0
v 9 2 -1
v 9 4 -0
v 9 4 -1
v -10 2 -0
v -10 2 -1
v -10 2 -16
v -10 2 -17
v -10 3 -1
v -10 3 -16
v -10 4 -0
v -10 4 -1
v -10 4 -16
v -10 4 -17
v -9 2 1
v -9 2 -0
v -9 2 -17
v -9 2 -18
v -9 4 1
v -9 4 -0
v -9 4 -17
v -9 4 -18
v 1 2 4
v 1 2 3
v 1 3 4
v 1 3 3
v 5 18 -3
v 5 18 -4
v 5 18 -13
v 5 18 -14
v 5 20 -4
v 5 20 -13
v 5 21 -3
v 5 21 -14
v 7 2 1
v 7 2 -0
v 7 2 -17
v 7 2 -18
v 7 3 1
v 7 3 -0
v 7 3 -17
v 7 3 -18
v 7 4 1
v 7 4 -0
v 7 4 -17
v 7 4 -18
v 7 13 -1
v 7 13 -6
v 7 13 -8
v 7 13 -9
v 7 13 -13
v 7 13 -16
v 7 14 -1
v 7 14 -8
v 7 14 -9
v 7 14 -16
v 7 15 -1
v 7 15 -8
v 7 15 -9
v 7 15 -16
v 7 16 -1
v 7 16 -8
v 7 16 -9
v 7 16 -16
v 7 17 -1
v 7 17 -8
v 7 17 -9
v 7 17 -16
v 7 18 -1
v 7 18 -16
v 8 2 -0
v 8 2 -1
v 8 4 -0
v 8 4 -1
v 9 4 1
v 9 4 -18
v 9 12 1
v 9 12 -18
v 9 13 1
v 9 13 -18
v 13 0 5
v 13 0 -22
v 13 4 5
v 13 4 -22
v -16 0 5
v -16 4 5
v 13 0 5
v 13 4 5
v 1 2 3
v 1 3 3
v 2 2 3
v 2 3 3
v -10 4 1
v -10 12 1
v -10 13 1
v -3 4 1
v 3 4 1
v 9 4 1
v 9 12 1
v 9 13 1
v -9 2 -0
v -9 4 -0
v -8 2 -0
v -8 3 -0
v -8 4 -0
v 7 2 -0
v 7 3 -0
v 7 4 -0
v 8 2 -0
v 8 4 -0
v -10 2 -1
v -10 3 -1
v -10 4 -1
v -9 2 -1
v -9 3 -1
v -9 4 -1
v -8 13 -1
v -8 14 -1
v -8 15 -1
v -8 16 -1
v -8 17 -1
v -8 18 -1
v 7 13 -1
v 7 14 -1
v 7 15 -1
v 7 16 -1
v 7 17 -1
v 7 18 -1
v 8 2 -1
v 8 4 -1
v 9 2 -1
v 9 4 -1
v -6 18 -3
v -6 21 -3
v -5 18 -3
v -5 20 -3
v 4 18 -3
v 4 20 -3
v 5 18 -3
v 5 21 -3
v -10 2 -17
v -10 4 -17
v -9 2 -17
v -9 4 -17
v -9 2 -18
v -9 4 -18
v -8 2 -18
v -8 3 -18
v -8 4 -18
v 7 2 -18
v 7 3 -18
v 7 4 -18
v 8 2 -18
v 8 4 -18
v 1 2 4
v 1 3 4
v 2 2 4
v 2 3 4
v -9 2 1
v -9 4 1
v -8 2 1
v -8 3 1
v -8 4 1
v 7 2 1
v 7 3 1
v 7 4 1
v 8 2 1
v 8 4 1
v -10 2 -0
v -10 4 -0
v -9 2 -0
v -9 4 -0
v 8 2 -0
v 8 4 -0
v 9 2 -0
v 9 4 -0
v -6 18 -14
v -6 21 -14
v -5 18 -14
v -5 20 -14
v 4 18 -14
v 4 20 -14
v 5 18 -14
v 5 21 -14
v -10 2 -16
v -10 3 -16
v -10 4 -16
v -9 2 -16
v -9 3 -16
v -9 4 -16
v -8 13 -16
v -8 14 -16
v -8 15 -16
v -8 16 -16
v -8 17 -16
v -8 18 -16
v 7 13 -16
v 7 14 -16
v 7 15 -16
v 7 16 -16
v 7 17 -16
v 7 18 -16
v -9 2 -17
v -9 4 -17
v -8 2 -17
v -8 3 -17
v -8 4 -17
v 7 2 -17
v 7 3 -17
v 7 4 -17
v 8 2 -17
v 8 4 -17
v -10 4 -18
v -10 12 -18
v -10 13 -18
v 9 4 -18
v 9 12 -18
v 9 13 -18
v -16 0 -22
v -16 4 -22
v 13 0 -22
v 13 4 -22
v -16 0 5
v 13 0 5
v -4 0 4
v -3 0 4
v 0 0 4
v 1 0 4
v 3 0 4
v -6 0 3
v -4 0 3
v -3 0 3
v 0 0 3
v 1 0 3
v 3 0 3
v 4 0 3
v 5 0 3
v -8 0 2
v -7 0 2
v -6 0 2
v 4 0 2
v 5 0 2
v 7 0 2
v -9 0 1
v -8 0 1
v -7 0 1
v -6 0 1
v 7 0 1
v 8 0 1
v -10 0 -0
v -9 0 -0
v -8 0 -0
v 7 0 -0
v 8 0 -0
v -11 0 -1
v -10 0 -1
v -11 0 -2
v -10 0 -2
v -11 0 -3
v -9 0 -3
v 8 0 -13
v 11 0 -13
v 10 0 -14
v 11 0 -14
v -11 0 -15
v -10 0 -15
v -9 0 -15
v 9 0 -15
v 10 0 -15
v -11 0 -16
v -10 0 -16
v 8 0 -16
v 9 0 -16
v 10 0 -16
v -10 0 -17
v -9 0 -17
v -8 0 -17
v 7 0 -17
v 8 0 -17
v -9 0 -18
v -8 0 -18
v -7 0 -18
v -6 0 -18
v 5 0 -18
v 6 0 -18
v 7 0 -18
v 8 0 -18
v -8 0 -19
v -7 0 -19
v -6 0 -19
v -5 0 -19
v -4 0 -19
v 0 0 -19
v 5 0 -19
v 6 0 -19
v 7 0 -19
v -6 0 -20
v -5 0 -20
v -4 0 -20
v -4 0 -21
v 0 0 -21
v -16 0 -22
v 13 0 -22
v 1 3 4
v 2 3 4
v 1 3 3
v 2 3 3
v -9 4 1
v -8 4 1
v 7 4 1
v 8 4 1
v -10 4 -0
v -9 4 -0
v -8 4 -0
v 7 4 -0
v 8 4 -0
v 9 4 -0
v -10 4 -1
v -9 4 -1
v 8 4 -1
v 9 4 -1
v -10 4 -16
v -9 4 -16
v -10 4 -17
v -9 4 -17
v -8 4 -17
v 7 4 -17
v 8 4 -17
v -9 4 -18
v -8 4 -18
v 7 4 -18
v 8 4 -18
v 1 2 4
v 2 2 4
v 1 2 3
v 2 2 3
v -9 2 1
v -8 2 1
v 7 2 1
v 8 2 1
v -10 2 -0
v -9 2 -0
v -8 2 -0
v 7 2 -0
v 8 2 -0
v 9 2 -0
v -10 2 -1
v -9 2 -1
v 8 2 -1
v 9 2 -1
v -10 2 -16
v -9 2 -16
v -10 2 -17
v -9 2 -17
v -8 2 -17
v 7 2 -17
v 8 2 -17
v -9 2 -18
v -8 2 -18
v 7 2 -18
v 8 2 -18
v -16 4 5
v 13 4 5
v -3 4 2
v 3 4 2
v -10 4 1
v -3 4 1
v 3 4 1
v 9 4 1
v -10 4 -18
v 9 4 -18
v -16 4 -22
v 13 4 -22
v -10 13 1
v 9 13 1
v -8 13 -1
v 7 13 -1
v 7 13 -6
v 8 13 -6
v -8 13 -8
v 7 13 -8
v -8 13 -9
v 7 13 -9
v 7 13 -13
v 8 13 -13
v -8 13 -16
v 7 13 -16
v -10 13 -18
v 9 13 -18
v -8 18 -1
v 7 18 -1
v -6 18 -3
v -5 18 -3
v 4 18 -3
v 5 18 -3
v -6 18 -4
v 5 18 -4
v -6 18 -13
v 5 18 -13
v -6 18 -14
v -5 18 -14
v 4 18 -14
v 5 18 -14
v -8 18 -16
v 7 18 -16
v -6 21 -3
v 5 21 -3
v -6 21 -14
v 5 21 -14

# faces
f 3/4/1 2/4/1 1/4/1
f 4/4/1 2/4/1 3/4/1
f 7/4/1 6/4/1 5/4/1
f 8/4/1 6/4/1 7/4/1
f 9/6/1 8/6/1 7/6/1
f 10/6/1 8/6/1 9/6/1
f 15/5/1 12/5/1 11/5/1
f 16/5/1 14/5/1 13/5/1
f 17/5/1 15/5/1 11/5/1
f 18/5/1 15/5/1 17/5/1
f 19/5/1 14/5/1 16/5/1
f 20/5/1 14/5/1 19/5/1
f 25/5/1 22/5/1 21/5/1
f 26/5/1 22/5/1 25/5/1
f 27/5/1 24/5/1 23/5/1
f 28/5/1 24/5/1 27/5/1
f 29/4/1 26/4/1 25/4/1
f 30/4/1 26/4/1 29/4/1
f 31/7/1 28/7/1 27/7/1
f 32/7/1 28/7/1 31/7/1
f 37/7/1 34/7/1 33/7/1
f 38/3/1 35/3/1 34/3/1
f 38/7/1 34/7/1 37/7/1
f 39/7/1 36/7/1 35/7/1
f 39/3/1 35/3/1 38/3/1
f 40/7/1 36/7/1 39/7/1
f 41/4/1 38/4/1 37/4/1
f 42/3/1 39/3/1 38/3/1
f 42/4/1 38/4/1 41/4/1
f 43/4/1 40/4/1 39/4/1
f 43/3/1 39/3/1 42/3/1
f 44/4/1 40/4/1 43/4/1
f 45/7/1 42/7/1 41/7/1
f 46/3/1 43/3/1 42/3/1
f 46/7/1 42/7/1 45/7/1
f 47/7/1 44/7/1 43/7/1
f 47/3/1 43/3/1 46/3/1
f 48/7/1 44/7/1 47/7/1
f 49/4/1 46/4/1 45/4/1
f 50/3/1 47/3/1 46/3/1
f 50/4/1 46/4/1 49/4/1
f 51/4/1 48/4/1 47/4/1
f 51/3/1 47/3/1 50/3/1
f 52/4/1 48/4/1 51/4/1
f 53/7/1 50/7/1 49/7/1
f 53/7/1 51/7/1 50/7/1
f 53/7/1 52/7/1 51/7/1
f 54/7/1 52/7/1 53/7/1
f 59/4/1 56/4/1 55/4/1
f 59/7/1 57/7/1 56/7/1
f 60/4/1 58/4/1 57/4/1
f 60/7/1 57/7/1 59/7/1
f 61/4/1 59/4/1 55/4/1
f 61/4/1 60/4/1 59/4/1
f 62/4/1 58/4/1 60/4/1
f 62/4/1 60/4/1 61/4/1
f 65/4/1 64/4/1 63/4/1
f 66/4/1 64/4/1 65/4/1
f 71/4/1 68/4/1 67/4/1
f 72/4/1 68/4/1 71/4/1
f 73/4/1 70/4/1 69/4/1
f 74/4/1 70/4/1 73/4/1
f 77/4/1 76/4/1 75/4/1
f 78/4/1 76/4/1 77/4/1
f 79/4/2 80/4/2 83/4/2
f 81/4/2 82/4/2 84/4/2
f 79/4/2 83/4/2 85/4/2
f 85/4/2 83/4/2 86/4/2
f 84/4/2 82/4/2 87/4/2
f 87/4/2 82/4/2 88/4/2
f 89/4/2 90/4/2 93/4/2
f 93/4/2 90/4/2 94/4/2
f 91/4/2 92/4/2 95/4/2
f 95/4/2 92/4/2 96/4/2
f 97/4/2 98/4/2 99/4/2
f 99/4/2 98/4/2 100/4/2
f 101/4/2 102/4/2 105/4/2
f 102/7/2 103/7/2 105/7/2
f 103/4/2 104/4/2 106/4/2
f 105/7/2 103/7/2 106/7/2
f 101/4/2 105/4/2 107/4/2
f 105/4/2 106/4/2 107/4/2
f 106/4/2 104/4/2 108/4/2
f 107/4/2 106/4/2 108/4/2
f 109/5/2 110/5/2 113/5/2
f 113/5/2 110/5/2 114/5/2
f 111/5/2 112/5/2 115/5/2
f 115/5/2 112/5/2 116/5/2
f 113/7/2 114/7/2 117/7/2
f 117/7/2 114/7/2 118/7/2
f 115/7/2 116/7/2 119/7/2
f 119/7/2 116/7/2 120/7/2
f 121/7/2 122/7/2 127/7/2
f 122/7/2 123/7/2 127/7/2
f 123/3/2 124/3/2 128/3/2
f 127/7/2 123/7/2 128/7/2
f 125/7/2 126/7/2 129/7/2
f 128/3/2 124/3/2 129/3/2
f 124/7/2 125/7/2 129/7/2
f 129/7/2 126/7/2 130/7/2
f 127/4/2 128/4/2 131/4/2
f 128/3/2 129/3/2 132/3/2
f 131/4/2 128/4/2 132/4/2
f 129/4/2 130/4/2 133/4/2
f 132/3/2 129/3/2 133/3/2
f 133/4/2 130/4/2 134/4/2
f 131/7/2 132/7/2 135/7/2
f 132/3/2 133/3/2 136/3/2
f 135/7/2 132/7/2 136/7/2
f 133/7/2 134/7/2 137/7/2
f 136/3/2 133/3/2 137/3/2
f 137/7/2 134/7/2 138/7/2
f 135/4/2 136/4/2 139/4/2
f 136/3/2 137/3/2 140/3/2
f 139/4/2 136/4/2 140/4/2
f 137/4/2 138/4/2 141/4/2
f 140/3/2 137/3/2 141/3/2
f 141/4/2 138/4/2 142/4/2
f 139/7/2 140/7/2 143/7/2
f 140/7/2 141/7/2 143/7/2
f 141/7/2 142/7/2 143/7/2
f 143/7/2 142/7/2 144/7/2
f 145/5/2 146/5/2 147/5/2
f 147/5/2 146/5/2 148/5/2
f 149/4/2 150/4/2 151/4/2
f 151/4/2 150/4/2 152/4/2
f 151/6/2 152/6/2 153/6/2
f 153/6/2 152/6/2 154/6/2
f 155/4/2 156/4/2 157/4/2
f 157/4/2 156/4/2 158/4/2
f 161/4/3 160/4/3 159/4/3
f 162/4/3 160/4/3 161/4/3
f 165/7/3 164/7/3 163/7/3
f 166/7/3 164/7/3 165/7/3
f 170/4/3 168/4/3 167/4/3
f 171/4/3 168/4/3 170/4/3
f 172/4/3 168/4/3 171/4/3
f 173/6/3 169/6/3 168/6/3
f 173/4/3 168/4/3 172/4/3
f 174/6/3 169/6/3 173/6/3
f 177/5/3 176/5/3 175/5/3
f 178/5/3 176/5/3 177/5/3
f 179/5/3 176/5/3 178/5/3
f 183/5/3 181/5/3 180/5/3
f 183/5/3 182/5/3 181/5/3
f 184/5/3 182/5/3 183/5/3
f 188/5/3 186/5/3 185/5/3
f 189/7/3 187/7/3 186/7/3
f 189/5/3 186/5/3 188/5/3
f 190/7/3 187/7/3 189/7/3
f 197/7/3 192/7/3 191/7/3
f 198/4/3 193/4/3 192/4/3
f 198/7/3 192/7/3 197/7/3
f 199/7/3 194/7/3 193/7/3
f 199/4/3 193/4/3 198/4/3
f 200/4/3 195/4/3 194/4/3
f 200/7/3 194/7/3 199/7/3
f 201/7/3 196/7/3 195/7/3
f 201/4/3 195/4/3 200/4/3
f 202/7/3 196/7/3 201/7/3
f 205/4/3 204/4/3 203/4/3
f 206/4/3 204/4/3 205/4/3
f 209/4/3 208/4/3 207/4/3
f 210/4/3 208/4/3 209/4/3
f 211/7/3 210/7/3 209/7/3
f 212/4/3 208/4/3 210/4/3
f 212/7/3 210/7/3 211/7/3
f 213/4/3 212/4/3 211/4/3
f 214/4/3 208/4/3 212/4/3
f 214/4/3 212/4/3 213/4/3
f 217/4/3 216/4/3 215/4/3
f 218/4/3 216/4/3 217/4/3
f 221/4/3 220/4/3 219/4/3
f 222/4/3 220/4/3 221/4/3
f 223/4/3 220/4/3 222/4/3
f 227/4/3 225/4/3 224/4/3
f 227/4/3 226/4/3 225/4/3
f 228/4/3 226/4/3 227/4/3
f 229/4/4 230/4/4 231/4/4
f 231/4/4 230/4/4 232/4/4
f 233/4/4 234/4/4 235/4/4
f 235/4/4 234/4/4 236/4/4
f 236/4/4 234/4/4 237/4/4
f 238/4/4 239/4/4 241/4/4
f 239/4/4 240/4/4 241/4/4
f 241/4/4 240/4/4 242/4/4
f 243/4/4 244/4/4 245/4/4
f 245/4/4 244/4/4 246/4/4
f 247/4/4 248/4/4 249/4/4
f 249/4/4 248/4/4 250/4/4
f 251/4/4 252/4/4 253/4/4
f 253/4/4 252/4/4 254/4/4
f 253/7/4 254/7/4 255/7/4
f 254/4/4 252/4/4 256/4/4
f 255/7/4 254/7/4 256/7/4
f 255/4/4 256/4/4 257/4/4
f 256/4/4 252/4/4 258/4/4
f 257/4/4 256/4/4 258/4/4
f 259/5/4 260/5/4 262/5/4
f 260/7/4 261/7/4 263/7/4
f 262/5/4 260/5/4 263/5/4
f 263/7/4 261/7/4 264/7/4
f 265/7/4 266/7/4 271/7/4
f 266/4/4 267/4/4 272/4/4
f 271/7/4 266/7/4 272/7/4
f 267/7/4 268/7/4 273/7/4
f 272/4/4 267/4/4 273/4/4
f 268/4/4 269/4/4 274/4/4
f 273/7/4 268/7/4 274/7/4
f 269/7/4 270/7/4 275/7/4
f 274/4/4 269/4/4 275/4/4
f 275/7/4 270/7/4 276/7/4
f 277/5/4 278/5/4 279/5/4
f 279/5/4 278/5/4 280/5/4
f 280/5/4 278/5/4 281/5/4
f 282/5/4 283/5/4 285/5/4
f 283/5/4 284/5/4 285/5/4
f 285/5/4 284/5/4 286/5/4
f 287/4/4 288/4/4 290/4/4
f 288/6/4 289/6/4 291/6/4
f 290/4/4 288/4/4 291/4/4
f 291/6/4 289/6/4 292/6/4
f 293/4/4 294/4/4 295/4/4
f 295/4/4 294/4/4 296/4/4
f 299/4/5 298/4/5 297/4/5
f 300/4/5 298/4/5 299/4/5
f 301/4/5 298/4/5 300/4/5
f 302/4/5 298/4/5 301/4/5
f 303/4/5 298/4/5 302/4/5
f 304/4/5 299/4/5 297/4/5
f 305/7/5 300/7/5 299/7/5
f 305/4/5 299/4/5 304/4/5
f 306/5/5 301/5/5 300/5/5
f 306/7/5 300/7/5 305/7/5
f 307/7/5 302/7/5 301/7/5
f 307/5/5 301/5/5 306/5/5
f 308/5/5 303/5/5 302/5/5
f 308/7/5 302/7/5 307/7/5
f 309/4/5 298/4/5 303/4/5
f 309/5/5 303/5/5 308/5/5
f 310/4/5 298/4/5 309/4/5
f 311/4/5 298/4/5 310/4/5
f 312/4/5 304/4/5 297/4/5
f 313/4/5 304/4/5 312/4/5
f 314/5/5 308/5/5 307/5/5
f 314/4/5 304/4/5 313/4/5
f 314/5/5 305/5/5 304/5/5
f 314/5/5 306/5/5 305/5/5
f 314/5/5 307/5/5 306/5/5
f 314/5/5 310/5/5 309/5/5
f 314/5/5 309/5/5 308/5/5
f 315/7/5 311/7/5 310/7/5
f 315/5/5 310/5/5 314/5/5
f 316/4/5 298/4/5 311/4/5
f 316/7/5 311/7/5 315/7/5
f 317/4/5 298/4/5 316/4/5
f 318/4/5 312/4/5 297/4/5
f 319/5/5 313/5/5 312/5/5
f 319/4/5 312/4/5 318/4/5
f 320/7/5 314/7/5 313/7/5
f 320/5/5 313/5/5 319/5/5
f 321/5/5 315/5/5 314/5/5
f 321/7/5 314/7/5 320/7/5
f 321/5/5 316/5/5 315/5/5
f 321/5/5 317/5/5 316/5/5
f 322/4/5 298/4/5 317/4/5
f 322/5/5 317/5/5 321/5/5
f 323/4/5 298/4/5 322/4/5
f 324/4/5 318/4/5 297/4/5
f 325/7/5 319/7/5 318/7/5
f 325/4/5 318/4/5 324/4/5
f 326/5/5 320/5/5 319/5/5
f 326/7/5 319/7/5 325/7/5
f 326/5/5 321/5/5 320/5/5
f 326/5/5 322/5/5 321/5/5
f 327/7/5 323/7/5 322/7/5
f 327/5/5 322/5/5 326/5/5
f 328/4/5 298/4/5 323/4/5
f 328/7/5 323/7/5 327/7/5
f 329/4/5 324/4/5 297/4/5
f 330/5/5 327/5/5 326/5/5
f 330/4/5 324/4/5 329/4/5
f 330/5/5 325/5/5 324/5/5
f 330/5/5 328/5/5 327/5/5
f 330/5/5 326/5/5 325/5/5
f 331/4/5 329/4/5 297/4/5
f 331/7/5 330/7/5 329/7/5
f 332/5/5 328/5/5 330/5/5
f 332/7/5 330/7/5 331/7/5
f 333/4/5 331/4/5 297/4/5
f 333/5/5 332/5/5 331/5/5
f 334/5/5 328/5/5 332/5/5
f 334/5/5 332/5/5 333/5/5
f 335/4/5 298/4/5 328/4/5
f 335/5/5 328/5/5 334/5/5
f 336/4/5 298/4/5 335/4/5
f 337/5/5 336/5/5 335/5/5
f 338/4/5 298/4/5 336/4/5
f 338/5/5 336/5/5 337/5/5
f 339/4/5 333/4/5 297/4/5
f 339/4/5 334/4/5 333/4/5
f 340/4/5 334/4/5 339/4/5
f 341/5/5 335/5/5 334/5/5
f 341/4/5 334/4/5 340/4/5
f 341/5/5 337/5/5 335/5/5
f 342/5/5 337/5/5 341/5/5
f 343/4/5 338/4/5 337/4/5
f 343/5/5 337/5/5 342/5/5
f 344/7/5 340/7/5 339/7/5
f 344/4/5 339/4/5 297/4/5
f 345/5/5 342/5/5 341/5/5
f 345/7/5 340/7/5 344/7/5
f 345/5/5 341/5/5 340/5/5
f 346/5/5 342/5/5 345/5/5
f 347/7/5 343/7/5 342/7/5
f 347/5/5 342/5/5 346/5/5
f 348/4/5 338/4/5 343/4/5
f 348/7/5 343/7/5 347/7/5
f 349/5/5 346/5/5 345/5/5
f 349/4/5 345/4/5 344/4/5
f 350/5/5 346/5/5 349/5/5
f 351/5/5 346/5/5 350/5/5
f 352/5/5 346/5/5 351/5/5
f 353/4/5 347/4/5 346/4/5
f 353/5/5 346/5/5 352/5/5
f 353/4/5 348/4/5 347/4/5
f 354/7/5 351/7/5 350/7/5
f 354/4/5 350/4/5 349/4/5
f 355/5/5 352/5/5 351/5/5
f 355/7/5 351/7/5 354/7/5
f 356/5/5 352/5/5 355/5/5
f 357/5/5 352/5/5 356/5/5
f 358/5/5 352/5/5 357/5/5
f 359/5/5 352/5/5 358/5/5
f 360/7/5 353/7/5 352/7/5
f 360/5/5 352/5/5 359/5/5
f 361/4/5 348/4/5 353/4/5
f 361/7/5 353/7/5 360/7/5
f 362/4/5 355/4/5 354/4/5
f 362/5/5 356/5/5 355/5/5
f 363/7/5 357/7/5 356/7/5
f 363/5/5 356/5/5 362/5/5
f 364/5/5 358/5/5 357/5/5
f 364/7/5 357/7/5 363/7/5
f 365/5/5 358/5/5 364/5/5
f 366/5/5 358/5/5 365/5/5
f 367/5/5 358/5/5 366/5/5
f 368/7/5 359/7/5 358/7/5
f 368/5/5 358/5/5 367/5/5
f 369/5/5 360/5/5 359/5/5
f 369/7/5 359/7/5 368/7/5
f 370/4/5 361/4/5 360/4/5
f 370/5/5 360/5/5 369/5/5
f 371/4/5 363/4/5 362/4/5
f 371/4/5 364/4/5 363/4/5
f 371/5/5 365/5/5 364/5/5
f 372/7/5 366/7/5 365/7/5
f 372/5/5 365/5/5 371/5/5
f 373/5/5 367/5/5 366/5/5
f 373/7/5 366/7/5 372/7/5
f 374/4/5 372/4/5 371/4/5
f 374/5/5 367/5/5 373/5/5
f 374/4/5 373/4/5 372/4/5
f 375/4/5 368/4/5 367/4/5
f 375/5/5 367/5/5 374/5/5
f 375/4/5 369/4/5 368/4/5
f 375/4/5 370/4/5 369/4/5
f 376/4/5 344/4/5 297/4/5
f 376/4/5 354/4/5 349/4/5
f 376/4/5 375/4/5 374/4/5
f 376/4/5 362/4/5 354/4/5
f 376/4/5 374/4/5 371/4/5
f 376/4/5 349/4/5 344/4/5
f 376/4/5 371/4/5 362/4/5
f 377/4/5 298/4/5 338/4/5
f 377/4/5 375/4/5 376/4/5
f 377/4/5 370/4/5 375/4/5
f 377/4/5 348/4/5 361/4/5
f 377/4/5 338/4/5 348/4/5
f 377/4/5 361/4/5 370/4/5
f 380/4/5 379/4/5 378/4/5
f 381/4/5 379/4/5 380/4/5
f 387/4/5 383/4/5 382/4/5
f 388/4/5 383/4/5 387/4/5
f 389/4/5 385/4/5 384/4/5
f 390/4/5 385/4/5 389/4/5
f 392/4/5 387/4/5 386/4/5
f 393/4/5 387/4/5 392/4/5
f 394/4/5 391/4/5 390/4/5
f 395/4/5 391/4/5 394/4/5
f 398/4/5 397/4/5 396/4/5
f 399/4/5 397/4/5 398/4/5
f 403/4/5 400/4/5 399/4/5
f 404/4/5 400/4/5 403/4/5
f 405/4/5 402/4/5 401/4/5
f 406/4/5 402/4/5 405/4/5
f 407/7/6 408/7/6 409/7/6
f 409/7/6 408/7/6 410/7/6
f 411/5/6 412/5/6 416/5/6
f 416/5/6 412/5/6 417/5/6
f 413/5/6 414/5/6 418/5/6
f 418/5/6 414/5/6 419/5/6
f 415/5/6 416/5/6 421/5/6
f 421/5/6 416/5/6 422/5/6
f 419/4/6 420/4/6 423/4/6
f 423/4/6 420/4/6 424/4/6
f 425/5/6 426/5/6 427/5/6
f 427/5/6 426/5/6 428/5/6
f 428/5/6 429/5/6 432/5/6
f 432/5/6 429/5/6 433/5/6
f 430/5/6 431/5/6 434/5/6
f 434/5/6 431/5/6 435/5/6
f 436/4/6 437/4/6 438/4/6
f 438/4/6 437/4/6 439/4/6
f 436/4/6 438/4/6 440/4/6
f 438/5/6 439/5/6 441/5/6
f 440/4/6 438/4/6 441/4/6
f 439/4/6 437/4/6 442/4/6
f 441/5/6 439/5/6 442/5/6
f 442/4/6 437/4/6 443/4/6
f 436/4/6 440/4/6 444/4/6
f 443/4/6 437/4/6 445/4/6
f 436/4/6 444/4/6 446/4/6
f 444/4/6 445/4/6 446/4/6
f 445/4/6 437/4/6 447/4/6
f 446/4/6 445/4/6 447/4/6
f 448/6/6 449/6/6 450/6/6
f 450/6/6 449/6/6 451/6/6
f 451/6/6 449/6/6 452/6/6
f 452/6/6 449/6/6 453/6/6
f 448/6/6 450/6/6 454/6/6
f 452/7/6 453/7/6 455/7/6
f 448/6/6 454/6/6 456/6/6
f 455/7/6 453/7/6 457/7/6
f 457/7/6 453/7/6 458/7/6
f 453/6/6 449/6/6 459/6/6
f 458/7/6 453/7/6 459/7/6
f 448/6/6 456/6/6 460/6/6
f 458/6/6 459/6/6 461/6/6
f 448/6/6 460/6/6 462/6/6
f 460/6/6 461/6/6 462/6/6
f 459/6/6 449/6/6 463/6/6
f 462/6/6 461/6/6 463/6/6
f 461/6/6 459/6/6 463/6/6
f 464/7/6 465/7/6 466/7/6
f 466/7/6 465/7/6 467/7/6
f 467/7/6 465/7/6 468/7/6
f 468/7/6 465/7/6 469/7/6
f 464/7/6 466/7/6 470/7/6
f 469/7/6 465/7/6 471/7/6
f 464/7/6 470/7/6 472/7/6
f 471/7/6 465/7/6 473/7/6
f 464/7/6 472/7/6 474/7/6
f 473/7/6 465/7/6 477/7/6
f 475/7/6 476/7/6 478/7/6
f 476/7/6 477/7/6 478/7/6
f 464/7/6 474/7/6 478/7/6
f 474/7/6 475/7/6 478/7/6
f 477/7/6 465/7/6 479/7/6
f 478/7/6 477/7/6 479/7/6
f 480/4/6 481/4/6 482/4/6
f 482/4/6 481/4/6 483/4/6
