# MagicaVoxel @ Ephtracy

# group
g AOETower0_Bottom

# material
mtllib AOETower0_Bottom.mtl
usemtl palette

# normals
vn -1 0 0
vn 1 0 0
vn 0 0 1
vn 0 0 -1
vn 0 -1 0
vn 0 1 0

# texcoords
vt 0.0917969 0.5
vt 0.115234 0.5
vt 0.279297 0.5
vt 0.306641 0.5
vt 0.369141 0.5
vt 0.876953 0.5

# verts
v -16 0 13
v -16 0 -14
v -16 4 13
v -16 4 -14
v -10 4 9
v -10 4 3
v -10 4 -4
v -10 4 -10
v -10 5 3
v -10 5 -4
v -10 6 3
v -10 6 -4
v -10 7 3
v -10 7 -4
v -10 8 3
v -10 8 -4
v -10 9 -0
v -10 9 -1
v -10 12 9
v -10 12 -0
v -10 12 -1
v -10 12 -10
v -10 13 9
v -10 13 -10
v -9 2 8
v -9 2 7
v -9 2 -8
v -9 2 -9
v -9 4 8
v -9 4 7
v -9 4 -8
v -9 4 -9
v -8 2 9
v -8 2 8
v -8 2 -9
v -8 2 -10
v -8 3 9
v -8 3 8
v -8 4 9
v -8 4 8
v -8 4 -9
v -8 4 -10
v -8 13 7
v -8 13 -8
v -8 18 7
v -8 18 -8
v -6 18 5
v -6 18 4
v -6 18 -5
v -6 18 -6
v -6 20 4
v -6 20 -5
v -6 21 5
v -6 21 -6
v 2 2 12
v 2 2 11
v 2 3 12
v 2 3 11
v 8 2 9
v 8 2 8
v 8 2 -9
v 8 2 -10
v 8 4 9
v 8 4 8
v 8 4 -9
v 8 4 -10
v 9 2 8
v 9 2 7
v 9 4 8
v 9 4 7
v -10 2 8
v -10 2 7
v -10 2 -8
v -10 2 -9
v -10 4 8
v -10 4 7
v -10 4 -8
v -10 4 -9
v -9 2 9
v -9 2 8
v -9 2 -9
v -9 2 -10
v -9 4 9
v -9 4 8
v -9 4 -9
v -9 4 -10
v 1 2 12
v 1 2 11
v 1 3 12
v 1 3 11
v 5 18 5
v 5 18 4
v 5 18 -5
v 5 18 -6
v 5 20 4
v 5 20 -5
v 5 21 5
v 5 21 -6
v 7 2 9
v 7 2 8
v 7 2 -9
v 7 2 -10
v 7 4 9
v 7 4 8
v 7 4 -9
v 7 4 -10
v 7 13 7
v 7 13 -8
v 7 18 7
v 7 18 -8
v 8 2 8
v 8 2 7
v 8 4 8
v 8 4 7
v 9 4 9
v 9 4 3
v 9 4 -4
v 9 4 -10
v 9 5 3
v 9 5 -4
v 9 6 3
v 9 6 -4
v 9 7 3
v 9 7 -4
v 9 8 3
v 9 8 -0
v 9 8 -1
v 9 8 -4
v 9 12 9
v 9 12 -0
v 9 12 -1
v 9 12 -10
v 9 13 9
v 9 13 -10
v 13 0 13
v 13 0 -14
v 13 4 13
v 13 4 -14
v -16 0 13
v -16 4 13
v 13 0 13
v 13 4 13
v 1 2 11
v 1 3 11
v 2 2 11
v 2 3 11
v -10 4 9
v -10 12 9
v -10 13 9
v -4 8 9
v -4 9 9
v -1 4 9
v -1 7 9
v -1 9 9
v -1 12 9
v 0 4 9
v 0 7 9
v 0 9 9
v 0 12 9
v 3 8 9
v 3 9 9
v 9 4 9
v 9 12 9
v 9 13 9
v -9 2 8
v -9 4 8
v -8 2 8
v -8 3 8
v -8 4 8
v 7 2 8
v 7 4 8
v 8 2 8
v 8 4 8
v -10 2 7
v -10 4 7
v -9 2 7
v -9 4 7
v -8 13 7
v -8 18 7
v 7 13 7
v 7 18 7
v 8 2 7
v 8 4 7
v 9 2 7
v 9 4 7
v -6 18 5
v -6 21 5
v -5 18 5
v -5 20 5
v 4 18 5
v 4 20 5
v 5 18 5
v 5 21 5
v -10 2 -9
v -10 4 -9
v -9 2 -9
v -9 4 -9
v -9 2 -10
v -9 4 -10
v -8 2 -10
v -8 4 -10
v 7 2 -10
v 7 4 -10
v 8 2 -10
v 8 4 -10
v 1 2 12
v 1 3 12
v 2 2 12
v 2 3 12
v -9 2 9
v -9 4 9
v -8 2 9
v -8 3 9
v -8 4 9
v 7 2 9
v 7 4 9
v 8 2 9
v 8 4 9
v -10 2 8
v -10 4 8
v -9 2 8
v -9 4 8
v 8 2 8
v 8 4 8
v 9 2 8
v 9 4 8
v -6 18 -6
v -6 21 -6
v -5 18 -6
v -5 20 -6
v 4 18 -6
v 4 20 -6
v 5 18 -6
v 5 21 -6
v -10 2 -8
v -10 4 -8
v -9 2 -8
v -9 4 -8
v -8 13 -8
v -8 18 -8
v 7 13 -8
v 7 18 -8
v -9 2 -9
v -9 4 -9
v -8 2 -9
v -8 4 -9
v 7 2 -9
v 7 4 -9
v 8 2 -9
v 8 4 -9
v -10 4 -10
v -10 12 -10
v -10 13 -10
v -4 8 -10
v -4 9 -10
v -1 4 -10
v -1 7 -10
v -1 9 -10
v -1 12 -10
v 0 4 -10
v 0 7 -10
v 0 9 -10
v 0 12 -10
v 3 8 -10
v 3 9 -10
v 9 4 -10
v 9 12 -10
v 9 13 -10
v -16 0 -14
v -16 4 -14
v 13 0 -14
v 13 4 -14
v -16 0 13
v 13 0 13
v -4 0 12
v 3 0 12
v -6 0 11
v -4 0 11
v 3 0 11
v 5 0 11
v -8 0 10
v -6 0 10
v 5 0 10
v 7 0 10
v -9 0 9
v -8 0 9
v 7 0 9
v 8 0 9
v -10 0 8
v -9 0 8
v 8 0 8
v 9 0 8
v -11 0 7
v -10 0 7
v 9 0 7
v 10 0 7
v -12 0 5
v -11 0 5
v 10 0 5
v 11 0 5
v -12 0 3
v -10 0 3
v 9 0 3
v 11 0 3
v -12 0 -4
v -10 0 -4
v 9 0 -4
v 11 0 -4
v -12 0 -6
v -11 0 -6
v 10 0 -6
v 11 0 -6
v -11 0 -8
v -10 0 -8
v 8 0 -8
v 10 0 -8
v -10 0 -9
v -9 0 -9
v -9 0 -10
v -8 0 -10
v 7 0 -10
v 8 0 -10
v -8 0 -11
v -6 0 -11
v 0 0 -11
v 7 0 -11
v -6 0 -12
v -4 0 -12
v -4 0 -13
v 0 0 -13
v -16 0 -14
v 13 0 -14
v 1 3 12
v 2 3 12
v 1 3 11
v 2 3 11
v -9 4 9
v -8 4 9
v 7 4 9
v 8 4 9
v -10 4 8
v -9 4 8
v -8 4 8
v 7 4 8
v 8 4 8
v 9 4 8
v -10 4 7
v -9 4 7
v 8 4 7
v 9 4 7
v -10 4 -8
v -9 4 -8
v -10 4 -9
v -9 4 -9
v -8 4 -9
v 7 4 -9
v 8 4 -9
v -9 4 -10
v -8 4 -10
v 7 4 -10
v 8 4 -10
v 1 2 12
v 2 2 12
v 1 2 11
v 2 2 11
v -9 2 9
v -8 2 9
v 7 2 9
v 8 2 9
v -10 2 8
v -9 2 8
v -8 2 8
v 7 2 8
v 8 2 8
v 9 2 8
v -10 2 7
v -9 2 7
v 8 2 7
v 9 2 7
v -10 2 -8
v -9 2 -8
v -10 2 -9
v -9 2 -9
v -8 2 -9
v 7 2 -9
v 8 2 -9
v -9 2 -10
v -8 2 -10
v 7 2 -10
v 8 2 -10
v -16 4 13
v 13 4 13
v -10 4 9
v -1 4 9
v 0 4 9
v 9 4 9
v -10 4 3
v 9 4 3
v -10 4 -4
v 9 4 -4
v -10 4 -10
v -1 4 -10
v 0 4 -10
v 9 4 -10
v -4 4 -11
v 3 4 -11
v -4 4 -12
v 3 4 -12
v -16 4 -14
v 13 4 -14
v -10 13 9
v 9 13 9
v -8 13 7
v 7 13 7
v -8 13 -8
v 7 13 -8
v -10 13 -10
v 9 13 -10
v -8 18 7
v 7 18 7
v -7 18 6
v 6 18 6
v -6 18 5
v -5 18 5
v 4 18 5
v 5 18 5
v -6 18 4
v 5 18 4
v -6 18 -5
v 5 18 -5
v -7 18 -6
v -6 18 -6
v -5 18 -6
v 4 18 -6
v 5 18 -6
v 6 18 -6
v -8 18 -8
v 7 18 -8
v -6 21 5
v 5 21 5
v -6 21 -6
v 5 21 -6

# faces
f 3/2/1 2/2/1 1/2/1
f 4/2/1 2/2/1 3/2/1
f 9/2/1 6/2/1 5/2/1
f 9/1/1 7/1/1 6/1/1
f 10/2/1 8/2/1 7/2/1
f 10/1/1 7/1/1 9/1/1
f 11/2/1 9/2/1 5/2/1
f 11/3/1 10/3/1 9/3/1
f 12/2/1 8/2/1 10/2/1
f 12/3/1 10/3/1 11/3/1
f 13/2/1 11/2/1 5/2/1
f 13/1/1 12/1/1 11/1/1
f 14/2/1 8/2/1 12/2/1
f 14/1/1 12/1/1 13/1/1
f 15/2/1 13/2/1 5/2/1
f 15/3/1 14/3/1 13/3/1
f 16/2/1 8/2/1 14/2/1
f 16/3/1 14/3/1 15/3/1
f 17/2/1 16/2/1 15/2/1
f 18/2/1 16/2/1 17/2/1
f 19/2/1 15/2/1 5/2/1
f 19/2/1 17/2/1 15/2/1
f 20/6/1 18/6/1 17/6/1
f 20/2/1 17/2/1 19/2/1
f 21/2/1 16/2/1 18/2/1
f 21/6/1 18/6/1 20/6/1
f 22/2/1 8/2/1 16/2/1
f 22/2/1 16/2/1 21/2/1
f 23/5/1 20/5/1 19/5/1
f 23/5/1 21/5/1 20/5/1
f 23/5/1 22/5/1 21/5/1
f 24/5/1 22/5/1 23/5/1
f 29/1/1 26/1/1 25/1/1
f 30/1/1 26/1/1 29/1/1
f 31/1/1 28/1/1 27/1/1
f 32/1/1 28/1/1 31/1/1
f 37/1/1 34/1/1 33/1/1
f 38/1/1 34/1/1 37/1/1
f 39/2/1 38/2/1 37/2/1
f 40/2/1 38/2/1 39/2/1
f 41/1/1 36/1/1 35/1/1
f 42/1/1 36/1/1 41/1/1
f 45/5/1 44/5/1 43/5/1
f 46/5/1 44/5/1 45/5/1
f 51/2/1 48/2/1 47/2/1
f 51/1/1 49/1/1 48/1/1
f 52/2/1 50/2/1 49/2/1
f 52/1/1 49/1/1 51/1/1
f 53/2/1 51/2/1 47/2/1
f 53/2/1 52/2/1 51/2/1
f 54/2/1 50/2/1 52/2/1
f 54/2/1 52/2/1 53/2/1
f 57/2/1 56/2/1 55/2/1
f 58/2/1 56/2/1 57/2/1
f 63/2/1 60/2/1 59/2/1
f 64/2/1 60/2/1 63/2/1
f 65/2/1 62/2/1 61/2/1
f 66/2/1 62/2/1 65/2/1
f 69/2/1 68/2/1 67/2/1
f 70/2/1 68/2/1 69/2/1
f 71/2/2 72/2/2 75/2/2
f 75/2/2 72/2/2 76/2/2
f 73/2/2 74/2/2 77/2/2
f 77/2/2 74/2/2 78/2/2
f 79/2/2 80/2/2 83/2/2
f 83/2/2 80/2/2 84/2/2
f 81/2/2 82/2/2 85/2/2
f 85/2/2 82/2/2 86/2/2
f 87/2/2 88/2/2 89/2/2
f 89/2/2 88/2/2 90/2/2
f 91/2/2 92/2/2 95/2/2
f 92/1/2 93/1/2 95/1/2
f 93/2/2 94/2/2 96/2/2
f 95/1/2 93/1/2 96/1/2
f 91/2/2 95/2/2 97/2/2
f 95/2/2 96/2/2 97/2/2
f 96/2/2 94/2/2 98/2/2
f 97/2/2 96/2/2 98/2/2
f 99/1/2 100/1/2 103/1/2
f 103/1/2 100/1/2 104/1/2
f 101/1/2 102/1/2 105/1/2
f 105/1/2 102/1/2 106/1/2
f 107/5/2 108/5/2 109/5/2
f 109/5/2 108/5/2 110/5/2
f 111/1/2 112/1/2 113/1/2
f 113/1/2 112/1/2 114/1/2
f 115/2/2 116/2/2 119/2/2
f 116/1/2 117/1/2 119/1/2
f 117/2/2 118/2/2 120/2/2
f 119/1/2 117/1/2 120/1/2
f 115/2/2 119/2/2 121/2/2
f 119/3/2 120/3/2 121/3/2
f 120/2/2 118/2/2 122/2/2
f 121/3/2 120/3/2 122/3/2
f 115/2/2 121/2/2 123/2/2
f 121/1/2 122/1/2 123/1/2
f 122/2/2 118/2/2 124/2/2
f 123/1/2 122/1/2 124/1/2
f 115/2/2 123/2/2 125/2/2
f 123/3/2 124/3/2 125/3/2
f 125/3/2 124/3/2 126/3/2
f 126/3/2 124/3/2 127/3/2
f 124/2/2 118/2/2 128/2/2
f 127/3/2 124/3/2 128/3/2
f 115/2/2 125/2/2 129/2/2
f 125/2/2 126/2/2 129/2/2
f 126/3/2 127/3/2 130/3/2
f 129/2/2 126/2/2 130/2/2
f 127/2/2 128/2/2 131/2/2
f 130/3/2 127/3/2 131/3/2
f 128/2/2 118/2/2 132/2/2
f 131/2/2 128/2/2 132/2/2
f 130/5/2 131/5/2 133/5/2
f 129/5/2 130/5/2 133/5/2
f 131/5/2 132/5/2 133/5/2
f 133/5/2 132/5/2 134/5/2
f 135/2/2 136/2/2 137/2/2
f 137/2/2 136/2/2 138/2/2
f 141/2/3 140/2/3 139/2/3
f 142/2/3 140/2/3 141/2/3
f 145/1/3 144/1/3 143/1/3
f 146/1/3 144/1/3 145/1/3
f 150/2/3 148/2/3 147/2/3
f 151/2/3 148/2/3 150/2/3
f 152/2/3 150/2/3 147/2/3
f 153/2/3 150/2/3 152/2/3
f 154/2/3 148/2/3 151/2/3
f 154/1/3 151/1/3 150/1/3
f 155/5/3 149/5/3 148/5/3
f 155/2/3 148/2/3 154/2/3
f 156/3/3 153/3/3 152/3/3
f 157/2/3 150/2/3 153/2/3
f 157/3/3 153/3/3 156/3/3
f 158/1/3 154/1/3 150/1/3
f 158/3/3 155/3/3 154/3/3
f 159/5/3 149/5/3 155/5/3
f 159/3/3 155/3/3 158/3/3
f 160/2/3 150/2/3 157/2/3
f 160/1/3 158/1/3 150/1/3
f 160/2/3 157/2/3 156/2/3
f 161/2/3 159/2/3 158/2/3
f 161/1/3 158/1/3 160/1/3
f 162/2/3 160/2/3 156/2/3
f 162/2/3 161/2/3 160/2/3
f 163/5/3 149/5/3 159/5/3
f 163/2/3 161/2/3 162/2/3
f 163/2/3 159/2/3 161/2/3
f 164/5/3 149/5/3 163/5/3
f 167/1/3 166/1/3 165/1/3
f 168/1/3 166/1/3 167/1/3
f 169/1/3 166/1/3 168/1/3
f 172/1/3 171/1/3 170/1/3
f 173/1/3 171/1/3 172/1/3
f 176/1/3 175/1/3 174/1/3
f 177/1/3 175/1/3 176/1/3
f 180/5/3 179/5/3 178/5/3
f 181/5/3 179/5/3 180/5/3
f 184/1/3 183/1/3 182/1/3
f 185/1/3 183/1/3 184/1/3
f 188/2/3 187/2/3 186/2/3
f 189/2/3 187/2/3 188/2/3
f 190/1/3 189/1/3 188/1/3
f 191/2/3 187/2/3 189/2/3
f 191/1/3 189/1/3 190/1/3
f 192/2/3 191/2/3 190/2/3
f 193/2/3 187/2/3 191/2/3
f 193/2/3 191/2/3 192/2/3
f 196/2/3 195/2/3 194/2/3
f 197/2/3 195/2/3 196/2/3
f 200/2/3 199/2/3 198/2/3
f 201/2/3 199/2/3 200/2/3
f 204/2/3 203/2/3 202/2/3
f 205/2/3 203/2/3 204/2/3
f 206/2/4 207/2/4 208/2/4
f 208/2/4 207/2/4 209/2/4
f 210/2/4 211/2/4 212/2/4
f 212/2/4 211/2/4 213/2/4
f 213/2/4 211/2/4 214/2/4
f 215/2/4 216/2/4 217/2/4
f 217/2/4 216/2/4 218/2/4
f 219/2/4 220/2/4 221/2/4
f 221/2/4 220/2/4 222/2/4
f 223/2/4 224/2/4 225/2/4
f 225/2/4 224/2/4 226/2/4
f 227/2/4 228/2/4 229/2/4
f 229/2/4 228/2/4 230/2/4
f 229/1/4 230/1/4 231/1/4
f 230/2/4 228/2/4 232/2/4
f 231/1/4 230/1/4 232/1/4
f 231/2/4 232/2/4 233/2/4
f 232/2/4 228/2/4 234/2/4
f 233/2/4 232/2/4 234/2/4
f 235/1/4 236/1/4 237/1/4
f 237/1/4 236/1/4 238/1/4
f 239/5/4 240/5/4 241/5/4
f 241/5/4 240/5/4 242/5/4
f 243/1/4 244/1/4 245/1/4
f 245/1/4 244/1/4 246/1/4
f 247/1/4 248/1/4 249/1/4
f 249/1/4 248/1/4 250/1/4
f 251/2/4 252/2/4 254/2/4
f 254/2/4 252/2/4 255/2/4
f 251/2/4 254/2/4 256/2/4
f 256/2/4 254/2/4 257/2/4
f 255/2/4 252/2/4 258/2/4
f 254/1/4 255/1/4 258/1/4
f 252/5/4 253/5/4 259/5/4
f 258/2/4 252/2/4 259/2/4
f 256/3/4 257/3/4 260/3/4
f 257/2/4 254/2/4 261/2/4
f 260/3/4 257/3/4 261/3/4
f 254/1/4 258/1/4 262/1/4
f 258/3/4 259/3/4 262/3/4
f 259/5/4 253/5/4 263/5/4
f 262/3/4 259/3/4 263/3/4
f 261/2/4 254/2/4 264/2/4
f 254/1/4 262/1/4 264/1/4
f 260/2/4 261/2/4 264/2/4
f 262/2/4 263/2/4 265/2/4
f 264/1/4 262/1/4 265/1/4
f 260/2/4 264/2/4 266/2/4
f 264/2/4 265/2/4 266/2/4
f 263/5/4 253/5/4 267/5/4
f 266/2/4 265/2/4 267/2/4
f 265/2/4 263/2/4 267/2/4
f 267/5/4 253/5/4 268/5/4
f 269/2/4 270/2/4 271/2/4
f 271/2/4 270/2/4 272/2/4
f 275/2/5 274/2/5 273/2/5
f 276/2/5 274/2/5 275/2/5
f 277/2/5 275/2/5 273/2/5
f 278/1/5 276/1/5 275/1/5
f 278/2/5 275/2/5 277/2/5
f 279/2/5 274/2/5 276/2/5
f 279/1/5 276/1/5 278/1/5
f 280/2/5 274/2/5 279/2/5
f 281/2/5 277/2/5 273/2/5
f 282/1/5 278/1/5 277/1/5
f 282/2/5 277/2/5 281/2/5
f 282/1/5 279/1/5 278/1/5
f 282/1/5 280/1/5 279/1/5
f 283/2/5 274/2/5 280/2/5
f 283/1/5 280/1/5 282/1/5
f 284/2/5 274/2/5 283/2/5
f 285/2/5 281/2/5 273/2/5
f 286/1/5 282/1/5 281/1/5
f 286/2/5 281/2/5 285/2/5
f 286/1/5 283/1/5 282/1/5
f 286/1/5 284/1/5 283/1/5
f 287/2/5 274/2/5 284/2/5
f 287/1/5 284/1/5 286/1/5
f 288/2/5 274/2/5 287/2/5
f 289/2/5 285/2/5 273/2/5
f 290/1/5 286/1/5 285/1/5
f 290/2/5 285/2/5 289/2/5
f 290/1/5 287/1/5 286/1/5
f 290/1/5 288/1/5 287/1/5
f 291/2/5 274/2/5 288/2/5
f 291/1/5 288/1/5 290/1/5
f 292/2/5 274/2/5 291/2/5
f 293/2/5 289/2/5 273/2/5
f 294/1/5 290/1/5 289/1/5
f 294/2/5 289/2/5 293/2/5
f 294/1/5 291/1/5 290/1/5
f 294/1/5 292/1/5 291/1/5
f 295/2/5 274/2/5 292/2/5
f 295/1/5 292/1/5 294/1/5
f 296/2/5 274/2/5 295/2/5
f 297/2/5 293/2/5 273/2/5
f 298/1/5 294/1/5 293/1/5
f 298/2/5 293/2/5 297/2/5
f 298/1/5 295/1/5 294/1/5
f 298/1/5 296/1/5 295/1/5
f 299/2/5 274/2/5 296/2/5
f 299/1/5 296/1/5 298/1/5
f 300/2/5 274/2/5 299/2/5
f 301/2/5 297/2/5 273/2/5
f 301/1/5 298/1/5 297/1/5
f 301/1/5 300/1/5 299/1/5
f 301/1/5 299/1/5 298/1/5
f 302/1/5 300/1/5 301/1/5
f 303/1/5 300/1/5 302/1/5
f 304/2/5 274/2/5 300/2/5
f 304/1/5 300/1/5 303/1/5
f 305/2/5 301/2/5 273/2/5
f 305/2/5 302/2/5 301/2/5
f 306/1/5 303/1/5 302/1/5
f 306/2/5 302/2/5 305/2/5
f 307/2/5 304/2/5 303/2/5
f 307/1/5 303/1/5 306/1/5
f 308/2/5 274/2/5 304/2/5
f 308/2/5 304/2/5 307/2/5
f 309/2/5 305/2/5 273/2/5
f 309/1/5 307/1/5 306/1/5
f 309/1/5 308/1/5 307/1/5
f 309/1/5 306/1/5 305/1/5
f 310/1/5 308/1/5 309/1/5
f 311/1/5 308/1/5 310/1/5
f 312/2/5 274/2/5 308/2/5
f 312/1/5 308/1/5 311/1/5
f 313/1/5 311/1/5 310/1/5
f 313/2/5 310/2/5 309/2/5
f 314/1/5 311/1/5 313/1/5
f 315/1/5 311/1/5 314/1/5
f 316/2/5 312/2/5 311/2/5
f 316/1/5 311/1/5 315/1/5
f 317/1/5 315/1/5 314/1/5
f 317/2/5 314/2/5 313/2/5
f 318/1/5 315/1/5 317/1/5
f 319/2/5 318/2/5 317/2/5
f 319/1/5 315/1/5 318/1/5
f 320/1/5 315/1/5 319/1/5
f 321/1/5 315/1/5 320/1/5
f 322/2/5 316/2/5 315/2/5
f 322/1/5 315/1/5 321/1/5
f 323/1/5 321/1/5 320/1/5
f 323/2/5 320/2/5 319/2/5
f 324/1/5 321/1/5 323/1/5
f 325/1/5 321/1/5 324/1/5
f 326/2/5 322/2/5 321/2/5
f 326/1/5 321/1/5 325/1/5
f 327/1/5 325/1/5 324/1/5
f 327/2/5 324/2/5 323/2/5
f 328/1/5 325/1/5 327/1/5
f 329/2/5 328/2/5 327/2/5
f 329/1/5 325/1/5 328/1/5
f 330/2/5 326/2/5 325/2/5
f 330/1/5 325/1/5 329/1/5
f 331/2/5 309/2/5 273/2/5
f 331/2/5 313/2/5 309/2/5
f 331/2/5 330/2/5 329/2/5
f 331/2/5 327/2/5 323/2/5
f 331/2/5 329/2/5 327/2/5
f 331/2/5 323/2/5 319/2/5
f 331/2/5 317/2/5 313/2/5
f 331/2/5 319/2/5 317/2/5
f 332/2/5 274/2/5 312/2/5
f 332/2/5 330/2/5 331/2/5
f 332/2/5 326/2/5 330/2/5
f 332/2/5 316/2/5 322/2/5
f 332/2/5 322/2/5 326/2/5
f 332/2/5 312/2/5 316/2/5
f 335/2/5 334/2/5 333/2/5
f 336/2/5 334/2/5 335/2/5
f 342/2/5 338/2/5 337/2/5
f 343/2/5 338/2/5 342/2/5
f 344/2/5 340/2/5 339/2/5
f 345/2/5 340/2/5 344/2/5
f 347/2/5 342/2/5 341/2/5
f 348/2/5 342/2/5 347/2/5
f 349/2/5 346/2/5 345/2/5
f 350/2/5 346/2/5 349/2/5
f 353/2/5 352/2/5 351/2/5
f 354/2/5 352/2/5 353/2/5
f 358/2/5 355/2/5 354/2/5
f 359/2/5 355/2/5 358/2/5
f 360/2/5 357/2/5 356/2/5
f 361/2/5 357/2/5 360/2/5
f 362/1/6 363/1/6 364/1/6
f 364/1/6 363/1/6 365/1/6
f 366/1/6 367/1/6 371/1/6
f 371/1/6 367/1/6 372/1/6
f 368/1/6 369/1/6 373/1/6
f 373/1/6 369/1/6 374/1/6
f 370/1/6 371/1/6 376/1/6
f 376/1/6 371/1/6 377/1/6
f 374/1/6 375/1/6 378/1/6
f 378/1/6 375/1/6 379/1/6
f 380/1/6 381/1/6 382/1/6
f 382/1/6 381/1/6 383/1/6
f 383/1/6 384/1/6 387/1/6
f 387/1/6 384/1/6 388/1/6
f 385/1/6 386/1/6 389/1/6
f 389/1/6 386/1/6 390/1/6
f 391/2/6 392/2/6 393/2/6
f 393/2/6 392/2/6 394/2/6
f 394/2/6 392/2/6 395/2/6
f 395/2/6 392/2/6 396/2/6
f 391/2/6 393/2/6 397/2/6
f 396/2/6 392/2/6 398/2/6
f 391/2/6 397/2/6 399/2/6
f 398/2/6 392/2/6 400/2/6
f 391/2/6 399/2/6 401/2/6
f 400/2/6 392/2/6 404/2/6
f 402/2/6 403/2/6 405/2/6
f 403/2/6 404/2/6 405/2/6
f 401/2/6 402/2/6 405/2/6
f 405/2/6 404/2/6 406/2/6
f 401/2/6 405/2/6 407/2/6
f 405/1/6 406/1/6 407/1/6
f 406/2/6 404/2/6 408/2/6
f 407/1/6 406/1/6 408/1/6
f 391/2/6 401/2/6 409/2/6
f 401/2/6 407/2/6 409/2/6
f 407/2/6 408/2/6 409/2/6
f 404/2/6 392/2/6 410/2/6
f 409/2/6 408/2/6 410/2/6
f 408/2/6 404/2/6 410/2/6
f 411/5/6 412/5/6 413/5/6
f 413/5/6 412/5/6 414/5/6
f 411/5/6 413/5/6 415/5/6
f 414/5/6 412/5/6 416/5/6
f 411/5/6 415/5/6 417/5/6
f 415/5/6 416/5/6 417/5/6
f 416/5/6 412/5/6 418/5/6
f 417/5/6 416/5/6 418/5/6
f 419/5/6 420/5/6 421/5/6
f 421/5/6 420/5/6 422/5/6
f 421/1/6 422/1/6 423/1/6
f 423/1/6 422/1/6 424/1/6
f 424/1/6 422/1/6 425/1/6
f 425/1/6 422/1/6 426/1/6
f 421/1/6 423/1/6 427/1/6
f 426/1/6 422/1/6 428/1/6
f 421/1/6 427/1/6 429/1/6
f 428/1/6 422/1/6 430/1/6
f 419/5/6 421/5/6 431/5/6
f 421/1/6 429/1/6 431/1/6
f 431/1/6 429/1/6 432/1/6
f 430/1/6 422/1/6 435/1/6
f 422/5/6 420/5/6 436/5/6
f 435/1/6 422/1/6 436/1/6
f 433/5/6 434/5/6 437/5/6
f 434/5/6 435/5/6 437/5/6
f 435/5/6 436/5/6 437/5/6
f 419/5/6 431/5/6 437/5/6
f 432/5/6 433/5/6 437/5/6
f 431/5/6 432/5/6 437/5/6
f 436/5/6 420/5/6 438/5/6
f 437/5/6 436/5/6 438/5/6
f 439/2/6 440/2/6 441/2/6
f 441/2/6 440/2/6 442/2/6
