# MagicaVoxel @ Ephtracy

# group
g AOETower0_Top

# material
mtllib AOETower0_Top.mtl
usemtl palette

# normals
vn -1 0 0
vn 1 0 0
vn 0 0 1
vn 0 0 -1
vn 0 -1 0
vn 0 1 0

# texcoords
vt 0.0917969 0.5
vt 0.279297 0.5
vt 0.857422 0.5

# verts
v -10 23 6
v -10 23 -8
v -10 27 6
v -10 27 -8
v -10 29 6
v -10 29 -8
v -10 31 6
v -10 31 -8
v -9 21 7
v -9 21 -8
v -9 23 7
v -9 23 6
v -9 23 -8
v -7 31 6
v -7 31 -8
v -7 33 6
v -7 33 -8
v -7 34 6
v -7 34 -8
v -6 34 5
v -6 34 -6
v -6 36 5
v -6 36 -6
v -6 40 5
v -6 40 -6
v -4 23 7
v -4 23 6
v -4 24 16
v -4 24 12
v -4 26 20
v -4 26 16
v -4 26 12
v -4 26 7
v -4 27 20
v -4 27 6
v -4 29 20
v -4 29 6
v -4 31 20
v -4 31 6
v -4 33 18
v -4 33 6
v -4 34 6
v -4 34 5
v -4 35 18
v -4 35 5
v -4 36 18
v -4 36 5
v -4 38 18
v -4 38 5
v -3 23 -8
v -3 23 -10
v -3 27 -8
v -3 27 -10
v -3 29 -8
v -3 29 -10
v -3 31 -8
v -3 31 -10
v -3 33 -8
v -3 33 -10
v -3 34 -8
v -3 34 -10
v 0 23 -0
v 0 23 -1
v 0 26 -0
v 0 26 -1
v 0 29 -0
v 0 29 -1
v 0 30 -0
v 0 30 -1
v 2 24 16
v 2 24 12
v 2 26 20
v 2 26 16
v 2 26 12
v 2 26 8
v 2 27 20
v 2 27 8
v 2 29 20
v 2 29 8
v 2 35 18
v 2 35 17
v 2 35 5
v 2 36 18
v 2 36 5
v 2 38 18
v 2 38 5
v -3 24 16
v -3 24 12
v -3 26 20
v -3 26 16
v -3 26 12
v -3 26 8
v -3 27 20
v -3 27 8
v -3 29 20
v -3 29 8
v -3 35 18
v -3 35 17
v -3 35 5
v -3 36 18
v -3 36 5
v -3 38 18
v -3 38 5
v -1 23 -0
v -1 23 -1
v -1 26 -0
v -1 26 -1
v -1 29 -0
v -1 29 -1
v -1 30 -0
v -1 30 -1
v 2 23 -8
v 2 23 -10
v 2 27 -8
v 2 27 -10
v 2 29 -8
v 2 29 -10
v 2 31 -8
v 2 31 -10
v 2 33 -8
v 2 33 -10
v 2 34 -8
v 2 34 -10
v 3 23 7
v 3 23 6
v 3 24 16
v 3 24 12
v 3 26 20
v 3 26 16
v 3 26 12
v 3 26 7
v 3 27 20
v 3 27 6
v 3 29 20
v 3 29 6
v 3 31 20
v 3 31 6
v 3 33 18
v 3 33 6
v 3 34 6
v 3 34 5
v 3 35 18
v 3 35 5
v 3 36 18
v 3 36 5
v 3 38 18
v 3 38 5
v 5 34 5
v 5 34 -6
v 5 36 5
v 5 36 -6
v 5 40 5
v 5 40 -6
v 6 31 6
v 6 31 -8
v 6 33 6
v 6 33 -8
v 6 34 6
v 6 34 -8
v 7 21 7
v 7 21 -8
v 7 23 7
v 7 23 6
v 7 23 -8
v 9 23 6
v 9 23 -8
v 9 27 6
v 9 27 -8
v 9 29 6
v 9 29 -8
v 9 31 6
v 9 31 -8
v -4 26 20
v -4 27 20
v -4 29 20
v -4 31 20
v -3 26 20
v -3 27 20
v -3 29 20
v -1 29 20
v -1 31 20
v 0 29 20
v 0 31 20
v 2 26 20
v 2 27 20
v 2 29 20
v 3 26 20
v 3 27 20
v 3 29 20
v 3 31 20
v -4 33 18
v -4 35 18
v -4 36 18
v -4 38 18
v -3 35 18
v -3 36 18
v -3 38 18
v 2 35 18
v 2 36 18
v 2 38 18
v 3 33 18
v 3 35 18
v 3 36 18
v 3 38 18
v -4 24 16
v -4 26 16
v -3 24 16
v -3 26 16
v 2 24 16
v 2 26 16
v 3 24 16
v 3 26 16
v -3 26 8
v -3 27 8
v -3 29 8
v -2 26 8
v -2 27 8
v -2 29 8
v 1 26 8
v 1 27 8
v 1 29 8
v 2 26 8
v 2 27 8
v 2 29 8
v -9 21 7
v -9 23 7
v -4 23 7
v -4 26 7
v -2 23 7
v -2 26 7
v 1 23 7
v 1 26 7
v 3 23 7
v 3 26 7
v 7 21 7
v 7 23 7
v -10 23 6
v -10 27 6
v -10 29 6
v -10 31 6
v -9 23 6
v -7 31 6
v -7 33 6
v -7 34 6
v -4 23 6
v -4 27 6
v -4 29 6
v -4 31 6
v -4 33 6
v -4 34 6
v -3 33 6
v -2 31 6
v -2 33 6
v 1 31 6
v 1 33 6
v 2 33 6
v 3 23 6
v 3 27 6
v 3 29 6
v 3 31 6
v 3 33 6
v 3 34 6
v 6 31 6
v 6 33 6
v 6 34 6
v 7 23 6
v 9 23 6
v 9 27 6
v 9 29 6
v 9 31 6
v -6 34 5
v -6 36 5
v -6 40 5
v -4 34 5
v -4 35 5
v -4 36 5
v -4 38 5
v -3 35 5
v -3 36 5
v -3 38 5
v -2 35 5
v -2 40 5
v 1 35 5
v 1 40 5
v 2 35 5
v 2 36 5
v 2 38 5
v 3 34 5
v 3 35 5
v 3 36 5
v 3 38 5
v 5 34 5
v 5 36 5
v 5 40 5
v -1 23 -1
v -1 26 -1
v -1 29 -1
v -1 30 -1
v 0 23 -1
v 0 26 -1
v 0 29 -1
v 0 30 -1
v -4 24 12
v -4 26 12
v -3 24 12
v -3 26 12
v 2 24 12
v 2 26 12
v 3 24 12
v 3 26 12
v -1 23 -0
v -1 26 -0
v -1 29 -0
v -1 30 -0
v 0 23 -0
v 0 26 -0
v 0 29 -0
v 0 30 -0
v -6 34 -6
v -6 36 -6
v -6 40 -6
v -2 34 -6
v -2 36 -6
v -2 40 -6
v 1 34 -6
v 1 36 -6
v 1 40 -6
v 5 34 -6
v 5 36 -6
v 5 40 -6
v -10 23 -8
v -10 27 -8
v -10 29 -8
v -10 31 -8
v -9 21 -8
v -9 23 -8
v -7 31 -8
v -7 33 -8
v -7 34 -8
v -3 23 -8
v -3 27 -8
v -3 29 -8
v -3 31 -8
v -3 33 -8
v -3 34 -8
v -2 21 -8
v -2 23 -8
v 1 21 -8
v 1 23 -8
v 2 23 -8
v 2 27 -8
v 2 29 -8
v 2 31 -8
v 2 33 -8
v 2 34 -8
v 6 31 -8
v 6 33 -8
v 6 34 -8
v 7 21 -8
v 7 23 -8
v 9 23 -8
v 9 27 -8
v 9 29 -8
v 9 31 -8
v -3 23 -10
v -3 27 -10
v -3 29 -10
v -3 31 -10
v -3 33 -10
v -3 34 -10
v -2 23 -10
v -2 27 -10
v -2 29 -10
v -2 31 -10
v -2 33 -10
v -2 34 -10
v 1 23 -10
v 1 27 -10
v 1 29 -10
v 1 31 -10
v 1 33 -10
v 1 34 -10
v 2 23 -10
v 2 27 -10
v 2 29 -10
v 2 31 -10
v 2 33 -10
v 2 34 -10
v -9 21 7
v 7 21 7
v -2 21 -7
v 1 21 -7
v -9 21 -8
v -2 21 -8
v 1 21 -8
v 7 21 -8
v -10 23 6
v -9 23 6
v 7 23 6
v 9 23 6
v -10 23 -8
v -9 23 -8
v -3 23 -8
v -2 23 -8
v 1 23 -8
v 2 23 -8
v 7 23 -8
v 9 23 -8
v -3 23 -10
v -2 23 -10
v 1 23 -10
v 2 23 -10
v -4 24 16
v -3 24 16
v 2 24 16
v 3 24 16
v -4 24 12
v -3 24 12
v 2 24 12
v 3 24 12
v -4 26 20
v -3 26 20
v 2 26 20
v 3 26 20
v -4 26 16
v -3 26 16
v 2 26 16
v 3 26 16
v -4 26 12
v -3 26 12
v 2 26 12
v 3 26 12
v -3 26 8
v -2 26 8
v 1 26 8
v 2 26 8
v -4 26 7
v -2 26 7
v 1 26 7
v 3 26 7
v -1 26 -0
v 0 26 -0
v -1 26 -1
v 0 26 -1
v -3 29 20
v -1 29 20
v 0 29 20
v 2 29 20
v -2 29 10
v -1 29 10
v 0 29 10
v 1 29 10
v -3 29 8
v -2 29 8
v 1 29 8
v 2 29 8
v -1 30 -0
v 0 30 -0
v -1 30 -1
v 0 30 -1
v -4 33 18
v 3 33 18
v -3 33 17
v -1 33 17
v 0 33 17
v 2 33 17
v -2 33 10
v -1 33 10
v 0 33 10
v 1 33 10
v -4 33 6
v -3 33 6
v -2 33 6
v 1 33 6
v 2 33 6
v 3 33 6
v -9 23 7
v -4 23 7
v 3 23 7
v 7 23 7
v -9 23 6
v -4 23 6
v 3 23 6
v 7 23 6
v -1 23 -0
v 0 23 -0
v -1 23 -1
v 0 23 -1
v -1 29 -0
v 0 29 -0
v -1 29 -1
v 0 29 -1
v -4 31 20
v -1 31 20
v 0 31 20
v 3 31 20
v -2 31 10
v -1 31 10
v 0 31 10
v 1 31 10
v -10 31 6
v -7 31 6
v -4 31 6
v -2 31 6
v 1 31 6
v 3 31 6
v 6 31 6
v 9 31 6
v -10 31 -8
v -7 31 -8
v 6 31 -8
v 9 31 -8
v -7 34 6
v -4 34 6
v 3 34 6
v 6 34 6
v -6 34 5
v -4 34 5
v 3 34 5
v 5 34 5
v -6 34 -6
v -2 34 -6
v 1 34 -6
v 5 34 -6
v -7 34 -8
v -3 34 -8
v 2 34 -8
v 6 34 -8
v -3 34 -10
v -2 34 -10
v 1 34 -10
v 2 34 -10
v -3 35 18
v 2 35 18
v -3 35 17
v -2 35 17
v 1 35 17
v 2 35 17
v -3 35 5
v -2 35 5
v 1 35 5
v 2 35 5
v -4 38 18
v -3 38 18
v 2 38 18
v 3 38 18
v -4 38 5
v -3 38 5
v 2 38 5
v 3 38 5
v -6 40 5
v -2 40 5
v 1 40 5
v 5 40 5
v -6 40 -6
v -2 40 -6
v 1 40 -6
v 5 40 -6

# faces
f 3/1/1 2/1/1 1/1/1
f 4/1/1 2/1/1 3/1/1
f 5/2/1 4/2/1 3/2/1
f 6/2/1 4/2/1 5/2/1
f 7/1/1 6/1/1 5/1/1
f 8/1/1 6/1/1 7/1/1
f 11/1/1 10/1/1 9/1/1
f 12/1/1 10/1/1 11/1/1
f 13/1/1 10/1/1 12/1/1
f 16/2/1 15/2/1 14/2/1
f 17/2/1 15/2/1 16/2/1
f 18/1/1 17/1/1 16/1/1
f 19/1/1 17/1/1 18/1/1
f 22/2/1 21/2/1 20/2/1
f 23/2/1 21/2/1 22/2/1
f 24/1/1 23/1/1 22/1/1
f 25/1/1 23/1/1 24/1/1
f 31/1/1 29/1/1 28/1/1
f 32/1/1 29/1/1 31/1/1
f 33/1/1 27/1/1 26/1/1
f 34/1/1 32/1/1 31/1/1
f 34/1/1 33/1/1 32/1/1
f 34/1/1 31/1/1 30/1/1
f 35/1/1 27/1/1 33/1/1
f 35/1/1 33/1/1 34/1/1
f 36/2/1 35/2/1 34/2/1
f 37/2/1 35/2/1 36/2/1
f 38/1/1 37/1/1 36/1/1
f 39/1/1 37/1/1 38/1/1
f 42/3/1 41/3/1 40/3/1
f 44/3/1 42/3/1 40/3/1
f 44/3/1 43/3/1 42/3/1
f 45/3/1 43/3/1 44/3/1
f 46/2/1 45/2/1 44/2/1
f 47/2/1 45/2/1 46/2/1
f 48/1/1 47/1/1 46/1/1
f 49/1/1 47/1/1 48/1/1
f 52/1/1 51/1/1 50/1/1
f 53/1/1 51/1/1 52/1/1
f 54/2/1 53/2/1 52/2/1
f 55/2/1 53/2/1 54/2/1
f 56/1/1 55/1/1 54/1/1
f 57/1/1 55/1/1 56/1/1
f 58/2/1 57/2/1 56/2/1
f 59/2/1 57/2/1 58/2/1
f 60/1/1 59/1/1 58/1/1
f 61/1/1 59/1/1 60/1/1
f 64/1/1 63/1/1 62/1/1
f 65/1/1 63/1/1 64/1/1
f 68/1/1 67/1/1 66/1/1
f 69/1/1 67/1/1 68/1/1
f 73/1/1 71/1/1 70/1/1
f 74/1/1 71/1/1 73/1/1
f 76/1/1 73/1/1 72/1/1
f 76/1/1 75/1/1 74/1/1
f 76/1/1 74/1/1 73/1/1
f 77/1/1 75/1/1 76/1/1
f 78/2/1 77/2/1 76/2/1
f 79/2/1 77/2/1 78/2/1
f 83/2/1 81/2/1 80/2/1
f 83/2/1 82/2/1 81/2/1
f 84/2/1 82/2/1 83/2/1
f 85/1/1 84/1/1 83/1/1
f 86/1/1 84/1/1 85/1/1
f 87/1/2 88/1/2 90/1/2
f 90/1/2 88/1/2 91/1/2
f 89/1/2 90/1/2 93/1/2
f 91/1/2 92/1/2 93/1/2
f 90/1/2 91/1/2 93/1/2
f 93/1/2 92/1/2 94/1/2
f 93/2/2 94/2/2 95/2/2
f 95/2/2 94/2/2 96/2/2
f 97/2/2 98/2/2 100/2/2
f 98/2/2 99/2/2 100/2/2
f 100/2/2 99/2/2 101/2/2
f 100/1/2 101/1/2 102/1/2
f 102/1/2 101/1/2 103/1/2
f 104/1/2 105/1/2 106/1/2
f 106/1/2 105/1/2 107/1/2
f 108/1/2 109/1/2 110/1/2
f 110/1/2 109/1/2 111/1/2
f 112/1/2 113/1/2 114/1/2
f 114/1/2 113/1/2 115/1/2
f 114/2/2 115/2/2 116/2/2
f 116/2/2 115/2/2 117/2/2
f 116/1/2 117/1/2 118/1/2
f 118/1/2 117/1/2 119/1/2
f 118/2/2 119/2/2 120/2/2
f 120/2/2 119/2/2 121/2/2
f 120/1/2 121/1/2 122/1/2
f 122/1/2 121/1/2 123/1/2
f 126/1/2 127/1/2 129/1/2
f 129/1/2 127/1/2 130/1/2
f 124/1/2 125/1/2 131/1/2
f 129/1/2 130/1/2 132/1/2
f 130/1/2 131/1/2 132/1/2
f 128/1/2 129/1/2 132/1/2
f 131/1/2 125/1/2 133/1/2
f 132/1/2 131/1/2 133/1/2
f 132/2/2 133/2/2 134/2/2
f 134/2/2 133/2/2 135/2/2
f 134/1/2 135/1/2 136/1/2
f 136/1/2 135/1/2 137/1/2
f 138/3/2 139/3/2 140/3/2
f 138/3/2 140/3/2 142/3/2
f 140/3/2 141/3/2 142/3/2
f 142/3/2 141/3/2 143/3/2
f 142/2/2 143/2/2 144/2/2
f 144/2/2 143/2/2 145/2/2
f 144/1/2 145/1/2 146/1/2
f 146/1/2 145/1/2 147/1/2
f 148/2/2 149/2/2 150/2/2
f 150/2/2 149/2/2 151/2/2
f 150/1/2 151/1/2 152/1/2
f 152/1/2 151/1/2 153/1/2
f 154/2/2 155/2/2 156/2/2
f 156/2/2 155/2/2 157/2/2
f 156/1/2 157/1/2 158/1/2
f 158/1/2 157/1/2 159/1/2
f 160/1/2 161/1/2 162/1/2
f 162/1/2 161/1/2 163/1/2
f 163/1/2 161/1/2 164/1/2
f 165/1/2 166/1/2 167/1/2
f 167/1/2 166/1/2 168/1/2
f 167/2/2 168/2/2 169/2/2
f 169/2/2 168/2/2 170/2/2
f 169/1/2 170/1/2 171/1/2
f 171/1/2 170/1/2 172/1/2
f 177/1/3 174/1/3 173/1/3
f 178/2/3 175/2/3 174/2/3
f 178/1/3 174/1/3 177/1/3
f 179/1/3 176/1/3 175/1/3
f 179/2/3 175/2/3 178/2/3
f 180/1/3 176/1/3 179/1/3
f 181/1/3 176/1/3 180/1/3
f 182/2/3 181/2/3 180/2/3
f 183/2/3 181/2/3 182/2/3
f 186/1/3 183/1/3 182/1/3
f 187/1/3 185/1/3 184/1/3
f 188/2/3 186/2/3 185/2/3
f 188/1/3 185/1/3 187/1/3
f 189/1/3 183/1/3 186/1/3
f 189/2/3 186/2/3 188/2/3
f 190/1/3 183/1/3 189/1/3
f 195/3/3 192/3/3 191/3/3
f 195/2/3 193/2/3 192/2/3
f 196/1/3 194/1/3 193/1/3
f 196/2/3 193/2/3 195/2/3
f 197/1/3 194/1/3 196/1/3
f 198/3/3 195/3/3 191/3/3
f 201/3/3 198/3/3 191/3/3
f 202/2/3 199/2/3 198/2/3
f 202/3/3 198/3/3 201/3/3
f 203/1/3 200/1/3 199/1/3
f 203/2/3 199/2/3 202/2/3
f 204/1/3 200/1/3 203/1/3
f 207/1/3 206/1/3 205/1/3
f 208/1/3 206/1/3 207/1/3
f 211/1/3 210/1/3 209/1/3
f 212/1/3 210/1/3 211/1/3
f 216/1/3 214/1/3 213/1/3
f 217/2/3 215/2/3 214/2/3
f 217/1/3 214/1/3 216/1/3
f 218/2/3 215/2/3 217/2/3
f 219/2/3 217/2/3 216/2/3
f 219/2/3 218/2/3 217/2/3
f 220/2/3 218/2/3 219/2/3
f 221/2/3 218/2/3 220/2/3
f 222/1/3 220/1/3 219/1/3
f 223/2/3 221/2/3 220/2/3
f 223/1/3 220/1/3 222/1/3
f 224/2/3 221/2/3 223/2/3
f 227/1/3 226/1/3 225/1/3
f 229/1/3 227/1/3 225/1/3
f 229/1/3 228/1/3 227/1/3
f 230/1/3 228/1/3 229/1/3
f 231/1/3 229/1/3 225/1/3
f 231/2/3 230/2/3 229/2/3
f 232/2/3 230/2/3 231/2/3
f 233/1/3 231/1/3 225/1/3
f 233/1/3 232/1/3 231/1/3
f 234/1/3 232/1/3 233/1/3
f 235/1/3 233/1/3 225/1/3
f 236/1/3 233/1/3 235/1/3
f 241/1/3 238/1/3 237/1/3
f 242/1/3 240/1/3 239/1/3
f 245/1/3 238/1/3 241/1/3
f 246/2/3 239/2/3 238/2/3
f 246/1/3 238/1/3 245/1/3
f 247/1/3 242/1/3 239/1/3
f 247/2/3 239/2/3 246/2/3
f 248/2/3 243/2/3 242/2/3
f 248/1/3 242/1/3 247/1/3
f 249/1/3 244/1/3 243/1/3
f 249/2/3 243/2/3 248/2/3
f 250/1/3 244/1/3 249/1/3
f 251/2/3 249/2/3 248/2/3
f 252/2/3 251/2/3 248/2/3
f 253/2/3 251/2/3 252/2/3
f 254/2/3 253/2/3 252/2/3
f 255/2/3 253/2/3 254/2/3
f 256/2/3 255/2/3 254/2/3
f 260/2/3 256/2/3 254/2/3
f 261/2/3 256/2/3 260/2/3
f 263/2/3 261/2/3 260/2/3
f 263/1/3 260/1/3 259/1/3
f 264/1/3 262/1/3 261/1/3
f 264/2/3 261/2/3 263/2/3
f 265/1/3 262/1/3 264/1/3
f 266/1/3 258/1/3 257/1/3
f 267/1/3 258/1/3 266/1/3
f 268/2/3 259/2/3 258/2/3
f 268/1/3 258/1/3 267/1/3
f 269/1/3 263/1/3 259/1/3
f 269/2/3 259/2/3 268/2/3
f 270/1/3 263/1/3 269/1/3
f 274/2/3 272/2/3 271/2/3
f 275/2/3 272/2/3 274/2/3
f 276/1/3 273/1/3 272/1/3
f 276/2/3 272/2/3 275/2/3
f 277/1/3 273/1/3 276/1/3
f 280/1/3 273/1/3 277/1/3
f 281/1/3 279/1/3 278/1/3
f 281/1/3 280/1/3 279/1/3
f 282/1/3 273/1/3 280/1/3
f 282/1/3 280/1/3 281/1/3
f 283/2/3 282/2/3 281/2/3
f 284/2/3 282/2/3 283/2/3
f 285/1/3 284/1/3 283/1/3
f 286/1/3 284/1/3 285/1/3
f 287/1/3 284/1/3 286/1/3
f 291/1/3 284/1/3 287/1/3
f 292/2/3 290/2/3 289/2/3
f 292/2/3 289/2/3 288/2/3
f 293/1/3 291/1/3 290/1/3
f 293/2/3 290/2/3 292/2/3
f 294/1/3 284/1/3 291/1/3
f 294/1/3 291/1/3 293/1/3
f 299/1/3 296/1/3 295/1/3
f 300/1/3 296/1/3 299/1/3
f 301/1/3 298/1/3 297/1/3
f 302/1/3 298/1/3 301/1/3
f 303/1/4 304/1/4 305/1/4
f 305/1/4 304/1/4 306/1/4
f 307/1/4 308/1/4 309/1/4
f 309/1/4 308/1/4 310/1/4
f 311/1/4 312/1/4 315/1/4
f 315/1/4 312/1/4 316/1/4
f 313/1/4 314/1/4 317/1/4
f 317/1/4 314/1/4 318/1/4
f 319/2/4 320/2/4 322/2/4
f 320/1/4 321/1/4 323/1/4
f 322/2/4 320/2/4 323/2/4
f 323/1/4 321/1/4 324/1/4
f 322/2/4 323/2/4 325/2/4
f 323/2/4 324/2/4 325/2/4
f 325/2/4 324/2/4 326/2/4
f 326/2/4 324/2/4 327/2/4
f 325/2/4 326/2/4 328/2/4
f 326/1/4 327/1/4 329/1/4
f 328/2/4 326/2/4 329/2/4
f 329/1/4 327/1/4 330/1/4
f 331/1/4 332/1/4 336/1/4
f 333/1/4 334/1/4 337/1/4
f 335/1/4 336/1/4 340/1/4
f 336/1/4 332/1/4 340/1/4
f 332/2/4 333/2/4 341/2/4
f 340/1/4 332/1/4 341/1/4
f 333/1/4 337/1/4 342/1/4
f 341/2/4 333/2/4 342/2/4
f 337/2/4 338/2/4 343/2/4
f 342/1/4 337/1/4 343/1/4
f 338/1/4 339/1/4 344/1/4
f 343/2/4 338/2/4 344/2/4
f 344/1/4 339/1/4 345/1/4
f 335/1/4 340/1/4 346/1/4
f 346/1/4 340/1/4 347/1/4
f 346/2/4 347/2/4 348/2/4
f 348/2/4 347/2/4 349/2/4
f 348/1/4 349/1/4 350/1/4
f 352/1/4 353/1/4 356/1/4
f 353/2/4 354/2/4 356/2/4
f 354/1/4 355/1/4 357/1/4
f 356/2/4 354/2/4 357/2/4
f 357/1/4 355/1/4 358/1/4
f 348/1/4 350/1/4 359/1/4
f 350/1/4 351/1/4 359/1/4
f 359/1/4 351/1/4 360/1/4
f 360/1/4 351/1/4 361/1/4
f 351/2/4 352/2/4 362/2/4
f 361/1/4 351/1/4 362/1/4
f 352/1/4 356/1/4 363/1/4
f 362/2/4 352/2/4 363/2/4
f 363/1/4 356/1/4 364/1/4
f 365/1/4 366/1/4 371/1/4
f 366/2/4 367/2/4 372/2/4
f 371/1/4 366/1/4 372/1/4
f 367/1/4 368/1/4 373/1/4
f 372/2/4 367/2/4 373/2/4
f 368/2/4 369/2/4 374/2/4
f 373/1/4 368/1/4 374/1/4
f 369/1/4 370/1/4 375/1/4
f 374/2/4 369/2/4 375/2/4
f 375/1/4 370/1/4 376/1/4
f 373/2/4 374/2/4 377/2/4
f 371/2/4 372/2/4 377/2/4
f 375/2/4 376/2/4 377/2/4
f 374/2/4 375/2/4 377/2/4
f 372/2/4 373/2/4 377/2/4
f 377/2/4 376/2/4 378/2/4
f 378/2/4 376/2/4 379/2/4
f 379/2/4 376/2/4 380/2/4
f 380/2/4 376/2/4 381/2/4
f 381/2/4 376/2/4 382/2/4
f 377/1/4 378/1/4 383/1/4
f 378/2/4 379/2/4 384/2/4
f 383/1/4 378/1/4 384/1/4
f 379/1/4 380/1/4 385/1/4
f 384/2/4 379/2/4 385/2/4
f 380/2/4 381/2/4 386/2/4
f 385/1/4 380/1/4 386/1/4
f 381/1/4 382/1/4 387/1/4
f 386/2/4 381/2/4 387/2/4
f 387/1/4 382/1/4 388/1/4
f 391/1/5 390/1/5 389/1/5
f 392/1/5 390/1/5 391/1/5
f 393/1/5 391/1/5 389/1/5
f 394/2/5 392/2/5 391/2/5
f 394/1/5 391/1/5 393/1/5
f 395/1/5 390/1/5 392/1/5
f 395/2/5 392/2/5 394/2/5
f 396/1/5 390/1/5 395/1/5
f 401/1/5 398/1/5 397/1/5
f 402/1/5 398/1/5 401/1/5
f 407/1/5 400/1/5 399/1/5
f 408/1/5 400/1/5 407/1/5
f 409/1/5 404/1/5 403/1/5
f 410/2/5 405/2/5 404/2/5
f 410/1/5 404/1/5 409/1/5
f 411/1/5 406/1/5 405/1/5
f 411/2/5 405/2/5 410/2/5
f 412/1/5 406/1/5 411/1/5
f 417/1/5 414/1/5 413/1/5
f 418/1/5 414/1/5 417/1/5
f 419/1/5 416/1/5 415/1/5
f 420/1/5 416/1/5 419/1/5
f 425/1/5 422/1/5 421/1/5
f 426/1/5 422/1/5 425/1/5
f 427/1/5 424/1/5 423/1/5
f 428/1/5 424/1/5 427/1/5
f 433/1/5 430/1/5 429/1/5
f 436/1/5 432/1/5 431/1/5
f 437/1/5 433/1/5 429/1/5
f 437/1/5 434/1/5 433/1/5
f 438/2/5 435/2/5 434/2/5
f 438/1/5 434/1/5 437/1/5
f 439/1/5 436/1/5 435/1/5
f 439/2/5 435/2/5 438/2/5
f 440/1/5 432/1/5 436/1/5
f 440/1/5 436/1/5 439/1/5
f 443/1/5 442/1/5 441/1/5
f 444/1/5 442/1/5 443/1/5
f 449/1/5 446/1/5 445/1/5
f 450/2/5 447/2/5 446/2/5
f 450/1/5 446/1/5 449/1/5
f 451/1/5 448/1/5 447/1/5
f 451/2/5 447/2/5 450/2/5
f 452/1/5 448/1/5 451/1/5
f 453/1/5 449/1/5 445/1/5
f 454/2/5 450/2/5 449/2/5
f 454/1/5 449/1/5 453/1/5
f 454/2/5 451/2/5 450/2/5
f 454/2/5 452/2/5 451/2/5
f 455/1/5 448/1/5 452/1/5
f 455/2/5 452/2/5 454/2/5
f 456/1/5 448/1/5 455/1/5
f 459/1/5 458/1/5 457/1/5
f 460/1/5 458/1/5 459/1/5
f 463/3/5 462/3/5 461/3/5
f 464/3/5 462/3/5 463/3/5
f 465/3/5 462/3/5 464/3/5
f 466/3/5 462/3/5 465/3/5
f 467/1/5 464/1/5 463/1/5
f 468/2/5 465/2/5 464/2/5
f 468/1/5 464/1/5 467/1/5
f 469/1/5 466/1/5 465/1/5
f 469/2/5 465/2/5 468/2/5
f 470/1/5 466/1/5 469/1/5
f 471/3/5 463/3/5 461/3/5
f 472/1/5 467/1/5 463/1/5
f 472/3/5 463/3/5 471/3/5
f 473/2/5 468/2/5 467/2/5
f 473/1/5 467/1/5 472/1/5
f 473/2/5 469/2/5 468/2/5
f 473/2/5 470/2/5 469/2/5
f 474/1/5 466/1/5 470/1/5
f 474/2/5 470/2/5 473/2/5
f 475/3/5 462/3/5 466/3/5
f 475/1/5 466/1/5 474/1/5
f 476/3/5 462/3/5 475/3/5
f 477/1/6 478/1/6 481/1/6
f 481/1/6 478/1/6 482/1/6
f 479/1/6 480/1/6 483/1/6
f 483/1/6 480/1/6 484/1/6
f 485/1/6 486/1/6 487/1/6
f 487/1/6 486/1/6 488/1/6
f 489/1/6 490/1/6 491/1/6
f 491/1/6 490/1/6 492/1/6
f 493/1/6 494/1/6 497/1/6
f 494/2/6 495/2/6 498/2/6
f 497/1/6 494/1/6 498/1/6
f 495/1/6 496/1/6 499/1/6
f 498/2/6 495/2/6 499/2/6
f 499/1/6 496/1/6 500/1/6
f 493/1/6 497/1/6 503/1/6
f 497/2/6 498/2/6 504/2/6
f 503/1/6 497/1/6 504/1/6
f 498/2/6 499/2/6 504/2/6
f 499/2/6 500/2/6 504/2/6
f 500/1/6 496/1/6 505/1/6
f 504/2/6 500/2/6 505/2/6
f 505/1/6 496/1/6 506/1/6
f 501/1/6 502/1/6 509/1/6
f 509/1/6 502/1/6 510/1/6
f 507/1/6 508/1/6 511/1/6
f 511/1/6 508/1/6 512/1/6
f 513/1/6 514/1/6 517/1/6
f 517/1/6 514/1/6 518/1/6
f 515/1/6 516/1/6 519/1/6
f 519/1/6 516/1/6 520/1/6
f 513/1/6 517/1/6 521/1/6
f 520/1/6 516/1/6 524/1/6
f 513/1/6 521/1/6 525/1/6
f 521/1/6 522/1/6 525/1/6
f 525/1/6 522/1/6 526/1/6
f 523/1/6 524/1/6 527/1/6
f 524/1/6 516/1/6 528/1/6
f 527/1/6 524/1/6 528/1/6
f 526/1/6 522/1/6 529/1/6
f 522/2/6 523/2/6 530/2/6
f 529/1/6 522/1/6 530/1/6
f 523/1/6 527/1/6 531/1/6
f 530/2/6 523/2/6 531/2/6
f 531/1/6 527/1/6 532/1/6
f 533/3/6 534/3/6 535/3/6
f 535/3/6 534/3/6 536/3/6
f 536/3/6 534/3/6 537/3/6
f 537/3/6 534/3/6 538/3/6
f 535/1/6 536/1/6 539/1/6
f 536/2/6 537/2/6 540/2/6
f 539/1/6 536/1/6 540/1/6
f 537/1/6 538/1/6 541/1/6
f 540/2/6 537/2/6 541/2/6
f 541/1/6 538/1/6 542/1/6
f 543/1/6 544/1/6 547/1/6
f 547/1/6 544/1/6 548/1/6
f 545/1/6 546/1/6 549/1/6
f 549/1/6 546/1/6 550/1/6
f 551/1/6 552/1/6 555/1/6
f 552/2/6 553/2/6 556/2/6
f 555/1/6 552/1/6 556/1/6
f 553/1/6 554/1/6 557/1/6
f 556/2/6 553/2/6 557/2/6
f 557/1/6 554/1/6 558/1/6
