# MagicaVoxel @ Ephtracy

# group
g RangeTower1_Top

# material
mtllib RangeTower1_Top.mtl
usemtl palette

# normals
vn -1 0 0
vn 1 0 0
vn 0 0 1
vn 0 0 -1
vn 0 -1 0
vn 0 1 0

# texcoords
vt 0.396484 0.5
vt 0.681641 0.5
vt 0.775391 0.5
vt 0.955078 0.5
vt 0.974609 0.5
vt 0.986328 0.5

# verts
v -10 23 8
v -10 23 -8
v -10 29 8
v -10 29 -8
v -9 21 7
v -9 21 -8
v -9 23 7
v -9 23 -8
v -9 29 4
v -9 29 -5
v -9 31 4
v -9 31 -5
v -7 29 6
v -7 29 4
v -7 29 -5
v -7 29 -8
v -7 31 6
v -7 31 4
v -7 31 -5
v -7 31 -8
v -7 32 6
v -7 32 -8
v -7 34 6
v -7 34 -8
v -6 34 5
v -6 34 -6
v -6 35 5
v -6 35 -6
v -6 36 5
v -6 36 -6
v -4 28 11
v -4 28 8
v -4 29 8
v -4 29 6
v -4 31 11
v -4 31 6
v -4 32 11
v -4 32 6
v -4 33 11
v -4 33 6
v -3 23 -8
v -3 23 -10
v -3 26 16
v -3 26 14
v -3 29 16
v -3 29 14
v -3 29 -8
v -3 29 -10
v -3 31 -8
v -3 31 -10
v -3 32 -8
v -3 32 -10
v -3 34 -8
v -3 34 -10
v -2 26 17
v -2 26 16
v -2 26 14
v -2 26 8
v -2 28 9
v -2 28 8
v -2 29 17
v -2 29 16
v -2 29 14
v -2 29 9
v -1 26 18
v -1 26 17
v -1 28 9
v -1 28 8
v -1 29 18
v -1 29 17
v -1 29 9
v -1 29 8
v 0 23 -0
v 0 23 -1
v 0 26 -0
v 0 26 -1
v 0 29 -0
v 0 29 -1
v 0 30 -0
v 0 30 -1
v 0 31 11
v 0 31 10
v 0 31 9
v 0 31 8
v 0 32 11
v 0 32 10
v 0 32 9
v 0 32 8
v 1 30 11
v 1 30 9
v 1 30 8
v 1 31 11
v 1 31 10
v 1 31 9
v 1 31 8
v 2 28 11
v 2 28 8
v 2 29 8
v 2 30 11
v 2 30 9
v 2 30 8
v -3 28 11
v -3 28 8
v -3 29 8
v -3 30 11
v -3 30 8
v -2 30 11
v -2 30 8
v -2 31 11
v -2 31 10
v -2 31 8
v -1 23 -0
v -1 23 -1
v -1 26 -0
v -1 26 -1
v -1 29 -0
v -1 29 -1
v -1 30 -0
v -1 30 -1
v -1 31 11
v -1 31 10
v -1 31 8
v -1 32 11
v -1 32 10
v -1 32 8
v 0 26 18
v 0 26 17
v 0 28 9
v 0 28 8
v 0 29 18
v 0 29 17
v 0 29 9
v 0 29 8
v 1 26 17
v 1 26 16
v 1 26 14
v 1 26 8
v 1 28 9
v 1 28 8
v 1 29 17
v 1 29 16
v 1 29 14
v 1 29 9
v 2 23 -8
v 2 23 -10
v 2 26 16
v 2 26 14
v 2 29 16
v 2 29 14
v 2 29 -8
v 2 29 -10
v 2 31 -8
v 2 31 -10
v 2 32 -8
v 2 32 -10
v 2 34 -8
v 2 34 -10
v 3 28 11
v 3 28 8
v 3 29 8
v 3 29 6
v 3 31 11
v 3 31 6
v 3 32 11
v 3 32 6
v 3 33 11
v 3 33 6
v 5 34 5
v 5 34 -6
v 5 35 5
v 5 35 -6
v 5 36 5
v 5 36 -6
v 6 29 6
v 6 29 4
v 6 29 -6
v 6 29 -8
v 6 31 6
v 6 31 4
v 6 31 -6
v 6 31 -8
v 6 32 6
v 6 32 -8
v 6 34 6
v 6 34 -8
v 7 21 7
v 7 21 -8
v 7 23 7
v 7 23 -8
v 8 29 4
v 8 29 -6
v 8 31 4
v 8 31 -6
v 9 23 8
v 9 23 -8
v 9 29 8
v 9 29 -8
v -1 26 18
v -1 29 18
v 0 26 18
v 0 29 18
v -2 26 17
v -2 29 17
v -1 26 17
v -1 29 17
v 0 26 17
v 0 29 17
v 1 26 17
v 1 29 17
v -3 26 16
v -3 29 16
v -2 26 16
v -2 29 16
v 1 26 16
v 1 29 16
v 2 26 16
v 2 29 16
v -4 28 11
v -4 31 11
v -4 32 11
v -4 33 11
v -3 28 11
v -3 30 11
v -2 30 11
v -2 31 11
v -1 31 11
v -1 32 11
v -1 33 11
v 0 31 11
v 0 32 11
v 0 33 11
v 1 30 11
v 1 31 11
v 2 28 11
v 2 30 11
v 3 28 11
v 3 31 11
v 3 32 11
v 3 33 11
v -10 23 8
v -10 29 8
v -4 28 8
v -4 29 8
v -3 28 8
v -3 29 8
v -3 30 8
v -2 26 8
v -2 28 8
v -2 30 8
v -2 31 8
v -1 28 8
v -1 29 8
v -1 31 8
v -1 32 8
v 0 28 8
v 0 29 8
v 0 31 8
v 0 32 8
v 1 26 8
v 1 28 8
v 1 30 8
v 1 31 8
v 2 28 8
v 2 29 8
v 2 30 8
v 3 28 8
v 3 29 8
v 9 23 8
v 9 29 8
v -9 21 7
v -9 23 7
v 7 21 7
v 7 23 7
v -7 29 6
v -7 31 6
v -7 32 6
v -7 34 6
v -4 29 6
v -4 31 6
v -4 32 6
v -4 33 6
v -1 33 6
v -1 34 6
v 0 33 6
v 0 34 6
v 3 29 6
v 3 31 6
v 3 32 6
v 3 33 6
v 6 29 6
v 6 31 6
v 6 32 6
v 6 34 6
v -6 34 5
v -6 35 5
v -6 36 5
v -1 34 5
v -1 35 5
v -1 36 5
v 0 34 5
v 0 35 5
v 0 36 5
v 5 34 5
v 5 35 5
v 5 36 5
v -9 29 4
v -9 31 4
v -7 29 4
v -7 31 4
v 6 29 4
v 6 31 4
v 8 29 4
v 8 31 4
v -1 23 -1
v -1 26 -1
v -1 29 -1
v -1 30 -1
v 0 23 -1
v 0 26 -1
v 0 29 -1
v 0 30 -1
v -3 26 14
v -3 29 14
v -2 26 14
v -2 29 14
v 1 26 14
v 1 29 14
v 2 26 14
v 2 29 14
v -2 28 9
v -2 29 9
v -1 28 9
v -1 29 9
v 0 28 9
v 0 29 9
v 1 28 9
v 1 29 9
v -1 23 -0
v -1 26 -0
v -1 29 -0
v -1 30 -0
v 0 23 -0
v 0 26 -0
v 0 29 -0
v 0 30 -0
v -9 29 -5
v -9 31 -5
v -7 29 -5
v -7 31 -5
v -6 34 -6
v -6 35 -6
v -6 36 -6
v -1 34 -6
v -1 35 -6
v -1 36 -6
v 0 34 -6
v 0 35 -6
v 0 36 -6
v 5 34 -6
v 5 35 -6
v 5 36 -6
v 6 29 -6
v 6 31 -6
v 8 29 -6
v 8 31 -6
v -10 23 -8
v -10 29 -8
v -9 21 -8
v -9 23 -8
v -7 29 -8
v -7 31 -8
v -7 32 -8
v -7 34 -8
v -3 23 -8
v -3 29 -8
v -3 31 -8
v -3 32 -8
v -3 34 -8
v 2 23 -8
v 2 29 -8
v 2 31 -8
v 2 32 -8
v 2 34 -8
v 6 29 -8
v 6 31 -8
v 6 32 -8
v 6 34 -8
v 7 21 -8
v 7 23 -8
v 9 23 -8
v 9 29 -8
v -3 23 -10
v -3 29 -10
v -3 31 -10
v -3 32 -10
v -3 34 -10
v -1 29 -10
v -1 31 -10
v -1 32 -10
v -1 34 -10
v 0 29 -10
v 0 31 -10
v 0 32 -10
v 0 34 -10
v 2 23 -10
v 2 29 -10
v 2 31 -10
v 2 32 -10
v 2 34 -10
v -9 21 7
v 7 21 7
v -9 21 -8
v 7 21 -8
v -10 23 8
v 9 23 8
v -9 23 7
v 7 23 7
v -10 23 -8
v -9 23 -8
v -3 23 -8
v 2 23 -8
v 7 23 -8
v 9 23 -8
v -3 23 -10
v 2 23 -10
v -1 26 18
v 0 26 18
v -2 26 17
v -1 26 17
v 0 26 17
v 1 26 17
v -3 26 16
v -2 26 16
v 1 26 16
v 2 26 16
v -3 26 14
v -2 26 14
v 1 26 14
v 2 26 14
v -2 26 8
v 1 26 8
v -1 26 -0
v 0 26 -0
v -1 26 -1
v 0 26 -1
v -4 28 11
v -3 28 11
v 2 28 11
v 3 28 11
v -4 28 8
v -3 28 8
v 2 28 8
v 3 28 8
v -3 30 11
v -2 30 11
v 1 30 11
v 2 30 11
v 1 30 9
v 2 30 9
v -3 30 8
v -2 30 8
v 1 30 8
v 2 30 8
v -1 30 -0
v 0 30 -0
v -1 30 -1
v 0 30 -1
v -2 31 11
v -1 31 11
v 0 31 11
v 1 31 11
v -2 31 10
v -1 31 10
v 0 31 10
v 1 31 10
v 0 31 9
v 1 31 9
v -2 31 8
v -1 31 8
v 0 31 8
v 1 31 8
v -1 32 11
v 0 32 11
v -1 32 10
v 0 32 10
v 0 32 9
v -1 32 8
v 0 32 8
v -1 23 -0
v 0 23 -0
v -1 23 -1
v 0 23 -1
v -2 28 9
v -1 28 9
v 0 28 9
v 1 28 9
v -2 28 8
v -1 28 8
v 0 28 8
v 1 28 8
v -1 29 18
v 0 29 18
v -2 29 17
v -1 29 17
v 0 29 17
v 1 29 17
v -3 29 16
v -2 29 16
v 1 29 16
v 2 29 16
v -3 29 14
v -2 29 14
v 1 29 14
v 2 29 14
v -2 29 9
v -1 29 9
v 0 29 9
v 1 29 9
v -10 29 8
v -4 29 8
v -1 29 8
v 0 29 8
v 3 29 8
v 9 29 8
v -7 29 6
v -4 29 6
v 3 29 6
v 6 29 6
v -9 29 4
v -7 29 4
v 6 29 4
v 8 29 4
v -1 29 -0
v 0 29 -0
v -1 29 -1
v 0 29 -1
v -9 29 -5
v -7 29 -5
v 6 29 -6
v 8 29 -6
v -10 29 -8
v -7 29 -8
v 6 29 -8
v 9 29 -8
v -9 31 4
v -7 31 4
v 6 31 4
v 8 31 4
v -9 31 -5
v -7 31 -5
v 6 31 -6
v 8 31 -6
v -4 33 11
v -1 33 11
v 0 33 11
v 3 33 11
v -4 33 6
v -1 33 6
v 0 33 6
v 3 33 6
v -7 34 6
v -1 34 6
v 0 34 6
v 6 34 6
v -6 34 5
v -1 34 5
v 0 34 5
v 5 34 5
v -6 34 -6
v -1 34 -6
v 0 34 -6
v 5 34 -6
v -7 34 -8
v -3 34 -8
v 2 34 -8
v 6 34 -8
v -3 34 -10
v -1 34 -10
v 0 34 -10
v 2 34 -10
v -6 36 5
v -1 36 5
v 0 36 5
v 5 36 5
v -6 36 -6
v -1 36 -6
v 0 36 -6
v 5 36 -6

# faces
f 3/6/1 2/6/1 1/6/1
f 4/6/1 2/6/1 3/6/1
f 7/6/1 6/6/1 5/6/1
f 8/6/1 6/6/1 7/6/1
f 11/3/1 10/3/1 9/3/1
f 12/3/1 10/3/1 11/3/1
f 17/3/1 14/3/1 13/3/1
f 18/3/1 14/3/1 17/3/1
f 19/3/1 16/3/1 15/3/1
f 20/3/1 16/3/1 19/3/1
f 21/2/1 18/2/1 17/2/1
f 21/2/1 19/2/1 18/2/1
f 21/2/1 20/2/1 19/2/1
f 22/2/1 20/2/1 21/2/1
f 23/3/1 22/3/1 21/3/1
f 24/3/1 22/3/1 23/3/1
f 27/2/1 26/2/1 25/2/1
f 28/2/1 26/2/1 27/2/1
f 29/3/1 28/3/1 27/3/1
f 30/3/1 28/3/1 29/3/1
f 33/3/1 32/3/1 31/3/1
f 35/3/1 33/3/1 31/3/1
f 35/3/1 34/3/1 33/3/1
f 36/3/1 34/3/1 35/3/1
f 37/2/1 36/2/1 35/2/1
f 38/2/1 36/2/1 37/2/1
f 39/3/1 38/3/1 37/3/1
f 40/3/1 38/3/1 39/3/1
f 45/5/1 44/5/1 43/5/1
f 46/5/1 44/5/1 45/5/1
f 47/6/1 42/6/1 41/6/1
f 48/6/1 42/6/1 47/6/1
f 49/3/1 48/3/1 47/3/1
f 50/3/1 48/3/1 49/3/1
f 51/2/1 50/2/1 49/2/1
f 52/2/1 50/2/1 51/2/1
f 53/3/1 52/3/1 51/3/1
f 54/3/1 52/3/1 53/3/1
f 59/1/1 58/1/1 57/1/1
f 60/1/1 58/1/1 59/1/1
f 61/5/1 56/5/1 55/5/1
f 62/5/1 56/5/1 61/5/1
f 63/1/1 59/1/1 57/1/1
f 64/1/1 59/1/1 63/1/1
f 69/5/1 66/5/1 65/5/1
f 70/5/1 66/5/1 69/5/1
f 71/6/1 68/6/1 67/6/1
f 72/6/1 68/6/1 71/6/1
f 75/6/1 74/6/1 73/6/1
f 76/6/1 74/6/1 75/6/1
f 79/3/1 78/3/1 77/3/1
f 80/3/1 78/3/1 79/3/1
f 85/2/1 82/2/1 81/2/1
f 86/3/1 83/3/1 82/3/1
f 86/2/1 82/2/1 85/2/1
f 87/6/1 84/6/1 83/6/1
f 87/3/1 83/3/1 86/3/1
f 88/6/1 84/6/1 87/6/1
f 92/3/1 90/3/1 89/3/1
f 93/3/1 90/3/1 92/3/1
f 94/6/1 91/6/1 90/6/1
f 94/3/1 90/3/1 93/3/1
f 95/6/1 91/6/1 94/6/1
f 98/3/1 97/3/1 96/3/1
f 99/3/1 98/3/1 96/3/1
f 100/3/1 98/3/1 99/3/1
f 101/3/1 98/3/1 100/3/1
f 102/3/2 103/3/2 104/3/2
f 102/3/2 104/3/2 105/3/2
f 105/3/2 104/3/2 106/3/2
f 107/3/2 108/3/2 109/3/2
f 109/3/2 108/3/2 110/3/2
f 110/3/2 108/3/2 111/3/2
f 112/6/2 113/6/2 114/6/2
f 114/6/2 113/6/2 115/6/2
f 116/3/2 117/3/2 118/3/2
f 118/3/2 117/3/2 119/3/2
f 120/2/2 121/2/2 123/2/2
f 121/3/2 122/3/2 124/3/2
f 123/2/2 121/2/2 124/2/2
f 124/3/2 122/3/2 125/3/2
f 126/5/2 127/5/2 130/5/2
f 130/5/2 127/5/2 131/5/2
f 128/6/2 129/6/2 132/6/2
f 132/6/2 129/6/2 133/6/2
f 136/1/2 137/1/2 138/1/2
f 138/1/2 137/1/2 139/1/2
f 134/5/2 135/5/2 140/5/2
f 140/5/2 135/5/2 141/5/2
f 136/1/2 138/1/2 142/1/2
f 142/1/2 138/1/2 143/1/2
f 146/5/2 147/5/2 148/5/2
f 148/5/2 147/5/2 149/5/2
f 144/6/2 145/6/2 150/6/2
f 150/6/2 145/6/2 151/6/2
f 150/3/2 151/3/2 152/3/2
f 152/3/2 151/3/2 153/3/2
f 152/2/2 153/2/2 154/2/2
f 154/2/2 153/2/2 155/2/2
f 154/3/2 155/3/2 156/3/2
f 156/3/2 155/3/2 157/3/2
f 158/3/2 159/3/2 160/3/2
f 158/3/2 160/3/2 162/3/2
f 160/3/2 161/3/2 162/3/2
f 162/3/2 161/3/2 163/3/2
f 162/2/2 163/2/2 164/2/2
f 164/2/2 163/2/2 165/2/2
f 164/3/2 165/3/2 166/3/2
f 166/3/2 165/3/2 167/3/2
f 168/2/2 169/2/2 170/2/2
f 170/2/2 169/2/2 171/2/2
f 170/3/2 171/3/2 172/3/2
f 172/3/2 171/3/2 173/3/2
f 174/3/2 175/3/2 178/3/2
f 178/3/2 175/3/2 179/3/2
f 176/3/2 177/3/2 180/3/2
f 180/3/2 177/3/2 181/3/2
f 178/2/2 179/2/2 182/2/2
f 179/2/2 180/2/2 182/2/2
f 180/2/2 181/2/2 182/2/2
f 182/2/2 181/2/2 183/2/2
f 182/3/2 183/3/2 184/3/2
f 184/3/2 183/3/2 185/3/2
f 186/6/2 187/6/2 188/6/2
f 188/6/2 187/6/2 189/6/2
f 190/3/2 191/3/2 192/3/2
f 192/3/2 191/3/2 193/3/2
f 194/6/2 195/6/2 196/6/2
f 196/6/2 195/6/2 197/6/2
f 200/5/3 199/5/3 198/5/3
f 201/5/3 199/5/3 200/5/3
f 204/5/3 203/5/3 202/5/3
f 205/5/3 203/5/3 204/5/3
f 208/5/3 207/5/3 206/5/3
f 209/5/3 207/5/3 208/5/3
f 212/5/3 211/5/3 210/5/3
f 213/5/3 211/5/3 212/5/3
f 216/5/3 215/5/3 214/5/3
f 217/5/3 215/5/3 216/5/3
f 222/3/3 219/3/3 218/3/3
f 223/3/3 219/3/3 222/3/3
f 224/3/3 219/3/3 223/3/3
f 225/2/3 220/2/3 219/2/3
f 225/3/3 219/3/3 224/3/3
f 226/2/3 220/2/3 225/2/3
f 227/3/3 221/3/3 220/3/3
f 227/2/3 220/2/3 226/2/3
f 228/3/3 221/3/3 227/3/3
f 230/2/3 228/2/3 227/2/3
f 231/2/3 228/2/3 230/2/3
f 233/2/3 230/2/3 229/2/3
f 235/3/3 233/3/3 232/3/3
f 236/3/3 235/3/3 234/3/3
f 237/2/3 230/2/3 233/2/3
f 237/3/3 235/3/3 236/3/3
f 237/3/3 233/3/3 235/3/3
f 238/3/3 231/3/3 230/3/3
f 238/2/3 230/2/3 237/2/3
f 239/3/3 231/3/3 238/3/3
f 242/6/3 241/6/3 240/6/3
f 243/6/3 241/6/3 242/6/3
f 244/6/3 242/6/3 240/6/3
f 247/6/3 245/6/3 244/6/3
f 247/6/3 244/6/3 240/6/3
f 248/6/3 245/6/3 247/6/3
f 249/3/3 246/3/3 245/3/3
f 251/6/3 245/6/3 248/6/3
f 252/3/3 250/3/3 249/3/3
f 252/6/3 245/6/3 251/6/3
f 252/3/3 249/3/3 245/3/3
f 253/3/3 250/3/3 252/3/3
f 256/3/3 254/3/3 253/3/3
f 256/3/3 253/3/3 252/3/3
f 257/3/3 254/3/3 256/3/3
f 258/3/3 254/3/3 257/3/3
f 259/6/3 247/6/3 240/6/3
f 260/6/3 256/6/3 255/6/3
f 261/3/3 257/3/3 256/3/3
f 262/3/3 257/3/3 261/3/3
f 263/6/3 260/6/3 259/6/3
f 263/6/3 256/6/3 260/6/3
f 264/3/3 261/3/3 256/3/3
f 264/6/3 256/6/3 263/6/3
f 265/3/3 261/3/3 264/3/3
f 266/6/3 263/6/3 259/6/3
f 268/6/3 259/6/3 240/6/3
f 268/6/3 267/6/3 266/6/3
f 268/6/3 266/6/3 259/6/3
f 269/6/3 267/6/3 268/6/3
f 272/6/3 271/6/3 270/6/3
f 273/6/3 271/6/3 272/6/3
f 278/3/3 275/3/3 274/3/3
f 279/2/3 276/2/3 275/2/3
f 279/3/3 275/3/3 278/3/3
f 280/3/3 277/3/3 276/3/3
f 280/2/3 276/2/3 279/2/3
f 281/3/3 277/3/3 280/3/3
f 282/3/3 277/3/3 281/3/3
f 283/3/3 277/3/3 282/3/3
f 284/2/3 283/2/3 282/2/3
f 285/2/3 283/2/3 284/2/3
f 289/3/3 285/3/3 284/3/3
f 290/3/3 287/3/3 286/3/3
f 291/2/3 288/2/3 287/2/3
f 291/3/3 287/3/3 290/3/3
f 292/3/3 289/3/3 288/3/3
f 292/2/3 288/2/3 291/2/3
f 293/3/3 285/3/3 289/3/3
f 293/3/3 289/3/3 292/3/3
f 297/2/3 295/2/3 294/2/3
f 298/3/3 296/3/3 295/3/3
f 298/2/3 295/2/3 297/2/3
f 299/3/3 296/3/3 298/3/3
f 300/2/3 298/2/3 297/2/3
f 300/2/3 299/2/3 298/2/3
f 301/2/3 299/2/3 300/2/3
f 302/2/3 299/2/3 301/2/3
f 303/2/3 301/2/3 300/2/3
f 304/3/3 302/3/3 301/3/3
f 304/2/3 301/2/3 303/2/3
f 305/3/3 302/3/3 304/3/3
f 308/3/3 307/3/3 306/3/3
f 309/3/3 307/3/3 308/3/3
f 312/3/3 311/3/3 310/3/3
f 313/3/3 311/3/3 312/3/3
f 318/6/3 315/6/3 314/6/3
f 319/6/3 315/6/3 318/6/3
f 320/3/3 317/3/3 316/3/3
f 321/3/3 317/3/3 320/3/3
f 322/5/4 323/5/4 324/5/4
f 324/5/4 323/5/4 325/5/4
f 326/5/4 327/5/4 328/5/4
f 328/5/4 327/5/4 329/5/4
f 330/1/4 331/1/4 332/1/4
f 332/1/4 331/1/4 333/1/4
f 334/1/4 335/1/4 336/1/4
f 336/1/4 335/1/4 337/1/4
f 338/6/4 339/6/4 342/6/4
f 342/6/4 339/6/4 343/6/4
f 340/3/4 341/3/4 344/3/4
f 344/3/4 341/3/4 345/3/4
f 346/3/4 347/3/4 348/3/4
f 348/3/4 347/3/4 349/3/4
f 350/2/4 351/2/4 353/2/4
f 351/3/4 352/3/4 354/3/4
f 353/2/4 351/2/4 354/2/4
f 354/3/4 352/3/4 355/3/4
f 353/2/4 354/2/4 356/2/4
f 354/2/4 355/2/4 356/2/4
f 356/2/4 355/2/4 357/2/4
f 357/2/4 355/2/4 358/2/4
f 356/2/4 357/2/4 359/2/4
f 357/3/4 358/3/4 360/3/4
f 359/2/4 357/2/4 360/2/4
f 360/3/4 358/3/4 361/3/4
f 362/3/4 363/3/4 364/3/4
f 364/3/4 363/3/4 365/3/4
f 366/6/4 367/6/4 369/6/4
f 369/6/4 367/6/4 370/6/4
f 368/6/4 369/6/4 370/6/4
f 368/6/4 370/6/4 374/6/4
f 370/3/4 371/3/4 375/3/4
f 374/6/4 370/6/4 375/6/4
f 371/2/4 372/2/4 376/2/4
f 375/3/4 371/3/4 376/3/4
f 372/3/4 373/3/4 377/3/4
f 376/2/4 372/2/4 377/2/4
f 377/3/4 373/3/4 378/3/4
f 368/6/4 374/6/4 379/6/4
f 379/6/4 380/6/4 384/6/4
f 380/3/4 381/3/4 384/3/4
f 381/2/4 382/2/4 385/2/4
f 384/3/4 381/3/4 385/3/4
f 382/3/4 383/3/4 386/3/4
f 385/2/4 382/2/4 386/2/4
f 386/3/4 383/3/4 387/3/4
f 368/6/4 379/6/4 388/6/4
f 379/6/4 384/6/4 388/6/4
f 388/6/4 384/6/4 389/6/4
f 389/6/4 384/6/4 390/6/4
f 390/6/4 384/6/4 391/6/4
f 392/6/4 393/6/4 397/6/4
f 393/3/4 394/3/4 397/3/4
f 394/2/4 395/2/4 398/2/4
f 397/3/4 394/3/4 398/3/4
f 395/3/4 396/3/4 399/3/4
f 398/2/4 395/2/4 399/2/4
f 399/3/4 396/3/4 400/3/4
f 397/2/4 398/2/4 401/2/4
f 392/6/4 397/6/4 401/6/4
f 399/2/4 400/2/4 401/2/4
f 398/2/4 399/2/4 401/2/4
f 401/2/4 400/2/4 402/2/4
f 402/2/4 400/2/4 403/2/4
f 403/2/4 400/2/4 404/2/4
f 392/6/4 401/6/4 405/6/4
f 401/3/4 402/3/4 406/3/4
f 405/6/4 401/6/4 406/6/4
f 402/2/4 403/2/4 407/2/4
f 406/3/4 402/3/4 407/3/4
f 403/3/4 404/3/4 408/3/4
f 407/2/4 403/2/4 408/2/4
f 408/3/4 404/3/4 409/3/4
f 412/6/5 411/6/5 410/6/5
f 413/6/5 411/6/5 412/6/5
f 416/6/5 415/6/5 414/6/5
f 417/6/5 415/6/5 416/6/5
f 418/6/5 416/6/5 414/6/5
f 419/6/5 416/6/5 418/6/5
f 422/6/5 415/6/5 417/6/5
f 423/6/5 415/6/5 422/6/5
f 424/6/5 421/6/5 420/6/5
f 425/6/5 421/6/5 424/6/5
f 429/5/5 427/5/5 426/5/5
f 430/5/5 427/5/5 429/5/5
f 433/5/5 429/5/5 428/5/5
f 433/5/5 431/5/5 430/5/5
f 433/5/5 430/5/5 429/5/5
f 434/5/5 431/5/5 433/5/5
f 436/5/5 433/5/5 432/5/5
f 436/5/5 435/5/5 434/5/5
f 436/5/5 434/5/5 433/5/5
f 437/5/5 435/5/5 436/5/5
f 438/5/5 435/5/5 437/5/5
f 439/5/5 435/5/5 438/5/5
f 440/1/5 438/1/5 437/1/5
f 441/1/5 438/1/5 440/1/5
f 444/6/5 443/6/5 442/6/5
f 445/6/5 443/6/5 444/6/5
f 450/3/5 447/3/5 446/3/5
f 451/3/5 447/3/5 450/3/5
f 452/3/5 449/3/5 448/3/5
f 453/3/5 449/3/5 452/3/5
f 458/3/5 457/3/5 456/3/5
f 459/3/5 457/3/5 458/3/5
f 460/3/5 455/3/5 454/3/5
f 461/3/5 455/3/5 460/3/5
f 462/6/5 459/6/5 458/6/5
f 463/6/5 459/6/5 462/6/5
f 466/3/5 465/3/5 464/3/5
f 467/3/5 465/3/5 466/3/5
f 472/2/5 469/2/5 468/2/5
f 473/2/5 469/2/5 472/2/5
f 474/2/5 471/2/5 470/2/5
f 475/2/5 471/2/5 474/2/5
f 476/3/5 475/3/5 474/3/5
f 477/3/5 475/3/5 476/3/5
f 478/3/5 473/3/5 472/3/5
f 479/3/5 473/3/5 478/3/5
f 480/6/5 477/6/5 476/6/5
f 481/6/5 477/6/5 480/6/5
f 484/2/5 483/2/5 482/2/5
f 485/2/5 483/2/5 484/2/5
f 486/2/5 485/2/5 484/2/5
f 487/2/5 486/2/5 484/2/5
f 488/2/5 486/2/5 487/2/5
f 489/6/6 490/6/6 491/6/6
f 491/6/6 490/6/6 492/6/6
f 493/1/6 494/1/6 497/1/6
f 497/1/6 494/1/6 498/1/6
f 495/1/6 496/1/6 499/1/6
f 499/1/6 496/1/6 500/1/6
f 501/5/6 502/5/6 504/5/6
f 504/5/6 502/5/6 505/5/6
f 503/5/6 504/5/6 508/5/6
f 505/5/6 506/5/6 508/5/6
f 504/5/6 505/5/6 508/5/6
f 508/5/6 506/5/6 509/5/6
f 507/5/6 508/5/6 511/5/6
f 509/5/6 510/5/6 511/5/6
f 508/5/6 509/5/6 511/5/6
f 511/5/6 510/5/6 512/5/6
f 512/5/6 510/5/6 513/5/6
f 513/5/6 510/5/6 514/5/6
f 512/1/6 513/1/6 515/1/6
f 515/1/6 513/1/6 516/1/6
f 516/1/6 513/1/6 517/1/6
f 517/1/6 513/1/6 518/1/6
f 516/6/6 517/6/6 521/6/6
f 521/6/6 517/6/6 522/6/6
f 519/6/6 520/6/6 525/6/6
f 525/6/6 520/6/6 526/6/6
f 523/6/6 524/6/6 527/6/6
f 527/6/6 524/6/6 528/6/6
f 519/6/6 525/6/6 529/6/6
f 529/6/6 525/6/6 530/6/6
f 528/6/6 524/6/6 531/6/6
f 531/6/6 524/6/6 532/6/6
f 533/6/6 534/6/6 535/6/6
f 535/6/6 534/6/6 536/6/6
f 519/6/6 529/6/6 537/6/6
f 532/6/6 524/6/6 540/6/6
f 519/6/6 537/6/6 541/6/6
f 537/6/6 538/6/6 541/6/6
f 541/6/6 538/6/6 542/6/6
f 539/6/6 540/6/6 543/6/6
f 540/6/6 524/6/6 544/6/6
f 543/6/6 540/6/6 544/6/6
f 545/3/6 546/3/6 549/3/6
f 549/3/6 546/3/6 550/3/6
f 547/3/6 548/3/6 551/3/6
f 551/3/6 548/3/6 552/3/6
f 553/3/6 554/3/6 557/3/6
f 554/2/6 555/2/6 558/2/6
f 557/3/6 554/3/6 558/3/6
f 555/3/6 556/3/6 559/3/6
f 558/2/6 555/2/6 559/2/6
f 559/3/6 556/3/6 560/3/6
f 561/3/6 562/3/6 565/3/6
f 562/2/6 563/2/6 566/2/6
f 565/3/6 562/3/6 566/3/6
f 563/3/6 564/3/6 567/3/6
f 566/2/6 563/2/6 567/2/6
f 567/3/6 564/3/6 568/3/6
f 561/3/6 565/3/6 569/3/6
f 568/3/6 564/3/6 572/3/6
f 561/3/6 569/3/6 573/3/6
f 569/3/6 570/3/6 573/3/6
f 573/3/6 570/3/6 574/3/6
f 571/3/6 572/3/6 575/3/6
f 572/3/6 564/3/6 576/3/6
f 575/3/6 572/3/6 576/3/6
f 574/3/6 570/3/6 577/3/6
f 570/2/6 571/2/6 578/2/6
f 577/3/6 570/3/6 578/3/6
f 571/3/6 575/3/6 579/3/6
f 578/2/6 571/2/6 579/2/6
f 579/3/6 575/3/6 580/3/6
f 581/3/6 582/3/6 585/3/6
f 582/2/6 583/2/6 586/2/6
f 585/3/6 582/3/6 586/3/6
f 583/3/6 584/3/6 587/3/6
f 586/2/6 583/2/6 587/2/6
f 587/3/6 584/3/6 588/3/6
