# MagicaVoxel @ Ephtracy

# group
g LuckyTower0_Bottom

# material
mtllib LuckyTower0_Bottom.mtl
usemtl palette

# normals
vn -1 0 0
vn 1 0 0
vn 0 0 1
vn 0 0 -1
vn 0 -1 0
vn 0 1 0

# texcoords
vt 0.306641 0.5
vt 0.650391 0.5
vt 0.669922 0.5
vt 0.974609 0.5
vt 0.982422 0.5
vt 0.986328 0.5

# verts
v -16 0 13
v -16 0 -14
v -16 4 13
v -16 4 -14
v -10 4 9
v -10 4 -10
v -10 6 9
v -10 6 -10
v -10 8 9
v -10 8 -10
v -10 10 9
v -10 10 -10
v -10 12 9
v -10 12 -10
v -10 13 9
v -10 13 -10
v -9 2 8
v -9 2 7
v -9 2 -8
v -9 2 -9
v -9 3 7
v -9 3 -8
v -9 4 8
v -9 4 7
v -9 4 -8
v -9 4 -9
v -8 2 9
v -8 2 8
v -8 2 -9
v -8 2 -10
v -8 3 9
v -8 3 8
v -8 4 9
v -8 4 8
v -8 4 -9
v -8 4 -10
v -8 13 7
v -8 13 -0
v -8 13 -1
v -8 13 -8
v -8 14 7
v -8 14 -0
v -8 14 -1
v -8 14 -8
v -8 15 7
v -8 15 -0
v -8 15 -1
v -8 15 -8
v -8 16 7
v -8 16 -0
v -8 16 -1
v -8 16 -8
v -8 17 7
v -8 17 -0
v -8 17 -1
v -8 17 -8
v -8 18 7
v -8 18 -8
v -6 18 5
v -6 18 4
v -6 18 -5
v -6 18 -6
v -6 20 4
v -6 20 -5
v -6 21 5
v -6 21 -6
v 2 2 12
v 2 2 11
v 2 3 12
v 2 3 11
v 8 2 9
v 8 2 8
v 8 2 -9
v 8 2 -10
v 8 4 9
v 8 4 8
v 8 4 -9
v 8 4 -10
v 9 2 8
v 9 2 7
v 9 3 7
v 9 4 8
v 9 4 7
v -10 2 8
v -10 2 7
v -10 2 -8
v -10 2 -9
v -10 3 7
v -10 3 -8
v -10 4 8
v -10 4 7
v -10 4 -8
v -10 4 -9
v -9 2 9
v -9 2 8
v -9 2 -9
v -9 2 -10
v -9 4 9
v -9 4 8
v -9 4 -9
v -9 4 -10
v 1 2 12
v 1 2 11
v 1 3 12
v 1 3 11
v 5 18 5
v 5 18 4
v 5 18 -5
v 5 18 -6
v 5 20 4
v 5 20 -5
v 5 21 5
v 5 21 -6
v 7 2 9
v 7 2 8
v 7 2 -9
v 7 2 -10
v 7 3 9
v 7 3 8
v 7 3 -9
v 7 3 -10
v 7 4 9
v 7 4 8
v 7 4 -9
v 7 4 -10
v 7 13 7
v 7 13 2
v 7 13 -0
v 7 13 -1
v 7 13 -5
v 7 13 -8
v 7 14 7
v 7 14 -0
v 7 14 -1
v 7 14 -8
v 7 15 7
v 7 15 -0
v 7 15 -1
v 7 15 -8
v 7 16 7
v 7 16 -0
v 7 16 -1
v 7 16 -8
v 7 17 7
v 7 17 -0
v 7 17 -1
v 7 17 -8
v 7 18 7
v 7 18 -8
v 8 2 8
v 8 2 7
v 8 3 7
v 8 4 8
v 8 4 7
v 9 4 9
v 9 4 -10
v 9 6 9
v 9 6 -10
v 9 8 9
v 9 8 -10
v 9 10 9
v 9 10 -10
v 9 12 9
v 9 12 -10
v 9 13 9
v 9 13 -10
v 13 0 13
v 13 0 -14
v 13 4 13
v 13 4 -14
v -16 0 13
v -16 4 13
v 13 0 13
v 13 4 13
v 1 2 11
v 1 3 11
v 2 2 11
v 2 3 11
v -10 4 9
v -10 6 9
v -10 8 9
v -10 10 9
v -10 12 9
v -10 13 9
v 9 4 9
v 9 6 9
v 9 8 9
v 9 10 9
v 9 12 9
v 9 13 9
v -9 2 8
v -9 4 8
v -8 2 8
v -8 3 8
v -8 4 8
v 7 2 8
v 7 3 8
v 7 4 8
v 8 2 8
v 8 4 8
v -10 2 7
v -10 3 7
v -10 4 7
v -9 2 7
v -9 3 7
v -9 4 7
v -8 13 7
v -8 14 7
v -8 15 7
v -8 16 7
v -8 17 7
v -8 18 7
v 7 13 7
v 7 14 7
v 7 15 7
v 7 16 7
v 7 17 7
v 7 18 7
v 8 2 7
v 8 3 7
v 8 4 7
v 9 2 7
v 9 3 7
v 9 4 7
v -6 18 5
v -6 21 5
v -5 18 5
v -5 21 5
v -4 20 5
v -4 21 5
v 3 20 5
v 3 21 5
v 4 18 5
v 4 21 5
v 5 18 5
v 5 21 5
v -10 2 -9
v -10 4 -9
v -9 2 -9
v -9 4 -9
v -9 2 -10
v -9 4 -10
v -8 2 -10
v -8 4 -10
v 7 2 -10
v 7 3 -10
v 7 4 -10
v 8 2 -10
v 8 4 -10
v 1 2 12
v 1 3 12
v 2 2 12
v 2 3 12
v -9 2 9
v -9 4 9
v -8 2 9
v -8 3 9
v -8 4 9
v 7 2 9
v 7 3 9
v 7 4 9
v 8 2 9
v 8 4 9
v -10 2 8
v -10 4 8
v -9 2 8
v -9 4 8
v 8 2 8
v 8 4 8
v 9 2 8
v 9 4 8
v -6 18 -6
v -6 21 -6
v -5 18 -6
v -5 20 -6
v 4 18 -6
v 4 20 -6
v 5 18 -6
v 5 21 -6
v -10 2 -8
v -10 3 -8
v -10 4 -8
v -9 2 -8
v -9 3 -8
v -9 4 -8
v -8 13 -8
v -8 14 -8
v -8 15 -8
v -8 16 -8
v -8 17 -8
v -8 18 -8
v 7 13 -8
v 7 14 -8
v 7 15 -8
v 7 16 -8
v 7 17 -8
v 7 18 -8
v -9 2 -9
v -9 4 -9
v -8 2 -9
v -8 4 -9
v 7 2 -9
v 7 3 -9
v 7 4 -9
v 8 2 -9
v 8 4 -9
v -10 4 -10
v -10 6 -10
v -10 8 -10
v -10 10 -10
v -10 12 -10
v -10 13 -10
v 9 4 -10
v 9 6 -10
v 9 8 -10
v 9 10 -10
v 9 12 -10
v 9 13 -10
v -16 0 -14
v -16 4 -14
v 13 0 -14
v 13 4 -14
v -16 0 13
v 13 0 13
v -10 0 9
v -9 0 9
v -8 0 9
v 7 0 9
v 8 0 9
v 9 0 9
v -10 0 8
v -9 0 8
v -8 0 8
v 7 0 8
v 8 0 8
v 9 0 8
v -10 0 -8
v -7 0 -8
v 8 0 -8
v 9 0 -8
v 7 0 -9
v 8 0 -9
v -7 0 -10
v 7 0 -10
v 8 0 -10
v 9 0 -10
v -16 0 -14
v 13 0 -14
v 1 3 12
v 2 3 12
v 1 3 11
v 2 3 11
v -9 4 9
v -8 4 9
v 7 4 9
v 8 4 9
v -10 4 8
v -9 4 8
v -8 4 8
v 7 4 8
v 8 4 8
v 9 4 8
v -10 4 7
v -9 4 7
v 8 4 7
v 9 4 7
v -10 4 -8
v -9 4 -8
v -10 4 -9
v -9 4 -9
v -8 4 -9
v 7 4 -9
v 8 4 -9
v -9 4 -10
v -8 4 -10
v 7 4 -10
v 8 4 -10
v 1 2 12
v 2 2 12
v 1 2 11
v 2 2 11
v -9 2 9
v -8 2 9
v 7 2 9
v 8 2 9
v -10 2 8
v -9 2 8
v -8 2 8
v 7 2 8
v 8 2 8
v 9 2 8
v -10 2 7
v -9 2 7
v 8 2 7
v 9 2 7
v -10 2 -8
v -9 2 -8
v -10 2 -9
v -9 2 -9
v -8 2 -9
v 7 2 -9
v 8 2 -9
v -9 2 -10
v -8 2 -10
v 7 2 -10
v 8 2 -10
v -16 4 13
v 13 4 13
v -10 4 9
v 9 4 9
v -10 4 -10
v 9 4 -10
v -16 4 -14
v 13 4 -14
v -10 13 9
v 9 13 9
v -8 13 7
v 7 13 7
v 7 13 2
v 8 13 2
v -8 13 -0
v 7 13 -0
v -8 13 -1
v 7 13 -1
v 7 13 -5
v 8 13 -5
v -8 13 -8
v 7 13 -8
v -10 13 -10
v 9 13 -10
v -8 18 7
v 7 18 7
v -6 18 5
v -5 18 5
v 4 18 5
v 5 18 5
v -6 18 4
v 5 18 4
v -6 18 -5
v 5 18 -5
v -6 18 -6
v -5 18 -6
v 4 18 -6
v 5 18 -6
v -8 18 -8
v 7 18 -8
v -6 21 5
v -5 21 5
v -4 21 5
v 3 21 5
v 4 21 5
v 5 21 5
v -5 21 4
v -4 21 4
v 3 21 4
v 4 21 4
v -6 21 -6
v 5 21 -6

# faces
f 3/3/1 2/3/1 1/3/1
f 4/3/1 2/3/1 3/3/1
f 7/4/1 6/4/1 5/4/1
f 8/4/1 6/4/1 7/4/1
f 9/3/1 8/3/1 7/3/1
f 10/3/1 8/3/1 9/3/1
f 11/4/1 10/4/1 9/4/1
f 12/4/1 10/4/1 11/4/1
f 13/3/1 12/3/1 11/3/1
f 14/3/1 12/3/1 13/3/1
f 15/5/1 14/5/1 13/5/1
f 16/5/1 14/5/1 15/5/1
f 21/2/1 18/2/1 17/2/1
f 22/3/1 20/3/1 19/3/1
f 23/2/1 21/2/1 17/2/1
f 24/2/1 21/2/1 23/2/1
f 25/3/1 20/3/1 22/3/1
f 26/3/1 20/3/1 25/3/1
f 31/2/1 28/2/1 27/2/1
f 32/2/1 28/2/1 31/2/1
f 33/4/1 32/4/1 31/4/1
f 34/4/1 32/4/1 33/4/1
f 35/3/1 30/3/1 29/3/1
f 36/3/1 30/3/1 35/3/1
f 41/3/1 38/3/1 37/3/1
f 42/6/1 39/6/1 38/6/1
f 42/3/1 38/3/1 41/3/1
f 43/3/1 40/3/1 39/3/1
f 43/6/1 39/6/1 42/6/1
f 44/3/1 40/3/1 43/3/1
f 45/5/1 42/5/1 41/5/1
f 46/6/1 43/6/1 42/6/1
f 46/5/1 42/5/1 45/5/1
f 47/5/1 44/5/1 43/5/1
f 47/6/1 43/6/1 46/6/1
f 48/5/1 44/5/1 47/5/1
f 49/3/1 46/3/1 45/3/1
f 50/6/1 47/6/1 46/6/1
f 50/3/1 46/3/1 49/3/1
f 51/3/1 48/3/1 47/3/1
f 51/6/1 47/6/1 50/6/1
f 52/3/1 48/3/1 51/3/1
f 53/5/1 50/5/1 49/5/1
f 54/6/1 51/6/1 50/6/1
f 54/5/1 50/5/1 53/5/1
f 55/5/1 52/5/1 51/5/1
f 55/6/1 51/6/1 54/6/1
f 56/5/1 52/5/1 55/5/1
f 57/3/1 54/3/1 53/3/1
f 57/3/1 55/3/1 54/3/1
f 57/3/1 56/3/1 55/3/1
f 58/3/1 56/3/1 57/3/1
f 63/4/1 60/4/1 59/4/1
f 63/3/1 61/3/1 60/3/1
f 64/4/1 62/4/1 61/4/1
f 64/3/1 61/3/1 63/3/1
f 65/4/1 63/4/1 59/4/1
f 65/4/1 64/4/1 63/4/1
f 66/4/1 62/4/1 64/4/1
f 66/4/1 64/4/1 65/4/1
f 69/3/1 68/3/1 67/3/1
f 70/3/1 68/3/1 69/3/1
f 75/4/1 72/4/1 71/4/1
f 76/4/1 72/4/1 75/4/1
f 77/4/1 74/4/1 73/4/1
f 78/4/1 74/4/1 77/4/1
f 81/3/1 80/3/1 79/3/1
f 82/3/1 81/3/1 79/3/1
f 83/3/1 81/3/1 82/3/1
f 84/3/2 85/3/2 88/3/2
f 86/3/2 87/3/2 89/3/2
f 84/3/2 88/3/2 90/3/2
f 90/3/2 88/3/2 91/3/2
f 89/3/2 87/3/2 92/3/2
f 92/3/2 87/3/2 93/3/2
f 94/4/2 95/4/2 98/4/2
f 98/4/2 95/4/2 99/4/2
f 96/3/2 97/3/2 100/3/2
f 100/3/2 97/3/2 101/3/2
f 102/3/2 103/3/2 104/3/2
f 104/3/2 103/3/2 105/3/2
f 106/4/2 107/4/2 110/4/2
f 107/3/2 108/3/2 110/3/2
f 108/4/2 109/4/2 111/4/2
f 110/3/2 108/3/2 111/3/2
f 106/4/2 110/4/2 112/4/2
f 110/4/2 111/4/2 112/4/2
f 111/4/2 109/4/2 113/4/2
f 112/4/2 111/4/2 113/4/2
f 114/2/2 115/2/2 118/2/2
f 118/2/2 115/2/2 119/2/2
f 116/2/2 117/2/2 120/2/2
f 120/2/2 117/2/2 121/2/2
f 118/3/2 119/3/2 122/3/2
f 122/3/2 119/3/2 123/3/2
f 120/3/2 121/3/2 124/3/2
f 124/3/2 121/3/2 125/3/2
f 126/3/2 127/3/2 132/3/2
f 127/3/2 128/3/2 132/3/2
f 128/6/2 129/6/2 133/6/2
f 132/3/2 128/3/2 133/3/2
f 130/3/2 131/3/2 134/3/2
f 133/6/2 129/6/2 134/6/2
f 129/3/2 130/3/2 134/3/2
f 134/3/2 131/3/2 135/3/2
f 132/5/2 133/5/2 136/5/2
f 133/6/2 134/6/2 137/6/2
f 136/5/2 133/5/2 137/5/2
f 134/5/2 135/5/2 138/5/2
f 137/6/2 134/6/2 138/6/2
f 138/5/2 135/5/2 139/5/2
f 136/3/2 137/3/2 140/3/2
f 137/6/2 138/6/2 141/6/2
f 140/3/2 137/3/2 141/3/2
f 138/3/2 139/3/2 142/3/2
f 141/6/2 138/6/2 142/6/2
f 142/3/2 139/3/2 143/3/2
f 140/5/2 141/5/2 144/5/2
f 141/6/2 142/6/2 145/6/2
f 144/5/2 141/5/2 145/5/2
f 142/5/2 143/5/2 146/5/2
f 145/6/2 142/6/2 146/6/2
f 146/5/2 143/5/2 147/5/2
f 144/3/2 145/3/2 148/3/2
f 145/3/2 146/3/2 148/3/2
f 146/3/2 147/3/2 148/3/2
f 148/3/2 147/3/2 149/3/2
f 150/2/2 151/2/2 152/2/2
f 150/2/2 152/2/2 153/2/2
f 153/2/2 152/2/2 154/2/2
f 155/4/2 156/4/2 157/4/2
f 157/4/2 156/4/2 158/4/2
f 157/3/2 158/3/2 159/3/2
f 159/3/2 158/3/2 160/3/2
f 159/4/2 160/4/2 161/4/2
f 161/4/2 160/4/2 162/4/2
f 161/3/2 162/3/2 163/3/2
f 163/3/2 162/3/2 164/3/2
f 163/5/2 164/5/2 165/5/2
f 165/5/2 164/5/2 166/5/2
f 167/3/2 168/3/2 169/3/2
f 169/3/2 168/3/2 170/3/2
f 173/3/3 172/3/3 171/3/3
f 174/3/3 172/3/3 173/3/3
f 177/3/3 176/3/3 175/3/3
f 178/3/3 176/3/3 177/3/3
f 185/4/3 180/4/3 179/4/3
f 186/3/3 181/3/3 180/3/3
f 186/4/3 180/4/3 185/4/3
f 187/4/3 182/4/3 181/4/3
f 187/3/3 181/3/3 186/3/3
f 188/3/3 183/3/3 182/3/3
f 188/4/3 182/4/3 187/4/3
f 189/5/3 184/5/3 183/5/3
f 189/3/3 183/3/3 188/3/3
f 190/5/3 184/5/3 189/5/3
f 193/2/3 192/2/3 191/2/3
f 194/2/3 192/2/3 193/2/3
f 195/2/3 192/2/3 194/2/3
f 199/2/3 197/2/3 196/2/3
f 199/2/3 198/2/3 197/2/3
f 200/2/3 198/2/3 199/2/3
f 204/2/3 202/2/3 201/2/3
f 205/3/3 203/3/3 202/3/3
f 205/2/3 202/2/3 204/2/3
f 206/3/3 203/3/3 205/3/3
f 213/3/3 208/3/3 207/3/3
f 214/5/3 209/5/3 208/5/3
f 214/3/3 208/3/3 213/3/3
f 215/3/3 210/3/3 209/3/3
f 215/5/3 209/5/3 214/5/3
f 216/5/3 211/5/3 210/5/3
f 216/3/3 210/3/3 215/3/3
f 217/3/3 212/3/3 211/3/3
f 217/5/3 211/5/3 216/5/3
f 218/3/3 212/3/3 217/3/3
f 222/2/3 220/2/3 219/2/3
f 223/3/3 221/3/3 220/3/3
f 223/2/3 220/2/3 222/2/3
f 224/3/3 221/3/3 223/3/3
f 227/4/3 226/4/3 225/4/3
f 228/4/3 226/4/3 227/4/3
f 229/3/3 228/3/3 227/3/3
f 230/3/3 228/3/3 229/3/3
f 231/3/3 229/3/3 227/3/3
f 231/4/3 230/4/3 229/4/3
f 232/4/3 230/4/3 231/4/3
f 233/3/3 231/3/3 227/3/3
f 233/3/3 232/3/3 231/3/3
f 234/3/3 232/3/3 233/3/3
f 235/4/3 234/4/3 233/4/3
f 236/4/3 234/4/3 235/4/3
f 239/3/3 238/3/3 237/3/3
f 240/3/3 238/3/3 239/3/3
f 243/3/3 242/3/3 241/3/3
f 244/3/3 242/3/3 243/3/3
f 248/3/3 246/3/3 245/3/3
f 248/3/3 247/3/3 246/3/3
f 249/3/3 247/3/3 248/3/3
f 250/3/4 251/3/4 252/3/4
f 252/3/4 251/3/4 253/3/4
f 254/3/4 255/3/4 256/3/4
f 256/3/4 255/3/4 257/3/4
f 257/3/4 255/3/4 258/3/4
f 259/3/4 260/3/4 262/3/4
f 260/3/4 261/3/4 262/3/4
f 262/3/4 261/3/4 263/3/4
f 264/4/4 265/4/4 266/4/4
f 266/4/4 265/4/4 267/4/4
f 268/4/4 269/4/4 270/4/4
f 270/4/4 269/4/4 271/4/4
f 272/4/4 273/4/4 274/4/4
f 274/4/4 273/4/4 275/4/4
f 274/3/4 275/3/4 276/3/4
f 275/4/4 273/4/4 277/4/4
f 276/3/4 275/3/4 277/3/4
f 276/4/4 277/4/4 278/4/4
f 277/4/4 273/4/4 279/4/4
f 278/4/4 277/4/4 279/4/4
f 280/2/4 281/2/4 283/2/4
f 281/3/4 282/3/4 284/3/4
f 283/2/4 281/2/4 284/2/4
f 284/3/4 282/3/4 285/3/4
f 286/3/4 287/3/4 292/3/4
f 287/5/4 288/5/4 293/5/4
f 292/3/4 287/3/4 293/3/4
f 288/3/4 289/3/4 294/3/4
f 293/5/4 288/5/4 294/5/4
f 289/5/4 290/5/4 295/5/4
f 294/3/4 289/3/4 295/3/4
f 290/3/4 291/3/4 296/3/4
f 295/5/4 290/5/4 296/5/4
f 296/3/4 291/3/4 297/3/4
f 298/3/4 299/3/4 300/3/4
f 300/3/4 299/3/4 301/3/4
f 302/2/4 303/2/4 305/2/4
f 303/2/4 304/2/4 305/2/4
f 305/2/4 304/2/4 306/2/4
f 307/4/4 308/4/4 313/4/4
f 308/3/4 309/3/4 314/3/4
f 313/4/4 308/4/4 314/4/4
f 309/4/4 310/4/4 315/4/4
f 314/3/4 309/3/4 315/3/4
f 310/3/4 311/3/4 316/3/4
f 315/4/4 310/4/4 316/4/4
f 311/5/4 312/5/4 317/5/4
f 316/3/4 311/3/4 317/3/4
f 317/5/4 312/5/4 318/5/4
f 319/3/4 320/3/4 321/3/4
f 321/3/4 320/3/4 322/3/4
f 325/3/5 324/3/5 323/3/5
f 326/3/5 324/3/5 325/3/5
f 327/3/5 324/3/5 326/3/5
f 328/3/5 324/3/5 327/3/5
f 329/3/5 324/3/5 328/3/5
f 330/3/5 324/3/5 329/3/5
f 331/3/5 325/3/5 323/3/5
f 331/4/5 326/4/5 325/4/5
f 332/3/5 327/3/5 326/3/5
f 332/4/5 326/4/5 331/4/5
f 333/2/5 328/2/5 327/2/5
f 333/3/5 327/3/5 332/3/5
f 334/3/5 329/3/5 328/3/5
f 334/2/5 328/2/5 333/2/5
f 335/4/5 330/4/5 329/4/5
f 335/3/5 329/3/5 334/3/5
f 336/3/5 324/3/5 330/3/5
f 336/4/5 330/4/5 335/4/5
f 337/2/5 335/2/5 334/2/5
f 337/2/5 334/2/5 333/2/5
f 337/2/5 336/2/5 335/2/5
f 337/2/5 333/2/5 332/2/5
f 337/2/5 332/2/5 331/2/5
f 337/3/5 331/3/5 323/3/5
f 338/2/5 336/2/5 337/2/5
f 339/2/5 336/2/5 338/2/5
f 340/3/5 324/3/5 336/3/5
f 340/2/5 336/2/5 339/2/5
f 341/2/5 339/2/5 338/2/5
f 342/4/5 340/4/5 339/4/5
f 342/2/5 339/2/5 341/2/5
f 343/3/5 338/3/5 337/3/5
f 343/2/5 341/2/5 338/2/5
f 344/3/5 342/3/5 341/3/5
f 344/2/5 341/2/5 343/2/5
f 345/4/5 340/4/5 342/4/5
f 345/3/5 342/3/5 344/3/5
f 346/3/5 324/3/5 340/3/5
f 346/4/5 340/4/5 345/4/5
f 347/3/5 345/3/5 344/3/5
f 347/3/5 337/3/5 323/3/5
f 347/3/5 346/3/5 345/3/5
f 347/3/5 343/3/5 337/3/5
f 347/3/5 344/3/5 343/3/5
f 348/3/5 324/3/5 346/3/5
f 348/3/5 346/3/5 347/3/5
f 351/3/5 350/3/5 349/3/5
f 352/3/5 350/3/5 351/3/5
f 358/4/5 354/4/5 353/4/5
f 359/4/5 354/4/5 358/4/5
f 360/4/5 356/4/5 355/4/5
f 361/4/5 356/4/5 360/4/5
f 363/4/5 358/4/5 357/4/5
f 364/4/5 358/4/5 363/4/5
f 365/4/5 362/4/5 361/4/5
f 366/4/5 362/4/5 365/4/5
f 369/4/5 368/4/5 367/4/5
f 370/4/5 368/4/5 369/4/5
f 374/4/5 371/4/5 370/4/5
f 375/4/5 371/4/5 374/4/5
f 376/4/5 373/4/5 372/4/5
f 377/4/5 373/4/5 376/4/5
f 378/3/6 379/3/6 380/3/6
f 380/3/6 379/3/6 381/3/6
f 382/2/6 383/2/6 387/2/6
f 387/2/6 383/2/6 388/2/6
f 384/2/6 385/2/6 389/2/6
f 389/2/6 385/2/6 390/2/6
f 386/2/6 387/2/6 392/2/6
f 392/2/6 387/2/6 393/2/6
f 390/2/6 391/2/6 394/2/6
f 394/2/6 391/2/6 395/2/6
f 396/3/6 397/3/6 398/3/6
f 398/3/6 397/3/6 399/3/6
f 399/3/6 400/3/6 403/3/6
f 403/3/6 400/3/6 404/3/6
f 401/2/6 402/2/6 405/2/6
f 405/2/6 402/2/6 406/2/6
f 407/3/6 408/3/6 409/3/6
f 409/3/6 408/3/6 410/3/6
f 407/3/6 409/3/6 411/3/6
f 410/3/6 408/3/6 412/3/6
f 407/3/6 411/3/6 413/3/6
f 411/3/6 412/3/6 413/3/6
f 412/3/6 408/3/6 414/3/6
f 413/3/6 412/3/6 414/3/6
f 415/5/6 416/5/6 417/5/6
f 417/5/6 416/5/6 418/5/6
f 418/5/6 416/5/6 419/5/6
f 419/5/6 416/5/6 420/5/6
f 415/5/6 417/5/6 421/5/6
f 419/3/6 420/3/6 422/3/6
f 415/5/6 421/5/6 423/5/6
f 422/3/6 420/3/6 424/3/6
f 424/3/6 420/3/6 425/3/6
f 420/5/6 416/5/6 426/5/6
f 425/3/6 420/3/6 426/3/6
f 415/5/6 423/5/6 427/5/6
f 425/5/6 426/5/6 428/5/6
f 415/5/6 427/5/6 429/5/6
f 427/5/6 428/5/6 429/5/6
f 426/5/6 416/5/6 430/5/6
f 429/5/6 428/5/6 430/5/6
f 428/5/6 426/5/6 430/5/6
f 431/3/6 432/3/6 433/3/6
f 433/3/6 432/3/6 434/3/6
f 434/3/6 432/3/6 435/3/6
f 435/3/6 432/3/6 436/3/6
f 431/3/6 433/3/6 437/3/6
f 436/3/6 432/3/6 438/3/6
f 431/3/6 437/3/6 439/3/6
f 438/3/6 432/3/6 440/3/6
f 431/3/6 439/3/6 441/3/6
f 440/3/6 432/3/6 444/3/6
f 442/3/6 443/3/6 445/3/6
f 443/3/6 444/3/6 445/3/6
f 431/3/6 441/3/6 445/3/6
f 441/3/6 442/3/6 445/3/6
f 444/3/6 432/3/6 446/3/6
f 445/3/6 444/3/6 446/3/6
f 447/4/6 448/4/6 453/4/6
f 448/3/6 449/3/6 453/3/6
f 449/4/6 450/4/6 454/4/6
f 453/3/6 449/3/6 454/3/6
f 450/3/6 451/3/6 455/3/6
f 454/4/6 450/4/6 455/4/6
f 451/4/6 452/4/6 456/4/6
f 455/3/6 451/3/6 456/3/6
f 454/4/6 455/4/6 457/4/6
f 453/4/6 454/4/6 457/4/6
f 455/4/6 456/4/6 457/4/6
f 447/4/6 453/4/6 457/4/6
f 456/4/6 452/4/6 458/4/6
f 457/4/6 456/4/6 458/4/6
