# MagicaVoxel @ Ephtracy

# group
g RapidTower0_Bottom

# material
mtllib RapidTower0_Bottom.mtl
usemtl palette

# normals
vn -1 0 0
vn 1 0 0
vn 0 0 1
vn 0 0 -1
vn 0 -1 0
vn 0 1 0

# texcoords
vt 0.306641 0.5
vt 0.669922 0.5
vt 0.673828 0.5
vt 0.955078 0.5
vt 0.962891 0.5
vt 0.974609 0.5
vt 0.978516 0.5
vt 0.982422 0.5
vt 0.986328 0.5

# verts
v -16 0 10
v -16 0 -17
v -16 4 10
v -16 4 -17
v -10 4 6
v -10 4 -13
v -10 12 6
v -10 12 -13
v -10 13 6
v -10 13 -13
v -9 2 5
v -9 2 4
v -9 2 -11
v -9 2 -12
v -9 3 4
v -9 3 -11
v -9 4 5
v -9 4 4
v -9 4 -11
v -9 4 -12
v -8 2 6
v -8 2 5
v -8 2 -12
v -8 2 -13
v -8 3 6
v -8 3 5
v -8 3 -12
v -8 3 -13
v -8 4 6
v -8 4 5
v -8 4 -12
v -8 4 -13
v -8 13 4
v -8 13 -3
v -8 13 -4
v -8 13 -11
v -8 14 4
v -8 14 -3
v -8 14 -4
v -8 14 -11
v -8 15 4
v -8 15 -3
v -8 15 -4
v -8 15 -11
v -8 16 4
v -8 16 -3
v -8 16 -4
v -8 16 -11
v -8 17 4
v -8 17 -3
v -8 17 -4
v -8 17 -11
v -8 18 4
v -8 18 -11
v -6 18 2
v -6 18 1
v -6 18 -8
v -6 18 -9
v -6 20 1
v -6 20 -8
v -6 21 4
v -6 21 2
v -6 21 -9
v -6 21 -11
v -6 28 4
v -6 28 2
v -6 29 2
v -6 29 -11
v -3 23 -11
v -3 23 -13
v -3 29 -11
v -3 29 -13
v 0 23 -3
v 0 23 -4
v 0 26 -3
v 0 26 -4
v 2 2 9
v 2 2 8
v 2 3 9
v 2 3 8
v 8 2 6
v 8 2 5
v 8 2 -12
v 8 2 -13
v 8 3 5
v 8 4 6
v 8 4 5
v 8 4 -12
v 8 4 -13
v 9 2 5
v 9 2 4
v 9 3 4
v 9 4 5
v 9 4 4
v -10 2 5
v -10 2 4
v -10 2 -11
v -10 2 -12
v -10 3 4
v -10 3 -11
v -10 4 5
v -10 4 4
v -10 4 -11
v -10 4 -12
v -9 2 6
v -9 2 5
v -9 2 -12
v -9 2 -13
v -9 4 6
v -9 4 5
v -9 4 -12
v -9 4 -13
v -1 23 -3
v -1 23 -4
v -1 26 -3
v -1 26 -4
v 1 2 9
v 1 2 8
v 1 3 9
v 1 3 8
v 2 23 -11
v 2 23 -13
v 2 29 -11
v 2 29 -13
v 5 18 2
v 5 18 1
v 5 18 -8
v 5 18 -9
v 5 20 1
v 5 20 -8
v 5 21 4
v 5 21 2
v 5 21 -9
v 5 21 -11
v 5 28 4
v 5 28 2
v 5 29 2
v 5 29 -11
v 7 2 6
v 7 2 5
v 7 2 -12
v 7 2 -13
v 7 3 6
v 7 3 5
v 7 3 -12
v 7 3 -13
v 7 4 6
v 7 4 5
v 7 4 -12
v 7 4 -13
v 7 13 4
v 7 13 -1
v 7 13 -3
v 7 13 -4
v 7 13 -8
v 7 13 -11
v 7 14 4
v 7 14 -3
v 7 14 -4
v 7 14 -11
v 7 15 4
v 7 15 -3
v 7 15 -4
v 7 15 -11
v 7 16 4
v 7 16 -3
v 7 16 -4
v 7 16 -11
v 7 17 4
v 7 17 -3
v 7 17 -4
v 7 17 -11
v 7 18 4
v 7 18 -11
v 8 2 5
v 8 2 4
v 8 3 5
v 8 3 4
v 8 4 5
v 8 4 4
v 9 4 6
v 9 4 -13
v 9 12 6
v 9 12 -13
v 9 13 6
v 9 13 -13
v 13 0 10
v 13 0 -17
v 13 4 10
v 13 4 -17
v -16 0 10
v -16 4 10
v 13 0 10
v 13 4 10
v 1 2 8
v 1 3 8
v 2 2 8
v 2 3 8
v -10 4 6
v -10 12 6
v -10 13 6
v 9 4 6
v 9 12 6
v 9 13 6
v -9 2 5
v -9 4 5
v -8 2 5
v -8 3 5
v -8 4 5
v 7 2 5
v 7 3 5
v 7 4 5
v 8 2 5
v 8 3 5
v 8 4 5
v -10 2 4
v -10 3 4
v -10 4 4
v -9 2 4
v -9 3 4
v -9 4 4
v -8 13 4
v -8 14 4
v -8 15 4
v -8 16 4
v -8 17 4
v -8 18 4
v -6 21 4
v -6 28 4
v 5 21 4
v 5 28 4
v 7 13 4
v 7 14 4
v 7 15 4
v 7 16 4
v 7 17 4
v 7 18 4
v 8 2 4
v 8 3 4
v 8 4 4
v 9 2 4
v 9 3 4
v 9 4 4
v -6 18 2
v -6 21 2
v -6 28 2
v -6 29 2
v -5 18 2
v -5 20 2
v 4 18 2
v 4 20 2
v 5 18 2
v 5 21 2
v 5 28 2
v 5 29 2
v -1 23 -4
v -1 26 -4
v 0 23 -4
v 0 26 -4
v -10 2 -12
v -10 4 -12
v -9 2 -12
v -9 4 -12
v -9 2 -13
v -9 4 -13
v -8 2 -13
v -8 3 -13
v -8 4 -13
v 7 2 -13
v 7 3 -13
v 7 4 -13
v 8 2 -13
v 8 4 -13
v 1 2 9
v 1 3 9
v 2 2 9
v 2 3 9
v -9 2 6
v -9 4 6
v -8 2 6
v -8 3 6
v -8 4 6
v 7 2 6
v 7 3 6
v 7 4 6
v 8 2 6
v 8 4 6
v -10 2 5
v -10 4 5
v -9 2 5
v -9 4 5
v 8 2 5
v 8 3 5
v 8 4 5
v 9 2 5
v 9 4 5
v -1 23 -3
v -1 26 -3
v 0 23 -3
v 0 26 -3
v -6 18 -9
v -6 21 -9
v -5 18 -9
v -5 20 -9
v 4 18 -9
v 4 20 -9
v 5 18 -9
v 5 21 -9
v -10 2 -11
v -10 3 -11
v -10 4 -11
v -9 2 -11
v -9 3 -11
v -9 4 -11
v -8 13 -11
v -8 14 -11
v -8 15 -11
v -8 16 -11
v -8 17 -11
v -8 18 -11
v -6 21 -11
v -6 29 -11
v -3 23 -11
v -3 29 -11
v 2 23 -11
v 2 29 -11
v 5 21 -11
v 5 29 -11
v 7 13 -11
v 7 14 -11
v 7 15 -11
v 7 16 -11
v 7 17 -11
v 7 18 -11
v -9 2 -12
v -9 4 -12
v -8 2 -12
v -8 3 -12
v -8 4 -12
v 7 2 -12
v 7 3 -12
v 7 4 -12
v 8 2 -12
v 8 4 -12
v -10 4 -13
v -10 12 -13
v -10 13 -13
v -3 23 -13
v -3 29 -13
v -2 25 -13
v -2 27 -13
v 1 25 -13
v 1 27 -13
v 2 23 -13
v 2 29 -13
v 9 4 -13
v 9 12 -13
v 9 13 -13
v -16 0 -17
v -16 4 -17
v 13 0 -17
v 13 4 -17
v -16 0 10
v 13 0 10
v -6 0 8
v -5 0 8
v -8 0 7
v -7 0 7
v -6 0 7
v -9 0 6
v -8 0 6
v -7 0 6
v -6 0 6
v -5 0 6
v 7 0 6
v 8 0 6
v -10 0 5
v -9 0 5
v -8 0 5
v 7 0 5
v 8 0 5
v 9 0 5
v -11 0 4
v -10 0 4
v 9 0 4
v 10 0 4
v -11 0 3
v -10 0 3
v 9 0 3
v 10 0 3
v 10 0 2
v 11 0 2
v 9 0 1
v 11 0 1
v -11 0 -0
v -10 0 -0
v -11 0 -7
v -10 0 -7
v -12 0 -8
v -11 0 -8
v -12 0 -9
v -11 0 -9
v -11 0 -10
v -10 0 -10
v 9 0 -10
v 10 0 -10
v -11 0 -11
v -10 0 -11
v 8 0 -11
v 9 0 -11
v 10 0 -11
v -10 0 -12
v -9 0 -12
v -8 0 -12
v 7 0 -12
v 8 0 -12
v -9 0 -13
v -8 0 -13
v -7 0 -13
v -6 0 -13
v 5 0 -13
v 6 0 -13
v 7 0 -13
v 8 0 -13
v -8 0 -14
v -7 0 -14
v -6 0 -14
v -5 0 -14
v -4 0 -14
v 0 0 -14
v 5 0 -14
v 6 0 -14
v 7 0 -14
v -6 0 -15
v -5 0 -15
v -4 0 -15
v -4 0 -16
v 0 0 -16
v -16 0 -17
v 13 0 -17
v 1 3 9
v 2 3 9
v 1 3 8
v 2 3 8
v -9 4 6
v -8 4 6
v 7 4 6
v 8 4 6
v -10 4 5
v -9 4 5
v -8 4 5
v 7 4 5
v 8 4 5
v 9 4 5
v -10 4 4
v -9 4 4
v 8 4 4
v 9 4 4
v -10 4 -11
v -9 4 -11
v -10 4 -12
v -9 4 -12
v -8 4 -12
v 7 4 -12
v 8 4 -12
v -9 4 -13
v -8 4 -13
v 7 4 -13
v 8 4 -13
v -6 21 4
v 5 21 4
v -6 21 2
v 5 21 2
v -6 21 -9
v 5 21 -9
v -6 21 -11
v 5 21 -11
v -3 23 -11
v 2 23 -11
v -3 23 -13
v 2 23 -13
v -1 26 -3
v 0 26 -3
v -1 26 -4
v 0 26 -4
v 1 2 9
v 2 2 9
v 1 2 8
v 2 2 8
v -9 2 6
v -8 2 6
v 7 2 6
v 8 2 6
v -10 2 5
v -9 2 5
v -8 2 5
v 7 2 5
v 8 2 5
v 9 2 5
v -10 2 4
v -9 2 4
v 8 2 4
v 9 2 4
v -10 2 -11
v -9 2 -11
v -10 2 -12
v -9 2 -12
v -8 2 -12
v 7 2 -12
v 8 2 -12
v -9 2 -13
v -8 2 -13
v 7 2 -13
v 8 2 -13
v -16 4 10
v 13 4 10
v -10 4 6
v 9 4 6
v -10 4 -13
v 9 4 -13
v -16 4 -17
v 13 4 -17
v -10 13 6
v 9 13 6
v -8 13 4
v 7 13 4
v 7 13 -1
v 8 13 -1
v -8 13 -3
v 7 13 -3
v -8 13 -4
v 7 13 -4
v 7 13 -8
v 8 13 -8
v -8 13 -11
v 7 13 -11
v -10 13 -13
v 9 13 -13
v -8 18 4
v 7 18 4
v -6 18 2
v -5 18 2
v 4 18 2
v 5 18 2
v -6 18 1
v 5 18 1
v -6 18 -8
v 5 18 -8
v -6 18 -9
v -5 18 -9
v 4 18 -9
v 5 18 -9
v -8 18 -11
v 7 18 -11
v -1 23 -3
v 0 23 -3
v -1 23 -4
v 0 23 -4
v -6 28 4
v 5 28 4
v -6 28 2
v 5 28 2
v -6 29 2
v 5 29 2
v -5 29 -0
v -1 29 -0
v 0 29 -0
v 4 29 -0
v -5 29 -9
v -1 29 -9
v 0 29 -9
v 4 29 -9
v -6 29 -11
v -3 29 -11
v 2 29 -11
v 5 29 -11
v -3 29 -13
v 2 29 -13

# faces
f 3/6/1 2/6/1 1/6/1
f 4/6/1 2/6/1 3/6/1
f 7/6/1 6/6/1 5/6/1
f 8/6/1 6/6/1 7/6/1
f 9/8/1 8/8/1 7/8/1
f 10/8/1 8/8/1 9/8/1
f 15/7/1 12/7/1 11/7/1
f 16/7/1 14/7/1 13/7/1
f 17/7/1 15/7/1 11/7/1
f 18/7/1 15/7/1 17/7/1
f 19/7/1 14/7/1 16/7/1
f 20/7/1 14/7/1 19/7/1
f 25/7/1 22/7/1 21/7/1
f 26/7/1 22/7/1 25/7/1
f 27/7/1 24/7/1 23/7/1
f 28/7/1 24/7/1 27/7/1
f 29/6/1 26/6/1 25/6/1
f 30/6/1 26/6/1 29/6/1
f 31/9/1 28/9/1 27/9/1
f 32/9/1 28/9/1 31/9/1
f 37/9/1 34/9/1 33/9/1
f 38/4/1 35/4/1 34/4/1
f 38/9/1 34/9/1 37/9/1
f 39/9/1 36/9/1 35/9/1
f 39/4/1 35/4/1 38/4/1
f 40/9/1 36/9/1 39/9/1
f 41/5/1 38/5/1 37/5/1
f 42/4/1 39/4/1 38/4/1
f 42/5/1 38/5/1 41/5/1
f 43/5/1 40/5/1 39/5/1
f 43/4/1 39/4/1 42/4/1
f 44/5/1 40/5/1 43/5/1
f 45/9/1 42/9/1 41/9/1
f 46/4/1 43/4/1 42/4/1
f 46/9/1 42/9/1 45/9/1
f 47/9/1 44/9/1 43/9/1
f 47/4/1 43/4/1 46/4/1
f 48/9/1 44/9/1 47/9/1
f 49/5/1 46/5/1 45/5/1
f 50/4/1 47/4/1 46/4/1
f 50/5/1 46/5/1 49/5/1
f 51/5/1 48/5/1 47/5/1
f 51/4/1 47/4/1 50/4/1
f 52/5/1 48/5/1 51/5/1
f 53/9/1 50/9/1 49/9/1
f 53/9/1 51/9/1 50/9/1
f 53/9/1 52/9/1 51/9/1
f 54/9/1 52/9/1 53/9/1
f 59/6/1 56/6/1 55/6/1
f 59/9/1 57/9/1 56/9/1
f 60/6/1 58/6/1 57/6/1
f 60/9/1 57/9/1 59/9/1
f 62/6/1 59/6/1 55/6/1
f 62/6/1 60/6/1 59/6/1
f 63/6/1 58/6/1 60/6/1
f 63/6/1 60/6/1 62/6/1
f 65/9/1 62/9/1 61/9/1
f 65/9/1 64/9/1 63/9/1
f 65/9/1 63/9/1 62/9/1
f 66/9/1 64/9/1 65/9/1
f 67/9/1 64/9/1 66/9/1
f 68/9/1 64/9/1 67/9/1
f 71/9/1 70/9/1 69/9/1
f 72/9/1 70/9/1 71/9/1
f 75/9/1 74/9/1 73/9/1
f 76/9/1 74/9/1 75/9/1
f 79/6/1 78/6/1 77/6/1
f 80/6/1 78/6/1 79/6/1
f 85/6/1 82/6/1 81/6/1
f 86/6/1 85/6/1 81/6/1
f 87/6/1 85/6/1 86/6/1
f 88/6/1 84/6/1 83/6/1
f 89/6/1 84/6/1 88/6/1
f 92/6/1 91/6/1 90/6/1
f 93/6/1 92/6/1 90/6/1
f 94/6/1 92/6/1 93/6/1
f 95/6/2 96/6/2 99/6/2
f 97/6/2 98/6/2 100/6/2
f 95/6/2 99/6/2 101/6/2
f 101/6/2 99/6/2 102/6/2
f 100/6/2 98/6/2 103/6/2
f 103/6/2 98/6/2 104/6/2
f 105/6/2 106/6/2 109/6/2
f 109/6/2 106/6/2 110/6/2
f 107/6/2 108/6/2 111/6/2
f 111/6/2 108/6/2 112/6/2
f 113/9/2 114/9/2 115/9/2
f 115/9/2 114/9/2 116/9/2
f 117/6/2 118/6/2 119/6/2
f 119/6/2 118/6/2 120/6/2
f 121/9/2 122/9/2 123/9/2
f 123/9/2 122/9/2 124/9/2
f 125/6/2 126/6/2 129/6/2
f 126/9/2 127/9/2 129/9/2
f 127/6/2 128/6/2 130/6/2
f 129/9/2 127/9/2 130/9/2
f 125/6/2 129/6/2 132/6/2
f 129/6/2 130/6/2 132/6/2
f 130/6/2 128/6/2 133/6/2
f 132/6/2 130/6/2 133/6/2
f 131/9/2 132/9/2 135/9/2
f 133/9/2 134/9/2 135/9/2
f 132/9/2 133/9/2 135/9/2
f 135/9/2 134/9/2 136/9/2
f 136/9/2 134/9/2 137/9/2
f 137/9/2 134/9/2 138/9/2
f 139/7/2 140/7/2 143/7/2
f 143/7/2 140/7/2 144/7/2
f 141/7/2 142/7/2 145/7/2
f 145/7/2 142/7/2 146/7/2
f 143/6/2 144/6/2 147/6/2
f 147/6/2 144/6/2 148/6/2
f 145/9/2 146/9/2 149/9/2
f 149/9/2 146/9/2 150/9/2
f 151/9/2 152/9/2 157/9/2
f 152/9/2 153/9/2 157/9/2
f 153/4/2 154/4/2 158/4/2
f 157/9/2 153/9/2 158/9/2
f 155/9/2 156/9/2 159/9/2
f 158/4/2 154/4/2 159/4/2
f 154/9/2 155/9/2 159/9/2
f 159/9/2 156/9/2 160/9/2
f 157/5/2 158/5/2 161/5/2
f 158/4/2 159/4/2 162/4/2
f 161/5/2 158/5/2 162/5/2
f 159/5/2 160/5/2 163/5/2
f 162/4/2 159/4/2 163/4/2
f 163/5/2 160/5/2 164/5/2
f 161/9/2 162/9/2 165/9/2
f 162/4/2 163/4/2 166/4/2
f 165/9/2 162/9/2 166/9/2
f 163/9/2 164/9/2 167/9/2
f 166/4/2 163/4/2 167/4/2
f 167/9/2 164/9/2 168/9/2
f 165/5/2 166/5/2 169/5/2
f 166/4/2 167/4/2 170/4/2
f 169/5/2 166/5/2 170/5/2
f 167/5/2 168/5/2 171/5/2
f 170/4/2 167/4/2 171/4/2
f 171/5/2 168/5/2 172/5/2
f 169/9/2 170/9/2 173/9/2
f 170/9/2 171/9/2 173/9/2
f 171/9/2 172/9/2 173/9/2
f 173/9/2 172/9/2 174/9/2
f 175/7/2 176/7/2 177/7/2
f 177/7/2 176/7/2 178/7/2
f 177/6/2 178/6/2 179/6/2
f 179/6/2 178/6/2 180/6/2
f 181/6/2 182/6/2 183/6/2
f 183/6/2 182/6/2 184/6/2
f 183/8/2 184/8/2 185/8/2
f 185/8/2 184/8/2 186/8/2
f 187/6/2 188/6/2 189/6/2
f 189/6/2 188/6/2 190/6/2
f 193/6/3 192/6/3 191/6/3
f 194/6/3 192/6/3 193/6/3
f 197/6/3 196/6/3 195/6/3
f 198/6/3 196/6/3 197/6/3
f 202/6/3 200/6/3 199/6/3
f 203/8/3 201/8/3 200/8/3
f 203/6/3 200/6/3 202/6/3
f 204/8/3 201/8/3 203/8/3
f 207/7/3 206/7/3 205/7/3
f 208/7/3 206/7/3 207/7/3
f 209/7/3 206/7/3 208/7/3
f 213/7/3 211/7/3 210/7/3
f 214/6/3 212/6/3 211/6/3
f 214/7/3 211/7/3 213/7/3
f 215/6/3 212/6/3 214/6/3
f 219/7/3 217/7/3 216/7/3
f 220/9/3 218/9/3 217/9/3
f 220/7/3 217/7/3 219/7/3
f 221/9/3 218/9/3 220/9/3
f 230/9/3 229/9/3 228/9/3
f 231/9/3 229/9/3 230/9/3
f 232/9/3 223/9/3 222/9/3
f 233/5/3 224/5/3 223/5/3
f 233/9/3 223/9/3 232/9/3
f 234/9/3 225/9/3 224/9/3
f 234/5/3 224/5/3 233/5/3
f 235/5/3 226/5/3 225/5/3
f 235/9/3 225/9/3 234/9/3
f 236/9/3 227/9/3 226/9/3
f 236/5/3 226/5/3 235/5/3
f 237/9/3 227/9/3 236/9/3
f 241/7/3 239/7/3 238/7/3
f 242/6/3 240/6/3 239/6/3
f 242/7/3 239/7/3 241/7/3
f 243/6/3 240/6/3 242/6/3
f 248/6/3 245/6/3 244/6/3
f 249/6/3 245/6/3 248/6/3
f 250/9/3 249/9/3 248/9/3
f 251/6/3 245/6/3 249/6/3
f 251/9/3 249/9/3 250/9/3
f 252/6/3 251/6/3 250/6/3
f 253/6/3 245/6/3 251/6/3
f 253/6/3 251/6/3 252/6/3
f 254/9/3 247/9/3 246/9/3
f 255/9/3 247/9/3 254/9/3
f 258/9/3 257/9/3 256/9/3
f 259/9/3 257/9/3 258/9/3
f 262/6/3 261/6/3 260/6/3
f 263/6/3 261/6/3 262/6/3
f 266/6/3 265/6/3 264/6/3
f 267/6/3 265/6/3 266/6/3
f 268/6/3 265/6/3 267/6/3
f 272/6/3 270/6/3 269/6/3
f 272/6/3 271/6/3 270/6/3
f 273/6/3 271/6/3 272/6/3
f 274/6/4 275/6/4 276/6/4
f 276/6/4 275/6/4 277/6/4
f 278/6/4 279/6/4 280/6/4
f 280/6/4 279/6/4 281/6/4
f 281/6/4 279/6/4 282/6/4
f 283/6/4 284/6/4 286/6/4
f 284/6/4 285/6/4 286/6/4
f 286/6/4 285/6/4 287/6/4
f 288/6/4 289/6/4 290/6/4
f 290/6/4 289/6/4 291/6/4
f 292/6/4 293/6/4 295/6/4
f 293/6/4 294/6/4 295/6/4
f 295/6/4 294/6/4 296/6/4
f 297/9/4 298/9/4 299/9/4
f 299/9/4 298/9/4 300/9/4
f 301/6/4 302/6/4 303/6/4
f 303/6/4 302/6/4 304/6/4
f 303/9/4 304/9/4 305/9/4
f 304/6/4 302/6/4 306/6/4
f 305/9/4 304/9/4 306/9/4
f 305/6/4 306/6/4 307/6/4
f 306/6/4 302/6/4 308/6/4
f 307/6/4 306/6/4 308/6/4
f 309/7/4 310/7/4 312/7/4
f 310/9/4 311/9/4 313/9/4
f 312/7/4 310/7/4 313/7/4
f 313/9/4 311/9/4 314/9/4
f 321/9/4 322/9/4 323/9/4
f 323/9/4 322/9/4 324/9/4
f 321/9/4 323/9/4 325/9/4
f 321/9/4 325/9/4 327/9/4
f 325/9/4 326/9/4 327/9/4
f 327/9/4 326/9/4 328/9/4
f 315/9/4 316/9/4 329/9/4
f 316/5/4 317/5/4 330/5/4
f 329/9/4 316/9/4 330/9/4
f 317/9/4 318/9/4 331/9/4
f 330/5/4 317/5/4 331/5/4
f 318/5/4 319/5/4 332/5/4
f 331/9/4 318/9/4 332/9/4
f 319/9/4 320/9/4 333/9/4
f 332/5/4 319/5/4 333/5/4
f 333/9/4 320/9/4 334/9/4
f 335/7/4 336/7/4 337/7/4
f 337/7/4 336/7/4 338/7/4
f 338/7/4 336/7/4 339/7/4
f 340/7/4 341/7/4 343/7/4
f 341/7/4 342/7/4 343/7/4
f 343/7/4 342/7/4 344/7/4
f 348/9/4 349/9/4 350/9/4
f 350/9/4 349/9/4 351/9/4
f 348/9/4 350/9/4 352/9/4
f 350/4/4 351/4/4 352/4/4
f 351/9/4 349/9/4 353/9/4
f 352/4/4 351/4/4 353/4/4
f 348/9/4 352/9/4 354/9/4
f 352/9/4 353/9/4 354/9/4
f 353/9/4 349/9/4 355/9/4
f 354/9/4 353/9/4 355/9/4
f 345/6/4 346/6/4 356/6/4
f 346/8/4 347/8/4 357/8/4
f 356/6/4 346/6/4 357/6/4
f 357/8/4 347/8/4 358/8/4
f 359/6/4 360/6/4 361/6/4
f 361/6/4 360/6/4 362/6/4
f 365/6/5 364/6/5 363/6/5
f 366/6/5 364/6/5 365/6/5
f 367/6/5 365/6/5 363/6/5
f 368/6/5 365/6/5 367/6/5
f 369/7/5 366/7/5 365/7/5
f 369/6/5 365/6/5 368/6/5
f 370/6/5 367/6/5 363/6/5
f 371/7/5 368/7/5 367/7/5
f 371/6/5 367/6/5 370/6/5
f 372/9/5 369/9/5 368/9/5
f 372/7/5 368/7/5 371/7/5
f 373/7/5 366/7/5 369/7/5
f 373/9/5 369/9/5 372/9/5
f 374/6/5 364/6/5 366/6/5
f 374/7/5 366/7/5 373/7/5
f 375/6/5 364/6/5 374/6/5
f 376/6/5 364/6/5 375/6/5
f 377/6/5 370/6/5 363/6/5
f 378/9/5 371/9/5 370/9/5
f 378/6/5 370/6/5 377/6/5
f 379/7/5 373/7/5 372/7/5
f 379/9/5 371/9/5 378/9/5
f 379/7/5 372/7/5 371/7/5
f 379/7/5 374/7/5 373/7/5
f 379/7/5 375/7/5 374/7/5
f 380/9/5 376/9/5 375/9/5
f 380/7/5 375/7/5 379/7/5
f 381/6/5 364/6/5 376/6/5
f 381/9/5 376/9/5 380/9/5
f 382/6/5 364/6/5 381/6/5
f 383/6/5 377/6/5 363/6/5
f 384/7/5 378/7/5 377/7/5
f 384/6/5 377/6/5 383/6/5
f 384/7/5 380/7/5 379/7/5
f 384/7/5 382/7/5 381/7/5
f 384/7/5 381/7/5 380/7/5
f 384/7/5 379/7/5 378/7/5
f 385/6/5 364/6/5 382/6/5
f 385/7/5 382/7/5 384/7/5
f 386/6/5 364/6/5 385/6/5
f 387/6/5 383/6/5 363/6/5
f 387/9/5 384/9/5 383/9/5
f 388/7/5 385/7/5 384/7/5
f 388/9/5 384/9/5 387/9/5
f 389/9/5 386/9/5 385/9/5
f 389/7/5 385/7/5 388/7/5
f 390/6/5 364/6/5 386/6/5
f 390/9/5 386/9/5 389/9/5
f 391/7/5 389/7/5 388/7/5
f 391/6/5 364/6/5 390/6/5
f 391/7/5 390/7/5 389/7/5
f 391/7/5 388/7/5 387/7/5
f 392/6/5 364/6/5 391/6/5
f 393/7/5 391/7/5 387/7/5
f 393/7/5 392/7/5 391/7/5
f 394/6/5 364/6/5 392/6/5
f 394/7/5 392/7/5 393/7/5
f 395/6/5 387/6/5 363/6/5
f 395/7/5 393/7/5 387/7/5
f 396/7/5 393/7/5 395/7/5
f 397/6/5 395/6/5 363/6/5
f 397/6/5 396/6/5 395/6/5
f 398/7/5 393/7/5 396/7/5
f 398/6/5 396/6/5 397/6/5
f 399/6/5 397/6/5 363/6/5
f 400/7/5 398/7/5 397/7/5
f 400/6/5 397/6/5 399/6/5
f 401/6/5 399/6/5 363/6/5
f 401/9/5 400/9/5 399/9/5
f 402/7/5 398/7/5 400/7/5
f 402/9/5 400/9/5 401/9/5
f 403/6/5 402/6/5 401/6/5
f 403/7/5 398/7/5 402/7/5
f 404/7/5 393/7/5 398/7/5
f 404/7/5 398/7/5 403/7/5
f 405/6/5 394/6/5 393/6/5
f 405/7/5 393/7/5 404/7/5
f 406/6/5 394/6/5 405/6/5
f 407/9/5 404/9/5 403/9/5
f 407/6/5 403/6/5 401/6/5
f 408/7/5 405/7/5 404/7/5
f 408/9/5 404/9/5 407/9/5
f 409/7/5 405/7/5 408/7/5
f 410/9/5 406/9/5 405/9/5
f 410/7/5 405/7/5 409/7/5
f 411/6/5 394/6/5 406/6/5
f 411/9/5 406/9/5 410/9/5
f 412/7/5 409/7/5 408/7/5
f 412/6/5 408/6/5 407/6/5
f 413/7/5 409/7/5 412/7/5
f 414/7/5 409/7/5 413/7/5
f 415/7/5 409/7/5 414/7/5
f 416/6/5 410/6/5 409/6/5
f 416/7/5 409/7/5 415/7/5
f 416/6/5 411/6/5 410/6/5
f 417/9/5 414/9/5 413/9/5
f 417/6/5 413/6/5 412/6/5
f 418/7/5 415/7/5 414/7/5
f 418/9/5 414/9/5 417/9/5
f 419/7/5 415/7/5 418/7/5
f 420/7/5 415/7/5 419/7/5
f 421/7/5 415/7/5 420/7/5
f 422/7/5 415/7/5 421/7/5
f 423/9/5 416/9/5 415/9/5
f 423/7/5 415/7/5 422/7/5
f 424/6/5 411/6/5 416/6/5
f 424/9/5 416/9/5 423/9/5
f 425/6/5 418/6/5 417/6/5
f 425/7/5 419/7/5 418/7/5
f 426/9/5 420/9/5 419/9/5
f 426/7/5 419/7/5 425/7/5
f 427/7/5 421/7/5 420/7/5
f 427/9/5 420/9/5 426/9/5
f 428/7/5 421/7/5 427/7/5
f 429/7/5 421/7/5 428/7/5
f 430/7/5 421/7/5 429/7/5
f 431/9/5 422/9/5 421/9/5
f 431/7/5 421/7/5 430/7/5
f 432/7/5 423/7/5 422/7/5
f 432/9/5 422/9/5 431/9/5
f 433/6/5 424/6/5 423/6/5
f 433/7/5 423/7/5 432/7/5
f 434/6/5 426/6/5 425/6/5
f 434/6/5 427/6/5 426/6/5
f 434/7/5 428/7/5 427/7/5
f 435/9/5 429/9/5 428/9/5
f 435/7/5 428/7/5 434/7/5
f 436/7/5 430/7/5 429/7/5
f 436/9/5 429/9/5 435/9/5
f 437/6/5 435/6/5 434/6/5
f 437/7/5 430/7/5 436/7/5
f 437/6/5 436/6/5 435/6/5
f 438/6/5 431/6/5 430/6/5
f 438/7/5 430/7/5 437/7/5
f 438/6/5 432/6/5 431/6/5
f 438/6/5 433/6/5 432/6/5
f 439/6/5 417/6/5 412/6/5
f 439/6/5 401/6/5 363/6/5
f 439/6/5 438/6/5 437/6/5
f 439/6/5 425/6/5 417/6/5
f 439/6/5 407/6/5 401/6/5
f 439/6/5 437/6/5 434/6/5
f 439/6/5 434/6/5 425/6/5
f 439/6/5 412/6/5 407/6/5
f 440/6/5 364/6/5 394/6/5
f 440/6/5 438/6/5 439/6/5
f 440/6/5 433/6/5 438/6/5
f 440/6/5 411/6/5 424/6/5
f 440/6/5 424/6/5 433/6/5
f 440/6/5 394/6/5 411/6/5
f 443/6/5 442/6/5 441/6/5
f 444/6/5 442/6/5 443/6/5
f 450/6/5 446/6/5 445/6/5
f 451/6/5 446/6/5 450/6/5
f 452/6/5 448/6/5 447/6/5
f 453/6/5 448/6/5 452/6/5
f 455/6/5 450/6/5 449/6/5
f 456/6/5 450/6/5 455/6/5
f 457/6/5 454/6/5 453/6/5
f 458/6/5 454/6/5 457/6/5
f 461/6/5 460/6/5 459/6/5
f 462/6/5 460/6/5 461/6/5
f 466/6/5 463/6/5 462/6/5
f 467/6/5 463/6/5 466/6/5
f 468/6/5 465/6/5 464/6/5
f 469/6/5 465/6/5 468/6/5
f 472/9/5 471/9/5 470/9/5
f 473/9/5 471/9/5 472/9/5
f 476/9/5 475/9/5 474/9/5
f 477/9/5 475/9/5 476/9/5
f 480/9/5 479/9/5 478/9/5
f 481/9/5 479/9/5 480/9/5
f 484/9/5 483/9/5 482/9/5
f 485/9/5 483/9/5 484/9/5
f 486/6/6 487/6/6 488/6/6
f 488/6/6 487/6/6 489/6/6
f 490/7/6 491/7/6 495/7/6
f 495/7/6 491/7/6 496/7/6
f 492/7/6 493/7/6 497/7/6
f 497/7/6 493/7/6 498/7/6
f 494/7/6 495/7/6 500/7/6
f 500/7/6 495/7/6 501/7/6
f 498/7/6 499/7/6 502/7/6
f 502/7/6 499/7/6 503/7/6
f 504/7/6 505/7/6 506/7/6
f 506/7/6 505/7/6 507/7/6
f 507/7/6 508/7/6 511/7/6
f 511/7/6 508/7/6 512/7/6
f 509/7/6 510/7/6 513/7/6
f 513/7/6 510/7/6 514/7/6
f 515/6/6 516/6/6 517/6/6
f 517/6/6 516/6/6 518/6/6
f 515/6/6 517/6/6 519/6/6
f 518/6/6 516/6/6 520/6/6
f 515/6/6 519/6/6 521/6/6
f 519/6/6 520/6/6 521/6/6
f 520/6/6 516/6/6 522/6/6
f 521/6/6 520/6/6 522/6/6
f 523/8/6 524/8/6 525/8/6
f 525/8/6 524/8/6 526/8/6
f 526/8/6 524/8/6 527/8/6
f 527/8/6 524/8/6 528/8/6
f 523/8/6 525/8/6 529/8/6
f 527/9/6 528/9/6 530/9/6
f 523/8/6 529/8/6 531/8/6
f 530/9/6 528/9/6 532/9/6
f 532/9/6 528/9/6 533/9/6
f 528/8/6 524/8/6 534/8/6
f 533/9/6 528/9/6 534/9/6
f 523/8/6 531/8/6 535/8/6
f 533/8/6 534/8/6 536/8/6
f 523/8/6 535/8/6 537/8/6
f 535/8/6 536/8/6 537/8/6
f 534/8/6 524/8/6 538/8/6
f 537/8/6 536/8/6 538/8/6
f 536/8/6 534/8/6 538/8/6
f 539/9/6 540/9/6 541/9/6
f 541/9/6 540/9/6 542/9/6
f 542/9/6 540/9/6 543/9/6
f 543/9/6 540/9/6 544/9/6
f 539/9/6 541/9/6 545/9/6
f 544/9/6 540/9/6 546/9/6
f 539/9/6 545/9/6 547/9/6
f 546/9/6 540/9/6 548/9/6
f 539/9/6 547/9/6 549/9/6
f 548/9/6 540/9/6 552/9/6
f 550/9/6 551/9/6 553/9/6
f 551/9/6 552/9/6 553/9/6
f 539/9/6 549/9/6 553/9/6
f 549/9/6 550/9/6 553/9/6
f 552/9/6 540/9/6 554/9/6
f 553/9/6 552/9/6 554/9/6
f 555/9/6 556/9/6 557/9/6
f 557/9/6 556/9/6 558/9/6
f 559/9/6 560/9/6 561/9/6
f 561/9/6 560/9/6 562/9/6
f 563/9/6 564/9/6 565/9/6
f 565/9/6 564/9/6 566/9/6
f 566/9/6 564/9/6 567/9/6
f 567/9/6 564/9/6 568/9/6
f 563/9/6 565/9/6 569/9/6
f 565/3/6 566/3/6 569/3/6
f 566/2/6 567/2/6 570/2/6
f 569/3/6 566/3/6 570/3/6
f 567/3/6 568/3/6 571/3/6
f 570/2/6 567/2/6 571/2/6
f 568/9/6 564/9/6 572/9/6
f 571/3/6 568/3/6 572/3/6
f 570/9/6 571/9/6 573/9/6
f 569/9/6 570/9/6 573/9/6
f 571/9/6 572/9/6 573/9/6
f 563/9/6 569/9/6 573/9/6
f 573/9/6 572/9/6 574/9/6
f 574/9/6 572/9/6 575/9/6
f 572/9/6 564/9/6 576/9/6
f 575/9/6 572/9/6 576/9/6
f 574/9/6 575/9/6 577/9/6
f 577/9/6 575/9/6 578/9/6
